<svg width="1604" height="840" viewBox="0 0 1604 840" fill="none" xmlns="http://www.w3.org/2000/svg">
<path d="M805.662 796.691C804.998 796 804.918 794.935 805.471 794.152L808.255 790.207C808.536 789.81 808.951 789.528 809.424 789.415L860.721 777.155C862.19 776.804 863.504 778.147 863.12 779.608L848.185 836.55C847.789 838.061 845.891 838.554 844.808 837.428L805.662 796.691Z" fill="#BF2652"/>
<path d="M809.372 792.431C808.298 791.325 808.827 789.471 810.323 789.098L862.146 776.176C863.638 775.804 864.975 777.186 864.553 778.665L849.941 829.92C849.519 831.4 847.654 831.869 846.582 830.765L809.372 792.431Z" fill="#F95070"/>
<path d="M171.33 645.615C171.191 646.563 170.4 647.281 169.443 647.325L167.363 647.421C166.877 647.443 166.4 647.288 166.021 646.984L141.703 627.503C140.523 626.558 140.777 624.698 142.166 624.103L173.325 610.772C174.761 610.158 176.316 611.353 176.091 612.899L171.33 645.615Z" fill="#BF2652"/>
<path d="M167.924 644.734C167.71 646.261 165.921 646.981 164.709 646.029L140.724 627.196C139.514 626.246 139.785 624.343 141.212 623.768L169.437 612.394C170.864 611.819 172.379 613.004 172.165 614.527L167.924 644.734Z" fill="#F95070"/>
<path d="M42.417 672.903C42.6801 671.982 43.5599 671.376 44.5147 671.46L49.325 671.881C49.8094 671.923 50.2619 672.141 50.5976 672.492L87.0056 710.651C88.0486 711.744 87.5494 713.555 86.0936 713.959L29.3716 729.707C27.8665 730.125 26.4847 728.733 26.9134 727.231L42.417 672.903Z" fill="#F9C973"/>
<path d="M47.9649 673.965C48.3805 672.48 50.2491 672.005 51.3243 673.11L88.5687 711.39C89.6414 712.493 89.1198 714.343 87.6293 714.723L35.9837 727.888C34.4927 728.268 33.1489 726.893 33.5637 725.411L47.9649 673.965Z" fill="#FFF9B0"/>
<path d="M864.167 75.2767C864.43 74.3551 865.31 73.7496 866.265 73.8331L868.694 74.0458C869.179 74.0883 869.631 74.3057 869.967 74.6576L893.413 99.2315C894.456 100.325 893.957 102.135 892.501 102.539L856.717 112.474C855.212 112.892 853.83 111.5 854.259 109.998L864.167 75.2767Z" fill="#F9C973"/>
<path d="M867.723 76.5688C868.138 75.084 870.007 74.6081 871.082 75.7133L894.425 99.7052C895.497 100.808 894.976 102.658 893.485 103.038L861.117 111.289C859.626 111.669 858.282 110.294 858.697 108.812L867.723 76.5688Z" fill="#FFF9B0"/>
<path d="M1577.95 306.943C1578.3 307.836 1577.96 308.85 1577.15 309.362L1573.07 311.937C1572.66 312.197 1572.17 312.297 1571.69 312.22L1519.61 303.874C1518.12 303.635 1517.42 301.892 1518.33 300.689L1553.96 253.826C1554.91 252.583 1556.85 252.855 1557.42 254.31L1577.95 306.943Z" fill="#BF2652"/>
<path d="M1572.89 309.455C1573.46 310.888 1572.26 312.398 1570.73 312.169L1517.92 304.232C1516.4 304.003 1515.69 302.215 1516.65 301.01L1549.8 259.276C1550.75 258.071 1552.66 258.353 1553.22 259.783L1572.89 309.455Z" fill="#F95070"/>
<path d="M1457.54 355.025C1457 354.234 1457.09 353.17 1457.77 352.489L1459.19 351.054C1459.53 350.708 1459.98 350.499 1460.47 350.465L1491.05 348.335C1492.56 348.23 1493.63 349.77 1493.02 351.149L1479.39 381.54C1478.75 382.966 1476.79 383.141 1475.91 381.852L1457.54 355.025Z" fill="#F9C973"/>
<path d="M1460.61 353.409C1459.73 352.141 1460.56 350.399 1462.1 350.277L1491.96 347.904C1493.5 347.782 1494.59 349.364 1493.93 350.754L1481.12 377.769C1480.46 379.159 1478.54 379.315 1477.67 378.05L1460.61 353.409Z" fill="#FFF9B0"/>
<path d="M1299.93 13.9777C1300.83 13.6335 1301.84 13.9722 1302.35 14.7853L1303.12 16.0165C1303.37 16.429 1303.47 16.9213 1303.39 17.4011L1299.13 43.2588C1298.88 44.7495 1297.13 45.4396 1295.93 44.5196L1273.6 27.3725C1272.36 26.4213 1272.64 24.4804 1274.1 23.9194L1299.93 13.9777Z" fill="#BF2652"/>
<path d="M1300.47 16.9946C1301.9 16.4336 1303.41 17.6402 1303.17 19.1639L1299.31 44.1036C1299.07 45.6237 1297.28 46.3198 1296.08 45.3575L1276.43 29.6021C1275.23 28.6395 1275.52 26.7386 1276.95 26.1788L1300.47 16.9946Z" fill="#F95070"/>
</svg>
