<svg width="100" height="100" viewBox="0 0 100 100" fill="none" xmlns="http://www.w3.org/2000/svg">
<circle cx="50" cy="50" r="50" fill="#3AA2DC"/>
<mask id="mask0_233_2051" style="mask-type:alpha" maskUnits="userSpaceOnUse" x="18" y="8" width="82" height="91">
<ellipse cx="59" cy="53.5" rx="41" ry="45.5" fill="#D9D9D9"/>
</mask>
<g mask="url(#mask0_233_2051)">
<path d="M27.0682 80V10.1818H41.5909V36.4318H42.0341C42.6705 35.0227 43.5909 33.5909 44.7955 32.1364C46.0227 30.6591 47.6136 29.4318 49.5682 28.4545C51.5455 27.4545 54 26.9545 56.9318 26.9545C60.75 26.9545 64.2727 27.9545 67.5 29.9545C70.7273 31.9318 73.3068 34.9205 75.2386 38.9205C77.1705 42.8977 78.1364 47.8864 78.1364 53.8864C78.1364 59.7273 77.1932 64.6591 75.3068 68.6818C73.4432 72.6818 70.8977 75.7159 67.6705 77.7841C64.4659 79.8295 60.875 80.8523 56.8977 80.8523C54.0795 80.8523 51.6818 80.3864 49.7045 79.4545C47.75 78.5227 46.1477 77.3523 44.8977 75.9432C43.6477 74.5114 42.6932 73.0682 42.0341 71.6136H41.3864V80H27.0682ZM41.2841 53.8182C41.2841 56.9318 41.7159 59.6477 42.5795 61.9659C43.4432 64.2841 44.6932 66.0909 46.3295 67.3864C47.9659 68.6591 49.9545 69.2955 52.2955 69.2955C54.6591 69.2955 56.6591 68.6477 58.2955 67.3523C59.9318 66.0341 61.1705 64.2159 62.0114 61.8977C62.875 59.5568 63.3068 56.8636 63.3068 53.8182C63.3068 50.7955 62.8864 48.1364 62.0455 45.8409C61.2045 43.5455 59.9659 41.75 58.3295 40.4545C56.6932 39.1591 54.6818 38.5114 52.2955 38.5114C49.9318 38.5114 47.9318 39.1364 46.2955 40.3864C44.6818 41.6364 43.4432 43.4091 42.5795 45.7045C41.7159 48 41.2841 50.7045 41.2841 53.8182Z" fill="#FDFDFD"/>
</g>
</svg>
