<svg width="100" height="100" viewBox="0 0 100 100" fill="none" xmlns="http://www.w3.org/2000/svg">
<circle cx="50" cy="50" r="50" fill="#FDFDFD"/>
<path d="M66.943 46.1047C66.8358 45.7986 66.6408 45.5298 66.3816 45.3308C66.1224 45.1318 65.8103 45.0112 65.483 44.9836L55.8231 43.5948L51.494 34.9439C51.355 34.661 51.1379 34.4224 50.8677 34.2555C50.5975 34.0885 50.285 34 49.9661 34C49.6472 34 49.3347 34.0885 49.0645 34.2555C48.7942 34.4224 48.5772 34.661 48.4382 34.9439L44.1091 43.578L34.4492 44.9836C34.135 45.0276 33.8396 45.1576 33.5965 45.3587C33.3535 45.5598 33.1725 45.824 33.0741 46.1214C32.984 46.412 32.9759 46.7213 33.0507 47.0161C33.1255 47.3109 33.2803 47.5801 33.4985 47.7947L40.5099 54.4878L38.8123 63.9921C38.7517 64.3058 38.7834 64.63 38.9037 64.9265C39.024 65.223 39.2279 65.4794 39.4913 65.6653C39.7481 65.8462 40.0508 65.953 40.3657 65.9737C40.6806 65.9944 40.9951 65.9282 41.2739 65.7825L49.9661 61.3148L58.6243 65.7992C58.8626 65.9317 59.1317 66.0009 59.4052 66C59.7648 66.0013 60.1156 65.8899 60.4069 65.6821C60.6703 65.4961 60.8742 65.2397 60.9945 64.9432C61.1148 64.6467 61.1465 64.3225 61.0859 64.0088L59.3883 54.5046L66.3997 47.8114C66.6448 47.6068 66.826 47.3377 66.9222 47.0356C67.0183 46.7335 67.0255 46.4107 66.943 46.1047ZM56.5022 52.7978C56.3031 52.9876 56.1541 53.2226 56.0683 53.4821C55.9825 53.7417 55.9624 54.0181 56.0099 54.287L57.2322 61.2981L50.8489 57.9515C50.6033 57.8226 50.3292 57.7552 50.051 57.7552C49.7727 57.7552 49.4987 57.8226 49.253 57.9515L42.8697 61.2981L44.0921 54.287C44.1395 54.0181 44.1194 53.7417 44.0336 53.4821C43.9478 53.2226 43.7988 52.9876 43.5997 52.7978L38.5067 47.778L45.6539 46.7573C45.929 46.7196 46.1904 46.6159 46.4154 46.4555C46.6403 46.295 46.8219 46.0827 46.9442 45.837L49.9661 39.4618L53.1577 45.8537C53.28 46.0994 53.4616 46.3118 53.6866 46.4722C53.9115 46.6327 54.173 46.7363 54.448 46.774L61.5952 47.7947L56.5022 52.7978Z" fill="#3AA2DC"/>
</svg>
