<svg width="100" height="100" viewBox="0 0 100 100" fill="none" xmlns="http://www.w3.org/2000/svg">
<circle cx="50" cy="50" r="50" fill="#FDFDFD"/>
<path d="M51.6666 56.6666H41.6666C41.2246 56.6666 40.8006 56.8422 40.4881 57.1548C40.1755 57.4673 39.9999 57.8913 39.9999 58.3333C39.9999 58.7753 40.1755 59.1992 40.4881 59.5118C40.8006 59.8244 41.2246 60 41.6666 60H51.6666C52.1086 60 52.5325 59.8244 52.8451 59.5118C53.1577 59.1992 53.3333 58.7753 53.3333 58.3333C53.3333 57.8913 53.1577 57.4673 52.8451 57.1548C52.5325 56.8422 52.1086 56.6666 51.6666 56.6666ZM44.9999 46.6666H48.3333C48.7753 46.6666 49.1992 46.491 49.5118 46.1785C49.8243 45.8659 49.9999 45.442 49.9999 45C49.9999 44.5579 49.8243 44.134 49.5118 43.8214C49.1992 43.5089 48.7753 43.3333 48.3333 43.3333H44.9999C44.5579 43.3333 44.134 43.5089 43.8214 43.8214C43.5089 44.134 43.3333 44.5579 43.3333 45C43.3333 45.442 43.5089 45.8659 43.8214 46.1785C44.134 46.491 44.5579 46.6666 44.9999 46.6666ZM64.9999 50H59.9999V35C60.0011 34.7063 59.9246 34.4175 59.7783 34.1629C59.632 33.9082 59.4209 33.6968 59.1666 33.55C58.9132 33.4037 58.6258 33.3267 58.3333 33.3267C58.0407 33.3267 57.7533 33.4037 57.4999 33.55L52.4999 36.4166L47.4999 33.55C47.2466 33.4037 46.9592 33.3267 46.6666 33.3267C46.374 33.3267 46.0866 33.4037 45.8333 33.55L40.8333 36.4166L35.8333 33.55C35.5799 33.4037 35.2925 33.3267 34.9999 33.3267C34.7074 33.3267 34.42 33.4037 34.1666 33.55C33.9123 33.6968 33.7012 33.9082 33.5549 34.1629C33.4086 34.4175 33.3321 34.7063 33.3333 35V61.6666C33.3333 62.9927 33.86 64.2645 34.7977 65.2022C35.7354 66.1398 37.0072 66.6666 38.3333 66.6666H61.6666C62.9927 66.6666 64.2645 66.1398 65.2021 65.2022C66.1398 64.2645 66.6666 62.9927 66.6666 61.6666V51.6666C66.6666 51.2246 66.491 50.8007 66.1784 50.4881C65.8659 50.1755 65.442 50 64.9999 50ZM38.3333 63.3333C37.8912 63.3333 37.4673 63.1577 37.1548 62.8451C36.8422 62.5326 36.6666 62.1086 36.6666 61.6666V37.8833L39.9999 39.7833C40.2572 39.9176 40.5431 39.9878 40.8333 39.9878C41.1235 39.9878 41.4094 39.9176 41.6666 39.7833L46.6666 36.9166L51.6666 39.7833C51.9238 39.9176 52.2097 39.9878 52.4999 39.9878C52.7901 39.9878 53.076 39.9176 53.3333 39.7833L56.6666 37.8833V61.6666C56.6711 62.2352 56.7726 62.7988 56.9666 63.3333H38.3333ZM63.3333 61.6666C63.3333 62.1086 63.1577 62.5326 62.8451 62.8451C62.5326 63.1577 62.1086 63.3333 61.6666 63.3333C61.2246 63.3333 60.8006 63.1577 60.4881 62.8451C60.1755 62.5326 59.9999 62.1086 59.9999 61.6666V53.3333H63.3333V61.6666ZM51.6666 50H41.6666C41.2246 50 40.8006 50.1755 40.4881 50.4881C40.1755 50.8007 39.9999 51.2246 39.9999 51.6666C39.9999 52.1086 40.1755 52.5326 40.4881 52.8451C40.8006 53.1577 41.2246 53.3333 41.6666 53.3333H51.6666C52.1086 53.3333 52.5325 53.1577 52.8451 52.8451C53.1577 52.5326 53.3333 52.1086 53.3333 51.6666C53.3333 51.2246 53.1577 50.8007 52.8451 50.4881C52.5325 50.1755 52.1086 50 51.6666 50Z" fill="#3AA2DC"/>
</svg>
