<svg width="1728" height="1139" viewBox="0 0 1728 1139" fill="none" xmlns="http://www.w3.org/2000/svg">
<rect x="1459.53" y="938.745" width="400" height="400" rx="50" transform="rotate(-60 1459.53 938.745)" fill="#AAD2E9"/>
<rect x="1448" y="664.915" width="100" height="100" rx="20" transform="rotate(-55 1448 664.915)" fill="#6FBCE7"/>
<rect width="400" height="400" rx="50" transform="matrix(-0.5 -0.866025 -0.866025 0.5 234.41 354.41)" fill="#AAD2E9"/>
<rect width="100" height="100" rx="20" transform="matrix(-0.5 -0.866025 -0.866025 0.5 244.602 86.6025)" fill="#6FBCE7"/>
<path d="M847.662 861.691C846.998 861 846.918 859.935 847.471 859.152L850.255 855.207C850.536 854.81 850.951 854.528 851.424 854.415L902.721 842.155C904.19 841.804 905.504 843.147 905.12 844.608L890.185 901.55C889.789 903.061 887.891 903.554 886.808 902.428L847.662 861.691Z" fill="#BF2652"/>
<path d="M851.372 857.431C850.298 856.325 850.827 854.471 852.323 854.098L904.146 841.176C905.638 840.804 906.975 842.186 906.553 843.665L891.941 894.92C891.519 896.4 889.654 896.869 888.582 895.765L851.372 857.431Z" fill="#F95070"/>
<path d="M213.33 710.615C213.191 711.563 212.4 712.281 211.443 712.325L209.363 712.421C208.877 712.443 208.4 712.288 208.021 711.984L183.703 692.503C182.523 691.558 182.777 689.698 184.166 689.103L215.325 675.772C216.761 675.158 218.316 676.353 218.091 677.899L213.33 710.615Z" fill="#BF2652"/>
<path d="M209.924 709.734C209.71 711.261 207.921 711.981 206.709 711.029L182.724 692.196C181.514 691.246 181.785 689.343 183.212 688.768L211.437 677.394C212.864 676.819 214.379 678.004 214.165 679.527L209.924 709.734Z" fill="#F95070"/>
<path d="M84.417 737.903C84.6801 736.982 85.5599 736.376 86.5147 736.46L91.325 736.881C91.8094 736.923 92.2619 737.141 92.5976 737.492L129.006 775.651C130.049 776.744 129.549 778.555 128.094 778.959L71.3716 794.707C69.8665 795.125 68.4847 793.733 68.9134 792.231L84.417 737.903Z" fill="#F9C973"/>
<path d="M89.9649 738.965C90.3805 737.48 92.2491 737.005 93.3243 738.11L130.569 776.39C131.641 777.493 131.12 779.343 129.629 779.723L77.9837 792.888C76.4927 793.268 75.1489 791.893 75.5637 790.411L89.9649 738.965Z" fill="#FFF9B0"/>
<path d="M906.167 140.277C906.43 139.355 907.31 138.75 908.265 138.833L910.694 139.046C911.179 139.088 911.631 139.306 911.967 139.658L935.413 164.231C936.456 165.325 935.957 167.135 934.501 167.539L898.717 177.474C897.212 177.892 895.83 176.5 896.259 174.998L906.167 140.277Z" fill="#F9C973"/>
<path d="M909.723 141.569C910.138 140.084 912.007 139.608 913.082 140.713L936.425 164.705C937.497 165.808 936.976 167.658 935.485 168.038L903.117 176.289C901.626 176.669 900.282 175.294 900.697 173.812L909.723 141.569Z" fill="#FFF9B0"/>
<path d="M1619.95 371.943C1620.3 372.836 1619.96 373.85 1619.15 374.362L1615.07 376.937C1614.66 377.197 1614.17 377.297 1613.69 377.22L1561.61 368.874C1560.12 368.635 1559.42 366.892 1560.33 365.689L1595.96 318.826C1596.91 317.583 1598.85 317.855 1599.42 319.31L1619.95 371.943Z" fill="#BF2652"/>
<path d="M1614.89 374.455C1615.46 375.888 1614.26 377.398 1612.73 377.169L1559.92 369.232C1558.4 369.003 1557.69 367.215 1558.65 366.01L1591.8 324.276C1592.75 323.071 1594.66 323.353 1595.22 324.783L1614.89 374.455Z" fill="#F95070"/>
<path d="M1499.54 420.025C1499 419.234 1499.09 418.17 1499.77 417.489L1501.19 416.054C1501.53 415.708 1501.98 415.499 1502.47 415.465L1533.05 413.335C1534.56 413.23 1535.63 414.77 1535.02 416.149L1521.39 446.54C1520.75 447.966 1518.79 448.141 1517.91 446.852L1499.54 420.025Z" fill="#F9C973"/>
<path d="M1502.61 418.409C1501.73 417.141 1502.56 415.399 1504.1 415.277L1533.96 412.904C1535.5 412.782 1536.59 414.364 1535.93 415.754L1523.12 442.769C1522.46 444.159 1520.54 444.315 1519.67 443.05L1502.61 418.409Z" fill="#FFF9B0"/>
<path d="M1341.93 78.9777C1342.83 78.6335 1343.84 78.9722 1344.35 79.7853L1345.12 81.0165C1345.37 81.429 1345.47 81.9213 1345.39 82.4011L1341.13 108.259C1340.88 109.75 1339.13 110.44 1337.93 109.52L1315.6 92.3725C1314.36 91.4213 1314.64 89.4804 1316.1 88.9194L1341.93 78.9777Z" fill="#BF2652"/>
<path d="M1342.47 81.9946C1343.9 81.4336 1345.41 82.6402 1345.17 84.1639L1341.31 109.104C1341.07 110.624 1339.28 111.32 1338.08 110.357L1318.43 94.6021C1317.23 93.6395 1317.52 91.7386 1318.95 91.1788L1342.47 81.9946Z" fill="#F95070"/>
</svg>
