<svg width="100" height="100" viewBox="0 0 100 100" fill="none" xmlns="http://www.w3.org/2000/svg">
<circle cx="50" cy="50" r="50" fill="#FDFDFD"/>
<path d="M45.8333 47.5H49.9999C50.442 47.5 50.8659 47.3244 51.1784 47.0118C51.491 46.6992 51.6666 46.2753 51.6666 45.8333C51.6666 45.3913 51.491 44.9673 51.1784 44.6548C50.8659 44.3422 50.442 44.1666 49.9999 44.1666H48.3333V43.3333C48.3333 42.8913 48.1577 42.4673 47.8451 42.1548C47.5325 41.8422 47.1086 41.6666 46.6666 41.6666C46.2246 41.6666 45.8006 41.8422 45.4881 42.1548C45.1755 42.4673 44.9999 42.8913 44.9999 43.3333V44.25C43.9873 44.4556 43.0872 45.0301 42.4744 45.8621C41.8615 46.694 41.5797 47.724 41.6835 48.752C41.7874 49.7801 42.2695 50.7329 43.0363 51.4255C43.8032 52.118 44.8 52.501 45.8333 52.5H47.4999C47.7209 52.5 47.9329 52.5877 48.0892 52.744C48.2455 52.9003 48.3333 53.1123 48.3333 53.3333C48.3333 53.5543 48.2455 53.7663 48.0892 53.9225C47.9329 54.0788 47.7209 54.1666 47.4999 54.1666H43.3333C42.8912 54.1666 42.4673 54.3422 42.1548 54.6548C41.8422 54.9673 41.6666 55.3913 41.6666 55.8333C41.6666 56.2753 41.8422 56.6992 42.1548 57.0118C42.4673 57.3244 42.8912 57.5 43.3333 57.5H44.9999V58.3333C44.9999 58.7753 45.1755 59.1992 45.4881 59.5118C45.8006 59.8244 46.2246 60 46.6666 60C47.1086 60 47.5325 59.8244 47.8451 59.5118C48.1577 59.1992 48.3333 58.7753 48.3333 58.3333V57.4166C49.3459 57.211 50.246 56.6364 50.8588 55.8045C51.4717 54.9726 51.7535 53.9426 51.6497 52.9145C51.5458 51.8865 51.0637 50.9337 50.2969 50.2411C49.53 49.5485 48.5332 49.1656 47.4999 49.1666H45.8333C45.6123 49.1666 45.4003 49.0788 45.244 48.9225C45.0877 48.7663 44.9999 48.5543 44.9999 48.3333C44.9999 48.1123 45.0877 47.9003 45.244 47.744C45.4003 47.5877 45.6123 47.5 45.8333 47.5ZM64.9999 50H59.9999V35C60.0011 34.7063 59.9246 34.4175 59.7783 34.1629C59.632 33.9082 59.4209 33.6968 59.1666 33.55C58.9132 33.4037 58.6258 33.3267 58.3333 33.3267C58.0407 33.3267 57.7533 33.4037 57.4999 33.55L52.4999 36.4166L47.4999 33.55C47.2466 33.4037 46.9592 33.3267 46.6666 33.3267C46.374 33.3267 46.0866 33.4037 45.8333 33.55L40.8333 36.4166L35.8333 33.55C35.5799 33.4037 35.2925 33.3267 34.9999 33.3267C34.7074 33.3267 34.42 33.4037 34.1666 33.55C33.9123 33.6968 33.7012 33.9082 33.5549 34.1629C33.4086 34.4175 33.3321 34.7063 33.3333 35V61.6666C33.3333 62.9927 33.86 64.2645 34.7977 65.2022C35.7354 66.1398 37.0072 66.6666 38.3333 66.6666H61.6666C62.9927 66.6666 64.2645 66.1398 65.2021 65.2022C66.1398 64.2645 66.6666 62.9927 66.6666 61.6666V51.6666C66.6666 51.2246 66.491 50.8007 66.1784 50.4881C65.8659 50.1755 65.442 50 64.9999 50ZM38.3333 63.3333C37.8912 63.3333 37.4673 63.1577 37.1548 62.8451C36.8422 62.5326 36.6666 62.1086 36.6666 61.6666V37.8833L39.9999 39.7833C40.2572 39.9176 40.5431 39.9878 40.8333 39.9878C41.1235 39.9878 41.4094 39.9176 41.6666 39.7833L46.6666 36.9166L51.6666 39.7833C51.9238 39.9176 52.2097 39.9878 52.4999 39.9878C52.7901 39.9878 53.076 39.9176 53.3333 39.7833L56.6666 37.8833V61.6666C56.6711 62.2352 56.7726 62.7988 56.9666 63.3333H38.3333ZM63.3333 61.6666C63.3333 62.1086 63.1577 62.5326 62.8451 62.8451C62.5326 63.1577 62.1086 63.3333 61.6666 63.3333C61.2246 63.3333 60.8006 63.1577 60.4881 62.8451C60.1755 62.5326 59.9999 62.1086 59.9999 61.6666V53.3333H63.3333V61.6666Z" fill="#0092E4"/>
</svg>
