<svg width="160" height="184" viewBox="0 0 160 184" fill="none" xmlns="http://www.w3.org/2000/svg">
<circle cx="81.9511" cy="101.463" r="78.0488" fill="#998B6E"/>
<circle cx="78.0488" cy="105.366" r="78.0488" fill="#C5B493"/>
<mask id="mask0_910_19706" style="mask-type:alpha" maskUnits="userSpaceOnUse" x="0" y="27" width="157" height="157">
<circle cx="78.0488" cy="105.366" r="78.0488" fill="#D9D9D9"/>
</mask>
<g mask="url(#mask0_910_19706)">
<path d="M99.3587 112.388L99.9549 114.551L101.09 118.641L101.618 120.56L101.892 121.561C102.155 122.529 102.389 123.405 102.613 124.258L102.839 125.124L102.976 125.654C103.967 129.514 104.693 132.758 105.234 135.847C106.512 143.127 106.734 149.514 105.785 156.002C104.711 163.347 102.095 170.93 97.5791 179.284C95.8368 182.508 97.0374 186.533 100.261 188.275C103.484 190.017 107.509 188.817 109.251 185.594C114.482 175.917 117.607 166.861 118.914 157.922C120.083 149.934 119.811 142.149 118.303 133.554L118.217 133.072L118.129 132.588C117.503 129.196 116.691 125.668 115.616 121.536L115.351 120.525C114.97 119.084 114.558 117.568 114.037 115.68L112.214 109.095L112.155 108.88C111.186 105.346 107.536 103.267 104.002 104.236C100.469 105.205 98.3898 108.855 99.3587 112.388Z" fill="#EBBAAA"/>
<path d="M107.781 185.82C109.966 183.869 111.943 180.494 111.976 179.324C109.472 178.608 104.093 177.704 102.61 179.811C100.756 182.446 105.049 188.259 107.781 185.82Z" fill="#EBBAAA"/>
<path d="M102.425 180.439L79.0098 181.275L79.6055 212.468V252.634H93.4492L101.644 212.468L107.108 187.658L102.425 180.439Z" fill="#C5B493"/>
<path d="M75.7023 196.94C62.5915 196.94 51.963 191.467 51.963 184.714C51.963 177.962 62.5915 172.488 75.7023 172.488C88.8132 172.488 99.4417 177.962 99.4417 184.714C99.4417 191.467 88.8132 196.94 75.7023 196.94Z" fill="#C4B493"/>
<path d="M75.7512 181.219H50.0933L51.303 252.829H67.8884L75.7512 181.219Z" fill="#C5B493"/>
<path d="M113.818 105.177C109.277 95.6356 97.7166 91.7776 88.3549 96.6801C78.853 101.656 75.5049 113.608 81.0393 122.796L98.2245 151.326L125.163 134.742L120.781 119.806L113.818 105.177Z" fill="#294763"/>
<path d="M107.255 114.74C107.433 102.678 97.8167 92.7472 85.7558 92.5366L72.6725 92.3083C60.4374 92.0947 50.4048 101.956 50.4077 114.193L50.4149 144.893L50.4282 179.311C50.4282 179.311 68.947 182.857 80.2643 182.853C91.5814 182.849 107.987 179.333 107.987 179.333L106.809 144.906L107.255 114.74Z" fill="#2E5880"/>
<path d="M41.6032 124.434C38.322 136.739 36.8353 146.25 37.12 155.294C37.4488 165.741 40.2272 175.335 45.8579 184.847C47.8341 188.185 52.1425 189.289 55.4808 187.313C58.8192 185.337 59.9234 181.028 57.9472 177.69C53.5255 170.221 51.4163 162.938 51.1618 154.852C50.9276 147.411 52.2189 139.15 55.1777 128.054C56.1773 124.305 53.9488 120.456 50.2003 119.457C46.4519 118.457 42.6028 120.686 41.6032 124.434Z" fill="#EBBAAA"/>
<path d="M79.3851 111.017C72.4968 110.896 67.0103 105.215 67.1305 98.3266C67.2508 91.4384 72.9322 85.9519 79.8205 86.0721C86.7087 86.1923 92.1953 91.8738 92.075 98.762C91.9548 105.65 86.2733 111.137 79.3851 111.017Z" fill="#294763"/>
<path d="M49.9256 99.9572C56.3635 92.9781 61.9881 93.1987 65.3659 95.5433C69.4751 98.3954 63.8049 106.342 63.8049 106.342C70.958 113.691 78.6365 129.74 69.9504 135.804L52.1196 143.22L30.439 135.804C30.439 135.804 35.6559 115.426 49.9256 99.9572Z" fill="#2E5880"/>
<path d="M99.9023 179.902C99.9023 182.783 101.834 185.868 105.457 189.272L108.396 186.143L108.205 185.962L108.018 185.782C105.437 183.28 104.195 181.236 104.195 179.902H99.9023Z" fill="#998B6E"/>
<path d="M47.0229 185.951C48.5838 185.639 55.6732 181.138 58.5348 179.512C60.6814 183.024 66.9641 185.171 67.1202 185.951C67.3153 186.927 51.5684 203.885 50.535 201.561C48.9737 198.049 45.0716 186.341 47.0229 185.951Z" fill="#C4B493"/>
<path d="M47.279 190.535C51.7851 189.112 56.4967 186.147 61.0284 181.615L57.993 178.58C53.9334 182.64 49.8112 185.233 45.9863 186.441L47.279 190.535Z" fill="#998B6E"/>
<path d="M79.2175 81.561H79.6117C83.8134 81.561 87.2195 84.9672 87.2195 89.1688V98.7337C87.2195 102.935 83.8134 106.342 79.6117 106.342H79.2175C75.0159 106.342 71.6097 102.935 71.6097 98.7337V89.1688C71.6097 84.9672 75.0159 81.561 79.2175 81.561Z" fill="#EBBAAA"/>
<path d="M51.1657 67.534C44.5973 67.534 39.2725 62.2092 39.2725 55.6406C39.2725 49.0722 44.5973 43.7473 51.1657 43.7473C57.7343 43.7473 63.0592 49.0722 63.0592 55.6406C63.0592 62.2092 57.7343 67.534 51.1657 67.534ZM106.569 68.1358C113.138 68.1358 118.463 62.8109 118.463 56.2423C118.463 49.6739 113.138 44.3491 106.569 44.3491C100.001 44.3491 94.6758 49.6739 94.6758 56.2423C94.6758 62.8109 100.001 68.1358 106.569 68.1358Z" fill="#EBBAAA"/>
<path d="M110.419 35.0179C110.419 18.0054 96.6274 4.21411 79.6149 4.21411C62.6026 4.21411 48.8113 18.0054 48.8113 35.0179V49.5668L49.3059 65.5348C49.8131 81.9086 63.2333 94.9195 79.6149 94.9195C95.4419 94.9195 108.52 82.5718 109.429 66.771L110.419 49.5668V35.0179Z" fill="#F4D4C9"/>
<path d="M73.4125 42.479L63.4078 41.4046C63.2683 41.3896 63.1309 41.4489 63.0462 41.5609L61.0667 44.1777C60.8745 44.4316 61.0419 44.7972 61.3596 44.8179L73.6827 45.6187C74.2275 45.654 74.647 45.1449 74.5079 44.6169L74.1005 43.0704C74.016 42.7496 73.7422 42.5143 73.4125 42.479ZM88.0696 42.5498L98.0741 41.4755C98.2138 41.4605 98.351 41.5198 98.4357 41.6318L100.415 44.2485C100.607 44.5024 100.44 44.8681 100.123 44.8887L87.7994 45.6895C87.2544 45.7248 86.8351 45.2158 86.9742 44.6878L87.3816 43.1412C87.4661 42.8205 87.7399 42.5853 88.0696 42.5498Z" fill="#393939"/>
<path d="M66.4146 51.6737V55.1859C66.4146 56.4791 67.4629 57.5274 68.756 57.5274C70.0492 57.5274 71.0975 56.4791 71.0975 55.1859V51.6737C71.0975 50.3806 70.0492 49.3323 68.756 49.3323C67.4629 49.3323 66.4146 50.3806 66.4146 51.6737ZM89.4389 51.6737V55.1859C89.4389 56.4791 90.4872 57.5274 91.7804 57.5274C93.0736 57.5274 94.1219 56.4791 94.1219 55.1859V51.6737C94.1219 50.3806 93.0736 49.3323 91.7804 49.3323C90.4872 49.3323 89.4389 50.3806 89.4389 51.6737Z" fill="black"/>
<path d="M79.1746 54.8562C80.4038 57.025 81.354 59.5436 81.4834 61.394C81.6198 63.3444 80.9942 64.1143 78.8049 64.1143V67.5258C83.0861 67.5258 85.1541 64.981 84.8866 61.1559C84.7148 58.7002 83.6004 55.7462 82.1426 53.1741L79.1746 54.8562Z" fill="#EBBAAA"/>
<path d="M58.4438 24.5826C59.0658 19.3622 59.6272 15.6136 60.042 12.1333C60.3357 9.66808 60.4711 5.76121 53.4631 10.9267C46.4551 16.0923 43.9473 28.6115 45.8537 38.2439L49.3131 51.7742L51.4769 51.2394L51.4202 36.7235C54.9511 33.1691 57.8219 29.8031 58.4438 24.5826ZM106.641 30.1512C106.352 24.9022 106.943 25.1724 106.75 21.6731C106.614 19.1944 106.144 14.772 110.569 19.317C113.011 21.8255 116.13 38.3102 113.171 44.6829L110.569 51.1127L109.582 51.1672L109.137 43.0864C107.392 37.487 106.931 35.4 106.641 30.1512Z" fill="#272727"/>
<path fill-rule="evenodd" clip-rule="evenodd" d="M79.2271 0C79.2417 0 79.2562 0 79.2708 0C79.2852 0 79.2999 0 79.3143 0H79.3145C88.5869 0.0329448 112.951 5.82031 111.623 29.9007C109.158 26.8693 105.35 25.5471 101.968 23.569C94.8486 19.4046 89.0355 17.8801 81.3217 17.8801C74.6934 17.8801 66.5635 19.4148 61.0726 22.1044C56.1606 24.5102 51.0201 26.3147 46.2195 29.9007C47.0538 5.29147 69.9551 0.0329461 79.2271 0Z" fill="#272727"/>
<path d="M57.1317 6.2514L61.1651 5.98096L52.887 23.8723L50.0773 46.3923L47.0755 45.4342L47.1358 43.7796L45.9965 43.3771L46.6663 41.4809L44.9057 40.8588L45.767 38.4208L44.6121 37.4032L45.3775 35.236L44.4858 33.4736L45.6897 31.3851L45.1003 30.4151L45.9137 28.1125L44.9816 27.7831L47.0144 24.9972L46.3694 23.8551L47.7801 22.8299L47.3264 21.146L49.1678 18.9017L48.8097 16.9472L50.3641 15.5156L50.7947 14.2965L52.1018 13.2348L51.4646 12.4003L54.0388 10.7197L54.1508 9.0832L56.8644 7.83266L57.1317 6.2514Z" fill="#272727"/>
<path d="M102.267 28.0129C91.5314 21.7918 85.1125 20.5097 81.634 18.503C84.0422 17.4327 80.5944 13.074 97.7523 16.775C102.869 17.8787 103.942 23.9993 102.267 28.0129Z" fill="#272727"/>
<path d="M107.515 31.258C98.051 23.5506 98.2121 18.7283 94.7339 16.7215C97.1419 15.6512 102.051 13.5019 106.246 18.8678C111.363 19.9715 109.189 27.2445 107.515 31.258Z" fill="#272727"/>
<path fill-rule="evenodd" clip-rule="evenodd" d="M87.1948 72.0842V74.7898C87.1948 78.9459 83.8256 82.3153 79.6695 82.3153C75.5132 82.3153 72.144 78.9459 72.144 74.7898V72.0842H87.1948Z" fill="#393939"/>
<mask id="mask1_910_19706" style="mask-type:alpha" maskUnits="userSpaceOnUse" x="72" y="70" width="16" height="13">
<path d="M87.0953 70.7957C87.1608 71.1949 87.1948 71.6046 87.1948 72.0224V74.7898C87.1948 78.9459 83.8256 82.3151 79.6695 82.3151C75.5132 82.3151 72.144 78.9459 72.144 74.7898V72.0224C72.144 71.6046 72.1782 71.1949 72.2436 70.7957H87.0953Z" fill="white"/>
</mask>
<g mask="url(#mask1_910_19706)">
<path d="M79.2683 84.963C76.7619 84.963 74.7301 83.8564 74.7301 82.4914C74.7301 81.1264 76.7619 80.0198 79.2683 80.0198C81.7746 80.0198 83.8064 81.1264 83.8064 82.4914C83.8064 83.8564 81.7746 84.963 79.2683 84.963Z" fill="#FF6C6C"/>
<path d="M72.1443 71.6938H87.1951V74.7977H72.1443V71.6938Z" fill="white"/>
</g>
</g>
<g clip-path="url(#clip0_910_19706)">
<path d="M99.3582 112.388L99.9544 114.551L101.089 118.641L101.618 120.56L101.891 121.561C102.154 122.529 102.388 123.405 102.613 124.258L102.839 125.124L102.976 125.654C103.967 129.514 104.692 132.758 105.234 135.847C106.511 143.127 106.734 149.514 105.785 156.002C104.71 163.347 102.094 170.93 97.5786 179.284C95.8364 182.508 97.0369 186.533 100.26 188.275C103.483 190.017 107.509 188.817 109.251 185.594C114.482 175.917 117.606 166.861 118.914 157.922C120.082 149.934 119.81 142.149 118.303 133.554L118.217 133.072L118.129 132.588C117.503 129.196 116.691 125.668 115.616 121.536L115.35 120.525C114.97 119.084 114.558 117.568 114.037 115.68L112.213 109.095L112.154 108.88C111.185 105.346 107.535 103.267 104.002 104.236C100.468 105.205 98.3893 108.855 99.3582 112.388Z" fill="#EBBAAA"/>
<path d="M113.818 105.177C109.277 95.6356 97.7164 91.7776 88.3546 96.6801C78.8528 101.656 75.5047 113.608 81.0391 122.796L98.2243 151.326L125.163 134.742L120.78 119.806L113.818 105.177Z" fill="#294763"/>
<path d="M107.255 114.74C107.433 102.678 97.8167 92.7472 85.7558 92.5366L72.6725 92.3083C60.4374 92.0947 50.4048 101.956 50.4077 114.193L50.4149 144.893L50.4282 179.311C50.4282 179.311 68.947 182.857 80.2643 182.853C91.5814 182.849 107.987 179.333 107.987 179.333L106.809 144.906L107.255 114.74Z" fill="#2E5880"/>
<path d="M79.3853 111.016C72.4971 110.896 67.0105 105.215 67.1308 98.3264C67.251 91.4382 72.9325 85.9516 79.8207 86.0718C86.709 86.1921 92.1955 91.8736 92.0753 98.7618C91.955 105.65 86.2735 111.137 79.3853 111.016Z" fill="#294763"/>
<path d="M49.9256 99.9574C56.3635 92.9783 61.9881 93.199 65.3659 95.5436C69.4751 98.3957 63.8049 106.342 63.8049 106.342C70.958 113.692 78.6365 129.74 69.9504 135.804L52.1196 143.22L30.439 135.804C30.439 135.804 35.6559 115.426 49.9256 99.9574Z" fill="#2E5880"/>
<path d="M79.2178 81.561H79.6119C83.8136 81.561 87.2197 84.9672 87.2197 89.1688V98.7337C87.2197 102.935 83.8136 106.342 79.6119 106.342H79.2178C75.0161 106.342 71.61 102.935 71.61 98.7337V89.1688C71.61 84.9672 75.0161 81.561 79.2178 81.561Z" fill="#EBBAAA"/>
<path d="M51.1657 67.5338C44.5973 67.5338 39.2725 62.2089 39.2725 55.6403C39.2725 49.0719 44.5973 43.7471 51.1657 43.7471C57.7343 43.7471 63.0592 49.0719 63.0592 55.6403C63.0592 62.2089 57.7343 67.5338 51.1657 67.5338ZM106.569 68.1356C113.138 68.1356 118.463 62.8107 118.463 56.2421C118.463 49.6737 113.138 44.3488 106.569 44.3488C100.001 44.3488 94.6758 49.6737 94.6758 56.2421C94.6758 62.8107 100.001 68.1356 106.569 68.1356Z" fill="#EBBAAA"/>
<path d="M110.419 35.0179C110.419 18.0054 96.6277 4.21411 79.6152 4.21411C62.6029 4.21411 48.8115 18.0054 48.8115 35.0179V49.5668L49.3061 65.5348C49.8133 81.9086 63.2335 94.9195 79.6152 94.9195C95.4421 94.9195 108.521 82.5718 109.429 66.771L110.419 49.5668V35.0179Z" fill="#F4D4C9"/>
<path d="M73.4125 42.479L63.4078 41.4046C63.2683 41.3896 63.1309 41.4489 63.0462 41.5609L61.0667 44.1777C60.8745 44.4316 61.0419 44.7972 61.3596 44.8179L73.6827 45.6187C74.2275 45.654 74.647 45.1449 74.5079 44.6169L74.1005 43.0704C74.016 42.7496 73.7422 42.5143 73.4125 42.479ZM88.0696 42.5498L98.0741 41.4755C98.2138 41.4605 98.351 41.5198 98.4357 41.6318L100.415 44.2485C100.607 44.5024 100.44 44.8681 100.123 44.8887L87.7994 45.6895C87.2544 45.7248 86.8351 45.2158 86.9742 44.6878L87.3816 43.1412C87.4661 42.8205 87.7399 42.5853 88.0696 42.5498Z" fill="#393939"/>
<path d="M66.4146 51.6737V55.1859C66.4146 56.4791 67.4629 57.5274 68.756 57.5274C70.0492 57.5274 71.0975 56.4791 71.0975 55.1859V51.6737C71.0975 50.3806 70.0492 49.3323 68.756 49.3323C67.4629 49.3323 66.4146 50.3806 66.4146 51.6737ZM89.4389 51.6737V55.1859C89.4389 56.4791 90.4872 57.5274 91.7804 57.5274C93.0736 57.5274 94.1219 56.4791 94.1219 55.1859V51.6737C94.1219 50.3806 93.0736 49.3323 91.7804 49.3323C90.4872 49.3323 89.4389 50.3806 89.4389 51.6737Z" fill="black"/>
<path d="M79.1746 54.856C80.4038 57.0247 81.354 59.5433 81.4834 61.3937C81.6198 63.3442 80.9942 64.114 78.8049 64.114V67.5255C83.0861 67.5255 85.1541 64.9807 84.8866 61.1557C84.7148 58.7 83.6004 55.746 82.1426 53.1738L79.1746 54.856Z" fill="#EBBAAA"/>
<path d="M58.4435 24.5826C59.0656 19.3622 59.6269 15.6136 60.0418 12.1333C60.3354 9.66808 60.4708 5.76121 53.4628 10.9267C46.4549 16.0923 43.947 28.6115 45.8535 38.2439L49.3128 51.7742L51.4767 51.2394L51.4199 36.7235C54.9508 33.1691 57.8217 29.8031 58.4435 24.5826ZM106.641 30.1512C106.352 24.9022 106.943 25.1724 106.75 21.6731C106.613 19.1944 106.144 14.772 110.569 19.317C113.011 21.8255 116.13 38.3102 113.171 44.6829L110.569 51.1127L109.582 51.1672L109.136 43.0864C107.392 37.487 106.931 35.4 106.641 30.1512Z" fill="#272727"/>
<path fill-rule="evenodd" clip-rule="evenodd" d="M79.2271 0C79.2417 0 79.2562 0 79.2708 0C79.2852 0 79.2999 0 79.3143 0H79.3145C88.5869 0.0329448 112.951 5.82031 111.623 29.9007C109.158 26.8693 105.35 25.5471 101.968 23.569C94.8486 19.4046 89.0355 17.8801 81.3217 17.8801C74.6934 17.8801 66.5635 19.4148 61.0726 22.1044C56.1606 24.5102 51.0201 26.3147 46.2195 29.9007C47.0538 5.29147 69.9551 0.0329461 79.2271 0Z" fill="#272727"/>
<path d="M57.1317 6.2514L61.1651 5.98096L52.887 23.8723L50.0773 46.3923L47.0755 45.4342L47.1358 43.7796L45.9965 43.3771L46.6663 41.4809L44.9057 40.8588L45.767 38.4208L44.6121 37.4032L45.3775 35.236L44.4858 33.4736L45.6897 31.3851L45.1003 30.4151L45.9137 28.1125L44.9816 27.7831L47.0144 24.9972L46.3694 23.8551L47.7801 22.8299L47.3264 21.146L49.1678 18.9017L48.8097 16.9472L50.3641 15.5156L50.7947 14.2965L52.1018 13.2348L51.4646 12.4003L54.0388 10.7197L54.1508 9.0832L56.8644 7.83266L57.1317 6.2514Z" fill="#272727"/>
<path d="M65.634 22.6006L64.2681 19.0884L55.5852 22.6006L61.1462 24.1615V22.0152L65.634 22.6006Z" fill="#272727"/>
<path d="M80.3097 24.3383C72.3097 20.631 65.6906 19.2905 62.2122 17.2838C65.6756 12.0457 74.1718 12.5989 77.3825 15.1675C78.7564 16.96 81.9846 20.3247 80.3097 24.3383Z" fill="#272727"/>
<path d="M85.3415 24.9419C77.2439 19.381 72.8857 20.4276 69.4072 18.4208C72.8706 13.1828 82.1305 14.3734 85.3415 16.942C86.7153 18.7345 88.6585 21.2346 85.3415 24.9419Z" fill="#272727"/>
<path d="M88.9992 25.4762C78.2632 19.2553 73.614 21.2622 70.1357 19.2553C72.5437 18.1851 67.3262 10.5375 84.484 14.2384C89.6011 15.3422 90.6741 21.4627 88.9992 25.4762Z" fill="#272727"/>
<path d="M94.9517 26.7516C87.7273 22.3368 84.4098 21.4316 80.9314 19.4249C83.3396 18.3546 89.5913 15.3646 92.8022 17.9333C94.1761 19.7259 96.6266 22.738 94.9517 26.7516Z" fill="#272727"/>
<path d="M102.267 28.0129C91.5314 21.7918 85.1125 20.5097 81.634 18.503C84.0422 17.4327 80.5944 13.074 97.7523 16.775C102.869 17.8787 103.942 23.9993 102.267 28.0129Z" fill="#272727"/>
<path d="M107.515 31.258C98.0514 23.5506 98.2126 18.7283 94.7344 16.7215C97.1424 15.6512 102.052 13.5019 106.247 18.8678C111.364 19.9715 109.19 27.2445 107.515 31.258Z" fill="#272727"/>
<path fill-rule="evenodd" clip-rule="evenodd" d="M87.1948 72.0847V74.7903C87.1948 78.9464 83.8256 82.3157 79.6695 82.3157C75.5132 82.3157 72.144 78.9464 72.144 74.7903V72.0847H87.1948Z" fill="#393939"/>
<mask id="mask2_910_19706" style="mask-type:alpha" maskUnits="userSpaceOnUse" x="72" y="70" width="16" height="13">
<path d="M87.0953 70.7957C87.1608 71.1949 87.1948 71.6046 87.1948 72.0224V74.7898C87.1948 78.9459 83.8256 82.3151 79.6695 82.3151C75.5132 82.3151 72.144 78.9459 72.144 74.7898V72.0224C72.144 71.6046 72.1782 71.1949 72.2436 70.7957H87.0953Z" fill="white"/>
</mask>
<g mask="url(#mask2_910_19706)">
<path d="M79.2683 84.9635C76.7619 84.9635 74.7301 83.8569 74.7301 82.4919C74.7301 81.1268 76.7619 80.0203 79.2683 80.0203C81.7746 80.0203 83.8064 81.1268 83.8064 82.4919C83.8064 83.8569 81.7746 84.9635 79.2683 84.9635Z" fill="#FF6C6C"/>
<path d="M72.1441 71.6943H87.1948V74.7981H72.1441V71.6943Z" fill="white"/>
</g>
</g>
<defs>
<clipPath id="clip0_910_19706">
<rect width="160" height="105.366" fill="white"/>
</clipPath>
</defs>
</svg>
