<svg width="160" height="185" viewBox="0 0 160 185" fill="none" xmlns="http://www.w3.org/2000/svg">
<circle cx="81.9511" cy="102.245" r="78.0488" fill="#454B5E"/>
<circle cx="78.0488" cy="106.147" r="78.0488" fill="#727889"/>
<mask id="mask0_910_17986" style="mask-type:alpha" maskUnits="userSpaceOnUse" x="0" y="28" width="157" height="157">
<circle cx="78.0488" cy="106.147" r="78.0488" fill="#D9D9D9"/>
</mask>
<g mask="url(#mask0_910_17986)">
<path d="M106.445 179.462C106.445 184.367 95.2505 188.389 80.1391 188.389C65.0277 188.389 52.7773 184.413 52.7773 179.508C52.7773 174.603 65.0277 170.627 80.1391 170.627C95.2505 170.627 106.445 174.557 106.445 179.462Z" fill="#666666"/>
<path d="M49.96 164.495H78.9311L76.7851 230.837V242.232H58.544L53.9756 230.837L49.96 164.495Z" fill="#666666"/>
<path d="M78.6555 165.626H107.725V229.563L104.576 241.66H86.4424V231.869L78.6555 165.626Z" fill="#666666"/>
<path d="M108.626 90.1258C113.358 88.3187 118.659 90.6893 120.466 95.4208C123.485 103.325 126.369 115.382 127.909 126.993C129.789 141.16 129.643 153.606 126.807 162.733C125.304 167.57 120.165 170.273 115.328 168.77C110.54 167.282 107.843 162.23 109.248 157.436L109.292 157.291C111.169 151.249 111.287 141.165 109.727 129.405C108.365 119.136 105.809 108.451 103.332 101.965C101.524 97.2336 103.895 91.933 108.626 90.1258ZM36.3036 95.4205C38.1108 90.6891 43.4115 88.3185 48.1429 90.1257C52.8744 91.9329 55.245 97.2335 53.4378 101.965C50.2633 110.276 47.9449 120.678 48.1842 128.433C48.3112 132.546 49.1322 135.52 50.4073 137.193C51.5438 138.683 53.3633 139.504 56.9112 139.504C61.976 139.504 66.0819 143.61 66.0819 148.675C66.0819 153.74 61.976 157.846 56.9112 157.846C47.8646 157.846 40.5842 154.56 35.8212 148.313C31.8968 143.165 30.0863 136.607 29.8515 128.999C29.6716 123.169 30.4297 116.797 31.907 110.169C33.0731 104.937 34.6558 99.7348 36.3036 95.4205Z" fill="#EBBAAA"/>
<path d="M38.8718 89.9011C43.6311 83.3762 56.7433 84.6812 64.8048 81.0459H94.9145C103.656 85.427 111.973 84.9458 118.905 89.9011C128.424 96.7058 127.744 104.256 129.977 116.747C129.977 116.747 126.19 119.636 118.905 121.966C114.546 123.361 110.778 123.921 108.455 124.146C108.594 126.4 108.706 128.636 108.706 129.983V148.998V168.853C102.361 169.909 87.5909 170.623 81.2194 170.996C74.8479 171.369 56.3154 170.22 48.0596 168.853C47.3796 162.514 48.0596 150.567 48.0596 146.558C48.0596 142.55 47.8731 134.737 47.8731 129.33C47.8731 127.711 47.854 126.038 47.8362 124.118C40.3296 123.248 26.5366 119.636 26.5366 119.636C26.5366 119.636 29.3771 110.621 32.2671 102.578C34.2097 97.1718 35.5855 94.4067 38.8718 89.9011Z" fill="#454B5E"/>
<path d="M47.8772 124.193V121.863C45.1746 121.583 40.6083 120.838 37.9058 120.093C35.436 119.411 30.2642 118.042 27.3753 116.924L26.5366 119.72C27.8413 120.186 31.2147 120.913 33.8986 121.583C36.5825 122.254 44.3359 123.541 47.8772 124.193ZM108.357 121.956L108.451 124.286C111.122 123.913 117.276 122.642 120.845 121.397C124.852 119.999 128.58 118.042 129.977 116.645L129.512 114.035C127.368 115.899 123.454 117.856 119.913 119.067C117.227 119.986 111.402 121.428 108.357 121.956Z" fill="#727889"/>
<path d="M79.8413 102.666C89.0026 102.666 96.4292 96.2408 96.4292 88.3148C96.4292 80.3889 89.0026 73.9636 79.8413 73.9636C70.6801 73.9636 63.2534 80.3889 63.2534 88.3148C63.2534 96.2408 70.6801 102.666 79.8413 102.666Z" fill="#727889"/>
<path d="M81.2389 76.7593H78.4432C72.5244 76.7593 67.7263 81.5574 67.7263 87.4762C67.7263 93.3949 72.5244 98.193 78.4432 98.193H81.2389C87.1577 98.193 91.9558 93.3949 91.9558 87.4762C91.9558 81.5574 87.1577 76.7593 81.2389 76.7593Z" fill="#EBBAAA"/>
<path opacity="0.5" d="M72.3171 132.651H57.8467V140.082H72.3171V132.651Z" fill="white"/>
<path opacity="0.9" d="M71.4245 139.105C71.4245 139.105 68.0587 137.779 65.1108 139.105C62.1629 140.432 58.7972 139.105 58.7972 139.105L58.358 133.284H71.8737L71.4245 139.105ZM56.1318 130.374L58.1283 156.903C58.2581 158.359 59.0965 159.479 60.1248 159.479H70.1069C71.1051 159.479 71.9734 158.359 72.1032 156.903L74.0996 130.374H56.1318Z" fill="#E4EBED"/>
<path d="M37.9362 124.852C42.9244 123.974 47.6797 127.306 48.5575 132.295C49.0291 134.975 49.8695 136.771 50.9445 137.796C52.0628 138.863 53.8524 139.505 56.9109 139.505C61.9758 139.505 66.0817 143.611 66.0817 148.676C66.0817 153.74 61.9758 157.846 56.9109 157.846C49.3538 157.846 43.0039 155.568 38.287 151.07C34.091 147.069 31.5953 141.734 30.4936 135.473C29.6158 130.485 32.948 125.73 37.9362 124.852Z" fill="#EBBAAA"/>
<path d="M102.227 64.0294C108.328 64.0294 113.273 59.0838 113.273 52.9833C113.273 46.8826 108.328 41.9373 102.227 41.9373C96.1266 41.9373 91.181 46.8826 91.181 52.9833C91.181 59.0838 96.1266 64.0294 102.227 64.0294ZM56.3781 64.5886C50.2776 64.5886 45.332 59.6432 45.332 53.5425C45.332 47.442 50.2776 42.4965 56.3781 42.4965C62.4788 42.4965 67.4241 47.442 67.4241 53.5425C67.4241 59.6432 62.4788 64.5886 56.3781 64.5886Z" fill="#EBBAAA"/>
<path d="M51.1089 30.8092C51.1089 15.2357 63.7335 2.61108 79.3069 2.61108C95.1979 2.61108 107.95 15.7354 107.493 31.6197L107.116 44.7329L106.469 64.2168C106.051 76.839 95.697 86.8548 83.0677 86.8548H79.7183H76.1789C64.0078 86.8548 53.8662 77.5301 52.8464 65.4017L51.1089 44.7329V30.8092Z" fill="#F4D4C9"/>
<path d="M90.5283 4.38162C90.6618 4.49029 90.792 4.60085 90.9187 4.7132C98.6528 4.54936 111.716 11.2092 112.428 30.1021C110.828 41.4814 109.36 44.8855 108.098 44.4393L107.823 50.4748C107.807 50.8073 107.502 51.0701 107.13 51.0701C106.787 51.0701 106.497 50.844 106.446 50.541L106.441 50.507L104.731 34.285L104.637 33.7725C104.052 23.5505 96.7697 15.5956 90.8908 18.8583C90.7307 18.985 90.5643 19.1081 90.3922 19.2279C90.3202 20.5393 89.4036 22.0027 86.8711 23.5704C78.6598 28.6538 74.7281 27.7011 69.3689 27.661L69.0389 27.6598C69.0389 27.6598 76.221 26.3944 80.2344 23.5704C80.384 23.4651 80.5317 23.3532 80.6774 23.2353L80.4003 23.3285C76.9233 24.4835 72.9461 25.2588 70.8026 25.6491L70.3991 25.722C67.759 26.196 60.4479 27.9482 56.3233 26.6928C55.2023 28.079 54.5161 29.8577 54.3501 32.1394L54.3205 32.5389C54.0605 35.9735 53.7215 38.6842 53.3293 40.7381L52.2494 51.4149C52.2157 51.7485 51.9171 52.002 51.5609 52.002C51.1886 52.002 50.8842 51.728 50.8682 51.3813L50.6225 45.7614C49.9015 45.4061 49.1734 43.9692 48.5136 41.6486C48.2038 40.5589 48.5579 36.5638 48.5136 35.4338C48.5136 5.56131 78.5999 -7.54677 90.5283 4.38162Z" fill="#272727"/>
<path d="M66.6218 35.3403C68.644 35.3403 70.6033 35.6004 72.4348 36.0341C73.0248 36.1739 73.5653 36.3235 74.0497 36.4751L74.1804 36.5166C74.504 36.6203 74.7423 36.7053 74.8868 36.7615C76.0918 37.2308 76.6883 38.588 76.2191 39.793C75.757 40.9795 74.4341 41.576 73.2433 41.1462L73.1159 41.0987C73.038 41.0707 72.9152 41.0286 72.751 40.976C72.3458 40.8461 71.8775 40.7146 71.3557 40.591C69.8574 40.2362 68.253 40.0232 66.6217 40.0232C65.0033 40.0231 63.5046 40.2324 62.1696 40.5789C61.7116 40.6978 61.3104 40.8236 60.9719 40.9467L60.866 40.9859C60.816 41.0048 60.7705 41.0225 60.7296 41.039L60.6429 41.0746C59.4658 41.6102 58.0775 41.0902 57.5419 39.9132C57.0147 38.7545 57.5103 37.3911 58.6486 36.8379L58.7495 36.7916C58.7838 36.7765 58.8251 36.7588 58.8732 36.7388L58.9106 36.7234C59.0447 36.6683 59.1985 36.6087 59.3712 36.5459C59.8456 36.3733 60.3879 36.2033 60.993 36.0462C62.6962 35.6041 64.5864 35.3402 66.6218 35.3403ZM91.8915 35.3401C93.927 35.34 95.8172 35.6039 97.5203 36.046C98.1254 36.2031 98.6677 36.3731 99.1421 36.5457L99.3085 36.6074C99.4151 36.6477 99.5132 36.6865 99.6027 36.7232L99.7367 36.7796C99.765 36.7919 99.7895 36.8027 99.8099 36.812C100.987 37.3477 101.507 38.736 100.971 39.913C100.444 41.0717 99.0905 41.5936 97.9256 41.0987L97.823 41.0548L97.6956 41.0042C97.6487 40.9861 97.5972 40.9668 97.5412 40.9465C97.2028 40.8234 96.8017 40.6976 96.3437 40.5787C95.0088 40.2322 93.5101 40.0229 91.8916 40.023C90.2603 40.023 88.6558 40.236 87.1575 40.5908C86.6832 40.7032 86.253 40.8221 85.8743 40.9403L85.7622 40.9758C85.598 41.0284 85.4752 41.0705 85.3973 41.0985L85.3256 41.1251C84.1206 41.5943 82.7634 40.9979 82.2941 39.7928C81.8249 38.5878 82.4214 37.2306 83.6264 36.7613L83.7619 36.7104C83.9041 36.6584 84.0955 36.5924 84.3328 36.5164C84.8501 36.3505 85.4347 36.1864 86.0784 36.0339C87.91 35.6002 89.8693 35.3401 91.8915 35.3401Z" fill="#393939"/>
<path d="M77.9039 50.6812L81.0153 51.831C80.1392 54.2017 79.7549 56.7447 79.977 58.6054C80.1633 60.1656 80.6321 60.8007 81.3213 60.8222L81.3577 60.8227V64.1398C78.6404 64.1398 77.0489 62.0609 76.6833 58.9986C76.3994 56.6195 76.8399 53.6263 77.8474 50.836L77.9039 50.6812Z" fill="#EBBAAA"/>
<path d="M91.5961 46.5029C92.7709 46.5029 93.9327 46.7273 95.0409 47.0993C95.426 47.2286 95.7786 47.3676 96.0932 47.5077L96.2422 47.5755C96.3645 47.6323 96.4591 47.6795 96.5238 47.7139C97.1896 48.0685 97.4419 48.8956 97.0874 49.5615C96.7406 50.2128 95.9414 50.4685 95.2835 50.1474L95.1731 50.0916C95.1272 50.0693 95.0629 50.0392 94.9816 50.003C94.7433 49.8969 94.4708 49.7895 94.1714 49.689C93.3236 49.4043 92.4448 49.2346 91.5961 49.2346C90.7474 49.2346 89.8685 49.4043 89.0207 49.689C88.7587 49.7769 88.5174 49.8701 88.3015 49.9632L88.2105 50.003C88.0886 50.0573 88.0048 50.0979 87.9642 50.1189L87.9523 50.1251C87.2864 50.4797 86.4592 50.2273 86.1047 49.5615C85.7502 48.8956 86.0025 48.0685 86.6683 47.7139L86.7224 47.6857C86.8119 47.64 86.9385 47.5792 87.099 47.5077C87.4135 47.3676 87.7661 47.2286 88.1513 47.0993C89.2595 46.7273 90.4213 46.5029 91.5961 46.5029ZM67.9259 46.5029C69.1006 46.5029 70.2624 46.7273 71.3706 47.0993C71.7557 47.2286 72.1084 47.3676 72.4229 47.5077L72.572 47.5755C72.6942 47.6323 72.7888 47.6795 72.8535 47.7139C73.5193 48.0685 73.7717 48.8956 73.4172 49.5615C73.0703 50.2128 72.2712 50.4685 71.6133 50.1474L71.5029 50.0916C71.457 50.0693 71.3926 50.0392 71.3113 50.003C71.073 49.8969 70.8006 49.7895 70.5011 49.689C69.6534 49.4043 68.7745 49.2346 67.9259 49.2346C67.0773 49.2346 66.1984 49.4043 65.3505 49.689C65.0511 49.7895 64.7786 49.8969 64.5403 50.003L64.4312 50.0526C64.3886 50.0723 64.3538 50.089 64.3273 50.1021L64.282 50.1251C63.6161 50.4796 62.7889 50.2273 62.4344 49.5614C62.0799 48.8956 62.3323 48.0684 62.9981 47.7139L63.0522 47.6857C63.1417 47.64 63.2683 47.5792 63.4288 47.5077C63.7433 47.3675 64.096 47.2286 64.4811 47.0993C65.5893 46.7273 66.7512 46.5029 67.9259 46.5029Z" fill="#393939"/>
<path fill-rule="evenodd" clip-rule="evenodd" d="M71.2629 68.2185V71.2525C71.2629 75.9229 75.0491 79.7075 79.718 79.7075C84.3884 79.7075 88.1732 75.9229 88.1732 71.2525V68.2185H71.2629Z" fill="#393939"/>
<mask id="mask1_910_17986" style="mask-type:alpha" maskUnits="userSpaceOnUse" x="71" y="68" width="18" height="12">
<path d="M71.2764 68.2158C71.2672 68.3721 71.2627 68.53 71.2627 68.6878V71.6429C71.2627 76.0978 75.0488 79.7079 79.7177 79.7079C84.3882 79.7079 88.1729 76.0978 88.1729 71.6429V68.6878C88.1729 68.53 88.1683 68.3721 88.1591 68.2158H71.2764Z" fill="white"/>
</mask>
<g mask="url(#mask1_910_17986)">
<path d="M79.7175 82.4185C82.5337 82.4185 84.8167 81.176 84.8167 79.6431C84.8167 78.1104 82.5337 76.8677 79.7175 76.8677C76.9013 76.8677 74.6184 78.1104 74.6184 79.6431C74.6184 81.176 76.9013 82.4185 79.7175 82.4185Z" fill="#FF6C6C"/>
</g>
<path d="M88.1736 68.2185H71.2629V71.704H88.1736V68.2185Z" fill="white"/>
<g opacity="0.7">
<path d="M75.6481 83.8965C75.9433 83.5823 76.4372 83.5669 76.7513 83.8621C77.055 84.1474 77.0795 84.6185 76.8142 84.9333L76.7857 84.9653L76.0852 85.7109C75.7901 86.025 75.2961 86.0404 74.982 85.7453C74.6783 85.4599 74.6538 84.9889 74.9191 84.674L74.9476 84.642L75.6481 83.8965ZM70.147 83.1511C70.4422 82.8369 70.9361 82.8215 71.2503 83.1167C71.5539 83.402 71.5785 83.8731 71.3131 84.1879L71.2847 84.2199L70.5842 84.9655C70.289 85.2797 69.7951 85.2951 69.4809 84.9999C69.1773 84.7146 69.1527 84.2435 69.4181 83.9287L69.4465 83.8967L70.147 83.1511ZM72.8975 83.8965C73.1926 83.5823 73.6866 83.5669 74.0007 83.8621C74.3044 84.1474 74.3289 84.6185 74.0636 84.9333L74.0351 84.9653L73.3346 85.7109C73.0395 86.025 72.5455 86.0404 72.2314 85.7453C71.9277 85.4599 71.9032 84.9889 72.1685 84.674L72.197 84.642L72.8975 83.8965ZM87.524 83.1167C87.8277 82.8314 88.2994 82.8363 88.5971 83.1207L88.6273 83.1511L89.3278 83.8967C89.6229 84.2108 89.6075 84.7047 89.2934 84.9999C88.9897 85.2852 88.518 85.2803 88.2203 84.9959L88.1901 84.9655L87.4897 84.2199C87.1945 83.9058 87.2099 83.4119 87.524 83.1167ZM84.7737 83.862C85.0774 83.5767 85.5491 83.5817 85.8468 83.8661L85.8769 83.8965L86.5772 84.6421C86.8723 84.9563 86.8569 85.4502 86.5427 85.7453C86.239 86.0306 85.7673 86.0257 85.4696 85.7412L85.4394 85.7108L84.7391 84.9652C84.444 84.651 84.4595 84.1571 84.7737 83.862ZM82.0231 83.862C82.3268 83.5767 82.7985 83.5817 83.0961 83.8661L83.1263 83.8965L83.8266 84.6421C84.1217 84.9563 84.1062 85.4502 83.792 85.7453C83.4883 86.0306 83.0166 86.0257 82.719 85.7412L82.6888 85.7108L81.9885 84.9652C81.6934 84.651 81.7089 84.1571 82.0231 83.862Z" fill="#C0C0C0"/>
</g>
</g>
<g clip-path="url(#clip0_910_17986)">
<path d="M108.629 90.1329C113.361 88.3257 118.661 90.6964 120.468 95.4278C123.487 103.332 126.371 115.389 127.912 127C129.791 141.167 129.646 153.614 126.81 162.74C125.307 167.577 120.167 170.28 115.331 168.777C110.542 167.289 107.846 162.237 109.25 157.443L109.294 157.298C111.172 151.256 111.29 141.172 109.73 129.412C108.367 119.143 105.811 108.458 103.334 101.972C101.527 97.2407 103.898 91.9401 108.629 90.1329ZM36.3063 95.4276C38.1135 90.6961 43.4141 88.3255 48.1456 90.1327C52.8771 91.9399 55.2477 97.2406 53.4405 101.972C50.266 110.283 47.9476 120.685 48.1869 128.44C48.3138 132.553 49.1349 135.527 50.41 137.2C51.5465 138.69 53.366 139.512 56.9138 139.512C61.9787 139.512 66.0846 143.617 66.0846 148.682C66.0846 153.747 61.9787 157.853 56.9138 157.853C47.8673 157.853 40.5869 154.567 35.8238 148.32C31.8995 143.172 30.0889 136.614 29.8542 129.006C29.6743 123.176 30.4324 116.804 31.9097 110.176C33.0757 104.944 34.6584 99.7419 36.3063 95.4276Z" fill="#EBBAAA"/>
<path d="M38.8745 89.9077C43.6338 83.3828 56.746 84.6878 64.8075 81.0525H94.9171C103.659 85.4336 111.976 84.9524 118.908 89.9077C128.426 96.7124 127.746 104.263 129.98 116.753C129.98 116.753 126.192 119.643 118.908 121.973C114.549 123.367 110.781 123.927 108.458 124.152C108.597 126.407 108.709 128.643 108.709 129.989V149.005V168.859C102.364 169.916 87.5936 170.63 81.2221 171.003C74.8506 171.376 56.3181 170.226 48.0623 168.859C47.3823 162.521 48.0623 150.573 48.0623 146.565C48.0623 142.557 47.8758 134.743 47.8758 129.337C47.8758 127.717 47.8567 126.045 47.8389 124.125C40.3323 123.255 26.5393 119.643 26.5393 119.643C26.5393 119.643 29.3798 110.628 32.2698 102.585C34.2124 97.1783 35.5882 94.4133 38.8745 89.9077Z" fill="#454B5E"/>
<path d="M47.8799 124.199V121.87C45.1773 121.59 40.611 120.845 37.9085 120.099C35.4387 119.418 30.2669 118.049 27.378 116.931L26.5393 119.726C27.844 120.192 31.2174 120.919 33.9013 121.59C36.5852 122.261 44.3386 123.547 47.8799 124.199ZM108.36 121.963L108.453 124.293C111.125 123.92 117.279 122.649 120.847 121.404C124.855 120.006 128.582 118.049 129.98 116.651L129.514 114.042C127.371 115.906 123.457 117.862 119.916 119.074C117.23 119.993 111.404 121.435 108.36 121.963Z" fill="#727889"/>
<path d="M79.844 102.673C89.0053 102.673 96.4319 96.2474 96.4319 88.3214C96.4319 80.3955 89.0053 73.9702 79.844 73.9702C70.6828 73.9702 63.2561 80.3955 63.2561 88.3214C63.2561 96.2474 70.6828 102.673 79.844 102.673Z" fill="#727889"/>
<path d="M81.2418 76.7659H78.4461C72.5274 76.7659 67.7292 81.564 67.7292 87.4827C67.7292 93.4015 72.5274 98.1996 78.4461 98.1996H81.2418C87.1606 98.1996 91.9587 93.4015 91.9587 87.4827C91.9587 81.564 87.1606 76.7659 81.2418 76.7659Z" fill="#EBBAAA"/>
<path opacity="0.5" d="M72.32 132.658H57.8496V140.089H72.32V132.658Z" fill="white"/>
<path opacity="0.9" d="M71.4272 139.112C71.4272 139.112 68.0614 137.786 65.1135 139.112C62.1655 140.438 58.7999 139.112 58.7999 139.112L58.3607 133.291H71.8764L71.4272 139.112ZM56.1345 130.38L58.131 156.91C58.2608 158.365 59.0992 159.486 60.1275 159.486H70.1095C71.1078 159.486 71.9761 158.365 72.1058 156.91L74.1023 130.38H56.1345Z" fill="#E4EBED"/>
<path d="M37.9389 124.859C42.9271 123.981 47.6824 127.313 48.5602 132.302C49.0318 134.982 49.8722 136.778 50.9472 137.804C52.0654 138.87 53.8551 139.512 56.9136 139.512C61.9785 139.512 66.0844 143.618 66.0844 148.683C66.0844 153.747 61.9785 157.853 56.9136 157.853C49.3565 157.853 43.0066 155.575 38.2897 151.077C34.0937 147.076 31.598 141.741 30.4963 135.48C29.6185 130.492 32.9507 125.737 37.9389 124.859Z" fill="#EBBAAA"/>
<path d="M102.23 64.0364C108.33 64.0364 113.276 59.0909 113.276 52.9904C113.276 46.8897 108.33 41.9443 102.23 41.9443C96.1293 41.9443 91.1837 46.8897 91.1837 52.9904C91.1837 59.0909 96.1293 64.0364 102.23 64.0364ZM56.3808 64.5956C50.2803 64.5956 45.3347 59.6503 45.3347 53.5496C45.3347 47.4491 50.2803 42.5036 56.3808 42.5036C62.4815 42.5036 67.4268 47.4491 67.4268 53.5496C67.4268 59.6503 62.4815 64.5956 56.3808 64.5956Z" fill="#EBBAAA"/>
<path d="M51.1118 30.817C51.1118 15.2436 63.7364 2.6189 79.3099 2.6189C95.2008 2.6189 107.953 15.7432 107.496 31.6275L107.119 44.7407L106.472 64.2246C106.053 76.8468 95.6999 86.8626 83.0706 86.8626H79.7212H76.1819C64.0107 86.8626 53.8691 77.5379 52.8494 65.4095L51.1118 44.7407V30.817Z" fill="#F4D4C9"/>
<path d="M90.531 4.38895C90.6645 4.49761 90.7946 4.60818 90.9214 4.72053C98.6555 4.55669 111.719 11.2165 112.43 30.1094C110.83 41.4887 109.363 44.8928 108.1 44.4467L107.825 50.4821C107.81 50.8146 107.505 51.0774 107.133 51.0774C106.789 51.0774 106.499 50.8514 106.449 50.5483L106.444 50.5143L104.733 34.2923L104.64 33.7799C104.055 23.5578 96.7724 15.603 90.8935 18.8656C90.7334 18.9923 90.567 19.1154 90.3949 19.2352C90.3228 20.5466 89.4063 22.01 86.8738 23.5777C78.6624 28.6611 74.7308 27.7085 69.3715 27.6683L69.0416 27.6671C69.0416 27.6671 76.2236 26.4017 80.2371 23.5777C80.3867 23.4724 80.5344 23.3605 80.68 23.2426L80.403 23.3358C76.9259 24.4908 72.9487 25.2661 70.8053 25.6564L70.4018 25.7293C67.7617 26.2033 60.4506 27.9555 56.326 26.7002C55.205 28.0863 54.5188 29.865 54.3528 32.1467L54.3232 32.5462C54.0632 35.9809 53.7242 38.6915 53.3319 40.7454L52.2521 51.4222C52.2184 51.7559 51.9198 52.0093 51.5635 52.0093C51.1913 52.0093 50.8869 51.7354 50.8709 51.3886L50.6251 45.7688C49.9042 45.4134 49.1761 43.9765 48.5163 41.656C48.2065 40.5662 48.5606 36.5711 48.5163 35.4411C48.5163 5.56864 78.6026 -7.53944 90.531 4.38895Z" fill="#272727"/>
<path d="M66.6245 35.3479C68.6467 35.3479 70.606 35.608 72.4375 36.0417C73.0275 36.1814 73.568 36.331 74.0524 36.4827L74.1831 36.5241C74.5067 36.6278 74.745 36.7128 74.8895 36.7691C76.0945 37.2383 76.691 38.5956 76.2218 39.8006C75.7597 40.9871 74.4368 41.5836 73.246 41.1538L73.1186 41.1063C73.0407 41.0783 72.9179 41.0362 72.7536 40.9836C72.3485 40.8537 71.8802 40.7222 71.3584 40.5986C69.8601 40.2438 68.2557 40.0308 66.6243 40.0308C65.006 40.0307 63.5073 40.2399 62.1723 40.5865C61.7142 40.7054 61.3131 40.8311 60.9746 40.9543L60.8687 40.9935C60.8187 41.0124 60.7732 41.0301 60.7323 41.0466L60.6456 41.0822C59.4685 41.6178 58.0802 41.0978 57.5446 39.9207C57.0174 38.7621 57.513 37.3987 58.6513 36.8455L58.7522 36.7991C58.7865 36.7841 58.8278 36.7664 58.8759 36.7464L58.9133 36.731C59.0474 36.6758 59.2012 36.6162 59.3738 36.5534C59.8483 36.3808 60.3905 36.2109 60.9957 36.0538C62.6989 35.6117 64.5891 35.3478 66.6245 35.3479ZM91.8942 35.3477C93.9297 35.3476 95.8199 35.6115 97.523 36.0536C98.1281 36.2107 98.6704 36.3807 99.1448 36.5532L99.3111 36.6149C99.4178 36.6553 99.5159 36.694 99.6054 36.7308L99.7394 36.7872C99.7677 36.7994 99.7921 36.8103 99.8126 36.8196C100.99 37.3552 101.51 38.7436 100.974 39.9206C100.447 41.0792 99.0932 41.6012 97.9283 41.1063L97.8257 41.0623L97.6983 41.0118C97.6513 40.9937 97.5999 40.9744 97.5439 40.954C97.2055 40.8309 96.8044 40.7052 96.3463 40.5863C95.0115 40.2397 93.5128 40.0305 91.8943 40.0306C90.263 40.0306 88.6585 40.2436 87.1602 40.5984C86.6859 40.7107 86.2557 40.8296 85.877 40.9479L85.7649 40.9834C85.6007 41.036 85.4779 41.0781 85.4 41.1061L85.3283 41.1327C84.1233 41.6019 82.7661 41.0054 82.2968 39.8004C81.8276 38.5954 82.4241 37.2381 83.6291 36.7689L83.7645 36.7179C83.9068 36.666 84.0982 36.6 84.3355 36.5239C84.8528 36.3581 85.4374 36.1939 86.0811 36.0415C87.9127 35.6078 89.872 35.3477 91.8942 35.3477Z" fill="#393939"/>
<path d="M77.9068 50.689L81.0182 51.8389C80.1421 54.2095 79.7579 56.7525 79.98 58.6132C80.1662 60.1734 80.635 60.8085 81.3242 60.83L81.3607 60.8305V64.1476C78.6433 64.1476 77.0518 62.0688 76.6863 59.0064C76.4023 56.6273 76.8428 53.6341 77.8503 50.8438L77.9068 50.689Z" fill="#EBBAAA"/>
<path d="M91.5991 46.5107C92.7738 46.5107 93.9356 46.7351 95.0438 47.1071C95.4289 47.2364 95.7815 47.3754 96.0961 47.5155L96.2452 47.5833C96.3674 47.6401 96.462 47.6873 96.5267 47.7217C97.1925 48.0763 97.4449 48.9035 97.0903 49.5693C96.7435 50.2206 95.9444 50.4763 95.2864 50.1552L95.176 50.0994C95.1301 50.0772 95.0658 50.047 94.9845 50.0108C94.7462 49.9047 94.4738 49.7973 94.1743 49.6968C93.3266 49.4121 92.4477 49.2424 91.5991 49.2424C90.7504 49.2424 89.8714 49.4122 89.0237 49.6968C88.7616 49.7848 88.5203 49.8779 88.3044 49.971L88.2135 50.0108C88.0915 50.0651 88.0077 50.1058 87.9671 50.1267L87.9552 50.1329C87.2894 50.4875 86.4622 50.2351 86.1076 49.5693C85.7531 48.9035 86.0054 48.0763 86.6713 47.7217L86.7254 47.6936C86.8148 47.6479 86.9414 47.587 87.1019 47.5155C87.4164 47.3754 87.7691 47.2364 88.1542 47.1071C89.2624 46.7351 90.4243 46.5107 91.5991 46.5107ZM67.9288 46.5107C69.1036 46.5107 70.2654 46.7351 71.3736 47.1071C71.7587 47.2364 72.1113 47.3754 72.4258 47.5155L72.5749 47.5833C72.6972 47.6401 72.7918 47.6873 72.8564 47.7217C73.5223 48.0763 73.7746 48.9035 73.4201 49.5693C73.0732 50.2206 72.2741 50.4763 71.6162 50.1552L71.5058 50.0994C71.4599 50.0772 71.3956 50.047 71.3142 50.0108C71.076 49.9047 70.8035 49.7973 70.5041 49.6968C69.6563 49.4121 68.7774 49.2424 67.9288 49.2424C67.0802 49.2424 66.2013 49.4122 65.3535 49.6968C65.054 49.7973 64.7815 49.9047 64.5432 50.0108L64.4342 50.0604C64.3915 50.0802 64.3567 50.0968 64.3302 50.1099L64.2849 50.1329C63.619 50.4875 62.7919 50.2351 62.4374 49.5692C62.0828 48.9034 62.3352 48.0762 63.0011 47.7217L63.0552 47.6935C63.1446 47.6478 63.2712 47.587 63.4317 47.5155C63.7463 47.3754 64.0989 47.2364 64.484 47.1071C65.5923 46.7351 66.7541 46.5107 67.9288 46.5107Z" fill="#393939"/>
<path fill-rule="evenodd" clip-rule="evenodd" d="M71.2656 68.2256V71.2595C71.2656 75.93 75.0518 79.7146 79.7206 79.7146C84.3911 79.7146 88.1759 75.93 88.1759 71.2595V68.2256H71.2656Z" fill="#393939"/>
<mask id="mask2_910_17986" style="mask-type:alpha" maskUnits="userSpaceOnUse" x="71" y="68" width="18" height="12">
<path d="M71.279 68.2231C71.2699 68.3794 71.2654 68.5373 71.2654 68.6951V71.6503C71.2654 76.1051 75.0515 79.7152 79.7204 79.7152C84.3908 79.7152 88.1756 76.1051 88.1756 71.6503V68.6951C88.1756 68.5373 88.1709 68.3794 88.1618 68.2231H71.279Z" fill="white"/>
</mask>
<g mask="url(#mask2_910_17986)">
<path d="M79.7205 82.4263C82.5367 82.4263 84.8196 81.1838 84.8196 79.6509C84.8196 78.1182 82.5367 76.8755 79.7205 76.8755C76.9043 76.8755 74.6213 78.1182 74.6213 79.6509C74.6213 81.1838 76.9043 82.4263 79.7205 82.4263Z" fill="#FF6C6C"/>
</g>
<path d="M88.1763 68.2256H71.2656V71.7111H88.1763V68.2256Z" fill="white"/>
<g opacity="0.7">
<path d="M75.6505 83.9038C75.9457 83.5896 76.4396 83.5742 76.7538 83.8694C77.0575 84.1547 77.082 84.6258 76.8167 84.9406L76.7882 84.9726L76.0877 85.7182C75.7925 86.0323 75.2986 86.0477 74.9844 85.7526C74.6808 85.4673 74.6563 84.9962 74.9216 84.6813L74.9501 84.6493L75.6505 83.9038ZM70.1495 83.1584C70.4446 82.8443 70.9386 82.8289 71.2527 83.124C71.5564 83.4093 71.5809 83.8804 71.3156 84.1953L71.2871 84.2273L70.5866 84.9728C70.2915 85.287 69.7975 85.3024 69.4834 85.0072C69.1797 84.7219 69.1552 84.2508 69.4205 83.936L69.449 83.904L70.1495 83.1584ZM72.8999 83.9038C73.1951 83.5896 73.689 83.5742 74.0031 83.8694C74.3068 84.1547 74.3313 84.6258 74.066 84.9406L74.0375 84.9726L73.337 85.7182C73.0419 86.0323 72.548 86.0477 72.2338 85.7526C71.9301 85.4673 71.9056 84.9962 72.1709 84.6813L72.1994 84.6493L72.8999 83.9038ZM87.5265 83.124C87.8302 82.8387 88.3018 82.8436 88.5996 83.128L88.6297 83.1584L89.3302 83.904C89.6254 84.2181 89.61 84.7121 89.2958 85.0072C88.9922 85.2925 88.5205 85.2877 88.2228 85.0032L88.1926 84.9728L87.4921 84.2273C87.1969 83.9131 87.2123 83.4192 87.5265 83.124ZM84.7761 83.8693C85.0798 83.584 85.5515 83.589 85.8492 83.8734L85.8794 83.9039L86.5797 84.6494C86.8748 84.9636 86.8593 85.4575 86.5451 85.7527C86.2414 86.0379 85.7697 86.033 85.472 85.7485L85.4419 85.7181L84.7416 84.9726C84.4465 84.6584 84.4619 84.1644 84.7761 83.8693ZM82.0255 83.8693C82.3292 83.584 82.8009 83.589 83.0986 83.8734L83.1287 83.9039L83.829 84.6494C84.1241 84.9636 84.1087 85.4575 83.7945 85.7527C83.4908 86.0379 83.0191 86.033 82.7214 85.7485L82.6912 85.7181L81.991 84.9726C81.6958 84.6584 81.7113 84.1644 82.0255 83.8693Z" fill="#C0C0C0"/>
</g>
</g>
<defs>
<clipPath id="clip0_910_17986">
<rect width="160" height="140.488" fill="white"/>
</clipPath>
</defs>
</svg>
