<svg width="160" height="185" viewBox="0 0 160 185" fill="none" xmlns="http://www.w3.org/2000/svg">
<circle cx="81.9509" cy="102.246" r="78.0486" fill="#1D2C43"/>
<circle cx="78.0486" cy="106.148" r="78.0486" fill="#4E607A"/>
<mask id="mask0_910_19850" style="mask-type:alpha" maskUnits="userSpaceOnUse" x="0" y="28" width="157" height="157">
<circle cx="78.0486" cy="106.148" r="78.0486" fill="#D9D9D9"/>
</mask>
<g mask="url(#mask0_910_19850)">
<path d="M79.0247 188.891C89.9081 188.891 98.7308 185.734 98.7308 181.838C98.7308 177.943 89.9081 174.785 79.0247 174.785C68.1413 174.785 59.3186 177.943 59.3186 181.838C59.3186 185.734 68.1413 188.891 79.0247 188.891Z" fill="#4E607A"/>
<path d="M51.3525 163.466H77.6939L76.2937 223.859L74.7328 229.364L59.806 228.583L57.5398 222.593L51.3525 163.466Z" fill="#4E607A"/>
<path d="M77.4424 164.641H103.873L102.685 222.73L100.539 228.388L85.3196 231.007L83.9027 224.29L77.4424 164.641Z" fill="#4E607A"/>
<path d="M38.5871 116.467C40.4007 112.916 44.7495 111.508 48.3004 113.321C51.8512 115.135 53.2595 119.484 51.4459 123.035C48.9314 127.958 46.2769 137.88 44.8904 147.486L44.8488 147.777C44.1898 152.426 43.8914 156.591 43.9951 159.648L44.0004 159.795C44.0409 160.843 44.1286 161.695 44.2404 162.299L44.2648 162.425L44.271 162.432C46.3212 164.779 46.675 168.276 44.9369 171.031L44.8724 171.131C42.6904 174.468 38.2162 175.405 34.879 173.223C32.4942 171.663 31.1904 169.384 30.4247 166.602C29.9301 164.805 29.664 162.73 29.5722 160.352C29.4161 156.311 29.7713 151.263 30.5527 145.75C32.132 134.61 35.1951 123.108 38.5871 116.467ZM104.496 109.027C107.969 107.067 112.372 108.295 114.331 111.767C118.955 119.964 122.368 131.545 124.13 143.65C125.808 155.176 125.773 165.6 123.663 171.404C122.3 175.151 118.158 177.084 114.411 175.721C110.701 174.372 108.77 170.299 110.053 166.582L110.093 166.469C111.173 163.501 111.201 155.066 109.842 145.729C108.315 135.243 105.383 125.292 101.755 118.862C99.7964 115.389 101.024 110.986 104.496 109.027Z" fill="#EBBAAA"/>
<path d="M58.5678 116.739L38.1787 110.114L37.1726 113.21L57.5617 119.835L58.5678 116.739Z" fill="#F1EDED"/>
<path d="M98.3892 124.248L118.778 117.624L117.772 114.527L97.383 121.152L98.3892 124.248Z" fill="#F1EDED"/>
<path d="M52.0883 101.367C52.2512 94.6519 63.2374 88.3153 69.9507 88.0962L80.0133 88.4978C81.2904 88.4576 82.5694 88.5239 83.8344 88.6989L99.1333 90.8146C105.883 91.7479 110.685 97.8497 110.006 104.629L107.112 133.485L108.564 174.827C108.578 175.181 91.7489 174.845 91.3949 174.827H64.3402L48.9629 172.506C48.6231 172.488 48.3636 172.192 48.3917 171.852L51.3964 129.891L52.0883 101.367Z" fill="#1D2C43"/>
<path d="M57.099 172L72.4049 173.364H85.0728V173.95H72.3899L72.3639 173.948L57.0469 172.583L57.099 172Z" fill="#121B2B"/>
<path d="M77.6584 106.047C85.4172 106.047 91.7071 101.811 91.7071 96.584C91.7071 91.3575 85.4172 87.1206 77.6584 87.1206C69.8994 87.1206 63.6096 91.3575 63.6096 96.584C63.6096 101.811 69.8994 106.047 77.6584 106.047Z" fill="#121B2B"/>
<path d="M79.627 76.8391H77.2508C73.1654 76.8391 69.8535 80.151 69.8535 84.2364V92.6613C69.8535 96.7467 73.1654 100.059 77.2508 100.059H79.627C83.7123 100.059 87.0242 96.7467 87.0242 92.6613V84.2364C87.0242 80.151 83.7123 76.8391 79.627 76.8391Z" fill="#EBBAAA"/>
<path d="M68.4482 109.514C70.7087 101.883 66.3549 93.8644 58.7237 91.6039C51.0925 89.3434 43.0738 93.6973 40.8133 101.328L29.0686 140.978C26.8082 148.609 31.162 156.628 38.7932 158.888C46.4243 161.149 54.4431 156.795 56.7035 149.164L68.4482 109.514Z" fill="#16131B"/>
<path d="M28.3318 165.619C27.083 162.029 27.2432 147.964 28.8042 142.11L50.5756 142.595C49.9511 151.608 49.073 160.096 46.0486 169.327L46.0188 169.328C41.8927 169.525 29.889 170.096 28.3318 165.619Z" fill="#16131B"/>
<path opacity="0.2" d="M33.5613 138.498L47.7076 142.79L32.293 141.327L33.5613 138.498Z" fill="#413A4E"/>
<path opacity="0.2" d="M37.073 144.156L47.9998 143.571L38.5364 146.595L37.073 144.156Z" fill="#413A4E"/>
<path d="M84.8234 110.619C82.052 102.571 86.3301 93.7992 94.3787 91.0278C102.427 88.2564 111.199 92.5345 113.97 100.583L128.601 143.076C131.373 151.124 127.095 159.896 119.046 162.667C110.997 165.438 102.226 161.16 99.4547 153.112L84.8234 110.619Z" fill="#16131B"/>
<path d="M72.3901 141.462C72.2349 128.358 73.5608 106.37 73.5608 100.096C72.3901 99.6084 70.3413 96.9743 69.3657 96.3889C68.3901 95.8035 69.8535 93.267 69.8535 87.9011L53.0953 91.1152C50.4959 94.6923 45.9228 105.38 45.1888 125.852C44.6055 142.121 46.4167 153.181 46.397 163.706C46.3919 166.424 46.397 170.438 46.634 175.901C49.8535 176.389 63.0802 177.559 73.4217 177.559C74.1462 164.974 72.6193 160.861 72.3901 141.462Z" fill="#1B1821"/>
<path d="M62.0484 176.681C58.5362 176.681 51.1216 176.107 46.6338 175.514L46.7313 177.852C49.2679 178.594 56.4107 178.815 59.9996 178.962C63.6094 179.111 68.3898 178.962 73.463 178.762V176.681H62.0484Z" fill="#09090C"/>
<path d="M128.78 166.4C130.029 162.81 130.341 150.205 128.78 144.351L106.536 143.375C108.917 150.79 106.146 158.4 107.902 167.961C112 168.156 127.219 170.888 128.78 166.4Z" fill="#16131B"/>
<path opacity="0.2" d="M122.244 136.741L108.098 141.034L123.512 139.57L122.244 136.741Z" fill="#413A4E"/>
<path opacity="0.2" d="M119.609 142.985L108.683 142.4L118.146 145.424L119.609 142.985Z" fill="#413A4E"/>
<path d="M83.9022 141.462C83.9022 122.69 83.6096 113.95 83.6096 110.633C83.6096 107.316 83.2193 103.023 83.2193 100.779C85.1703 96.6219 87.6096 95.3159 87.0242 88.5842L99.2993 89.6732C102.405 89.9487 105.157 91.6683 105.803 94.7181C107.132 100.989 107.921 112.324 109.158 127.01C110.439 142.205 109.803 154.994 110.439 165.424C110.637 168.677 110.439 174.34 110.439 176.974C104.828 177.773 92.2925 179.413 81.5608 178.535C82.7317 167.857 83.9022 160.234 83.9022 141.462Z" fill="#1B1821"/>
<path d="M92.4881 176.974C96.8784 176.974 106.049 176.877 110.439 176.682V179.121C106.571 179.511 100.977 179.511 97.8386 179.511H97.7564C91.4612 179.511 88.5857 179.804 81.1711 178.438L81.5613 176.194C84.293 176.43 88.1155 176.974 92.4881 176.974ZM70.4401 99.1929L71.4143 99.2441L71.2866 101.592C71.2142 102.889 71.1282 104.383 71.0253 106.142L70.2531 119.183C69.525 131.608 69.1996 138.231 69.2661 140.307L69.2916 140.966C69.3304 141.91 69.3792 142.825 69.5322 145.326L70.1453 155.188C70.5353 161.545 70.7233 165.233 70.7312 167.189L70.7314 167.397C70.7299 168.366 70.701 169.314 70.635 170.774L70.5491 172.61C70.4171 175.516 70.4001 176.928 70.5182 178.395L70.5347 178.59L69.5628 178.676L69.5458 178.474C69.4251 176.978 69.4399 175.561 69.5683 172.703L69.6603 170.733C69.7203 169.406 69.7493 168.507 69.7549 167.633L69.7558 167.254L69.7543 166.997C69.7368 165.173 69.5755 161.929 69.2557 156.631L69.0354 153.051L68.5253 144.844C68.405 142.861 68.3585 141.991 68.3234 141.164L68.2934 140.408C68.2177 138.401 68.5258 132.026 69.233 119.915L70.1934 103.638C70.257 102.531 70.3124 101.548 70.3609 100.664L70.4401 99.1929Z" fill="#09090C"/>
<path d="M68.7781 97.6318L69.7524 97.6831L69.689 98.8462C69.5482 101.348 69.3529 104.305 69.001 109.297L67.9666 123.804C67.2293 134.273 66.9734 138.683 67.0286 140.407L67.054 141.063C67.0928 142.008 67.1416 142.922 67.2946 145.424L67.9077 155.286C68.2978 161.642 68.4857 165.331 68.4937 167.287L68.4939 167.494C68.4923 168.517 68.4601 169.517 68.3861 171.119L68.3059 172.834C68.1754 175.739 68.1636 177.129 68.2916 178.623L68.2973 178.688L67.3255 178.773L67.3084 178.572C67.1841 177.031 67.2035 175.574 67.3426 172.54L67.4281 170.711C67.4844 169.449 67.5119 168.578 67.5173 167.731L67.5182 167.352L67.5167 167.095C67.4992 165.27 67.3379 162.027 67.0181 156.728L66.7978 153.149L66.2878 144.941C66.1675 142.958 66.1209 142.089 66.0858 141.262L66.0558 140.505C65.9805 138.509 66.3255 133.012 67.3753 118.365L67.8478 111.768C68.3607 104.563 68.5951 101.041 68.7599 97.975L68.7781 97.6318ZM83.8125 100.603L84.7874 100.565L84.8316 101.758C84.9644 105.554 85.0602 110.333 85.1309 116.137L85.1566 118.396C85.1728 119.913 85.1875 121.497 85.2015 123.205L85.3003 136.27C85.318 138.003 85.3362 139.107 85.3589 139.803L85.3651 139.98C85.5544 144.995 84.8582 162.98 84.3054 168.004L84.1959 168.968C84.1753 169.152 84.1545 169.339 84.1332 169.533L83.8089 172.536C83.6847 173.668 83.5824 174.525 83.469 175.36C83.3265 176.409 83.1696 177.39 82.9811 178.391L82.9171 178.726L81.9594 178.54C82.1518 177.55 82.3113 176.59 82.455 175.57L82.5023 175.229C82.6046 174.475 82.698 173.701 82.8074 172.717L83.172 169.349C83.2117 168.988 83.2496 168.65 83.2883 168.312L83.3195 168.04C83.8582 163.377 84.5511 145.757 84.4005 140.334L84.372 139.421C84.3543 138.718 84.3394 137.715 84.3248 136.288L84.2212 122.649C84.2023 120.408 84.1821 118.378 84.1586 116.417L84.1282 114.055C84.0571 108.936 83.9635 104.687 83.838 101.275L83.8125 100.603Z" fill="#09090C"/>
<path d="M85.6664 100.603L86.6413 100.565L86.6855 101.757C86.8183 105.554 86.9142 110.333 86.9848 116.137L87.0106 118.395C87.0267 119.913 87.0414 121.497 87.0554 123.205L87.1542 136.27C87.1719 138.002 87.1901 139.107 87.2129 139.803L87.2191 139.98C87.4083 144.995 86.7121 162.98 86.1594 168.004L85.6775 172.234L85.582 173.04C85.4391 174.225 85.31 175.197 85.167 176.146C85.0372 177.008 84.8977 177.836 84.7415 178.664L84.6735 179.018L83.7158 178.832C83.8972 177.899 84.0559 176.973 84.2022 176.001L84.2389 175.755C84.3843 174.77 84.5176 173.74 84.6699 172.449L85.1735 168.04C85.7121 163.377 86.4051 145.757 86.2544 140.334L86.2259 139.42C86.2083 138.717 86.1933 137.715 86.1787 136.288L86.0752 122.649C86.0562 120.408 86.036 118.377 86.0126 116.417L85.9821 114.055C85.9111 108.936 85.8174 104.687 85.692 101.275L85.6664 100.603Z" fill="#09090C"/>
<path d="M82.837 100.596L83.4219 100.573L83.4599 101.59C83.5876 105.181 83.6816 109.665 83.752 115.08L83.791 118.398C83.8081 120 83.8235 121.675 83.8382 123.493L83.9347 136.273C83.9514 137.914 83.9687 138.992 83.9898 139.695L83.9997 139.988C84.1885 144.992 83.4927 162.968 82.941 167.982L82.4445 172.482L82.3564 173.26C82.2758 173.957 82.2014 174.554 82.1221 175.138C81.9765 176.209 81.8159 177.212 81.6212 178.245L81.5551 178.591L80.9805 178.479C81.2032 177.334 81.3817 176.239 81.5421 175.059L81.5896 174.703C81.668 174.106 81.7437 173.475 81.8285 172.723L82.3076 168.371L82.3429 168.063C82.8826 163.39 83.576 145.76 83.425 140.327L83.3943 139.321C83.3719 138.387 83.3539 136.951 83.3352 134.749L83.2458 122.647C83.2269 120.406 83.2067 118.375 83.1832 116.415L83.1527 114.052C83.0841 109.103 82.9942 104.966 82.8749 101.612L82.837 100.596Z" fill="#7B7E8C"/>
<path d="M66.7328 94.4121L67.707 94.4634L67.6552 95.4177C67.4729 98.6713 67.1885 102.77 66.5605 111.354L65.8414 121.172C64.9607 133.297 64.6421 138.41 64.6889 140.248L64.716 140.965C64.7548 141.91 64.8036 142.825 64.9566 145.326L65.5697 155.188C65.9598 161.544 66.1477 165.233 66.1556 167.189L66.1558 167.396C66.1543 168.365 66.1254 169.314 66.0594 170.774L65.9735 172.609C65.8415 175.516 65.8245 176.928 65.9427 178.395L65.9591 178.59L64.9873 178.676L64.9702 178.474C64.8495 176.978 64.8643 175.561 64.9927 172.703L65.0847 170.732C65.1447 169.405 65.1737 168.507 65.1793 167.633L65.1802 167.254L65.1787 166.997C65.1612 165.173 64.9999 161.929 64.6801 156.631L64.4598 153.051L63.9497 144.843C63.8294 142.861 63.7829 141.991 63.7478 141.164L63.7178 140.407C63.6492 138.589 63.9738 133.383 64.9285 120.273L65.8671 107.443C66.3502 100.767 66.5732 97.4202 66.7266 94.5291L66.7328 94.4121Z" fill="#09090C"/>
<path d="M70.8292 94.0476C69.5804 91.9403 69.9511 89.2671 69.8536 87.8037L66.9264 88.4866C66.9264 88.4866 65.5603 93.2671 68.1945 97.6573C69.6524 100.087 74.3423 101.963 76.4139 102.521C76.6528 102.585 76.8776 102.401 76.8776 102.153V98.7282C76.8776 98.5559 76.7652 98.4051 76.6026 98.3481C74.9162 97.7563 72.0108 96.0417 70.8292 94.0476ZM85.5609 95.8037C87.356 94.0086 87.0243 90.4379 87.0243 88.4866L89.8535 88.7793C90.1136 89.9175 90.634 93.4037 89.4633 97.072C88.338 100.598 83.3378 102.663 80.5254 102.819C80.3343 102.829 80.1724 102.689 80.1417 102.5L79.5734 99.009C79.5392 98.7998 79.6777 98.6023 79.885 98.5586C81.4754 98.222 83.9015 97.463 85.5609 95.8037Z" fill="#09090C"/>
<path d="M74.8294 100.584C75.2066 100.584 75.5123 100.278 75.5123 99.9012C75.5123 99.524 75.2066 99.2183 74.8294 99.2183C74.4522 99.2183 74.1465 99.524 74.1465 99.9012C74.1465 100.278 74.4522 100.584 74.8294 100.584Z" fill="#C4C4C4"/>
<path d="M82.4388 101.169C82.9238 101.169 83.3169 100.776 83.3169 100.291C83.3169 99.8064 82.9238 99.4133 82.4388 99.4133C81.9539 99.4133 81.5608 99.8064 81.5608 100.291C81.5608 100.776 81.9539 101.169 82.4388 101.169Z" fill="#C4C4C4"/>
<path d="M74.6343 100.389C74.9037 100.389 75.1221 100.171 75.1221 99.9014C75.1221 99.632 74.9037 99.4136 74.6343 99.4136C74.3649 99.4136 74.1465 99.632 74.1465 99.9014C74.1465 100.171 74.3649 100.389 74.6343 100.389Z" fill="#ECECEC"/>
<path d="M82.7276 168.821L81.7111 168.689C81.4367 168.653 81.1639 168.765 80.9942 168.983L80.648 169.428C80.5025 169.615 80.45 169.858 80.505 170.089L81.0266 172.271C81.1019 172.586 81.3639 172.822 81.6849 172.864L81.7901 172.877C82.1171 172.92 82.4357 172.752 82.5858 172.458L83.5854 170.502C83.6958 170.286 83.6993 170.031 83.5948 169.811L83.3313 169.259C83.2174 169.02 82.9901 168.855 82.7276 168.821Z" fill="#C4C4C4"/>
<path fill-rule="evenodd" clip-rule="evenodd" d="M82.7987 170.713L81.197 170.505L80.9127 171.601L80.1765 174.178C79.9478 174.978 80.4844 175.794 81.3094 175.902C82.1343 176.009 82.8616 175.358 82.8454 174.526L82.7931 171.846L82.7987 170.713ZM81.1909 171.944L81.47 170.941L82.4998 171.075L82.5053 172.115L81.1909 171.944ZM81.0538 174.894L81.8087 174.993C82.1712 175.04 82.4863 174.744 82.462 174.379C82.4434 174.103 82.2325 173.878 81.9582 173.843L81.2034 173.745C80.934 173.71 80.6762 173.866 80.5835 174.122C80.4571 174.47 80.686 174.847 81.0538 174.894Z" fill="#DCDCDC"/>
<path d="M81.6197 170.345L81.5913 171.219C81.5852 171.405 81.7214 171.565 81.9056 171.589C82.09 171.613 82.2625 171.493 82.3042 171.312L82.5003 170.46C82.5595 170.203 82.3844 169.951 82.1232 169.917C81.8619 169.883 81.6281 170.082 81.6197 170.345Z" fill="#B3AFAF"/>
<path opacity="0.5" d="M108.074 62.9852C112.384 62.9852 115.879 59.4908 115.879 55.1803C115.879 50.8697 112.384 47.3755 108.074 47.3755C103.763 47.3755 100.269 50.8697 100.269 55.1803C100.269 59.4908 103.763 62.9852 108.074 62.9852ZM49.5373 62.9852C45.2269 62.9852 41.7324 59.4908 41.7324 55.1803C41.7324 50.8697 45.2269 47.3755 49.5373 47.3755C53.8477 47.3755 57.3422 50.8697 57.3422 55.1803C57.3422 59.4908 53.8477 62.9852 49.5373 62.9852Z" fill="#C99584"/>
<path d="M49.3662 35.7059C49.3662 19.4876 62.5137 6.34009 78.732 6.34009C94.9503 6.34009 108.098 19.4876 108.098 35.7059V47.3156L107.288 59.9275C106.923 65.608 105.224 71.1899 101.429 75.433C96.4012 81.0556 88.2449 88.096 78.9271 88.096C69.4713 88.096 61.212 80.8459 56.2039 75.1844C52.5719 71.0787 50.8868 65.7316 50.4357 60.2685L49.3662 47.3156V35.7059Z" fill="#F4D5CC"/>
<path fill-rule="evenodd" clip-rule="evenodd" d="M68.6592 66.1106V69.5804C68.6592 74.9221 72.9895 79.2507 78.3292 79.2507C83.6707 79.2507 87.9992 74.9221 87.9992 69.5804V66.1106H68.6592Z" fill="#393939"/>
<mask id="mask1_910_19850" style="mask-type:alpha" maskUnits="userSpaceOnUse" x="68" y="66" width="20" height="14">
<path d="M68.675 66.1072C68.6644 66.2859 68.6592 66.4664 68.6592 66.6471V70.027C68.6592 75.1218 72.9895 79.2506 78.3292 79.2506C83.6707 79.2506 87.9992 75.1218 87.9992 70.027V66.6471C87.9992 66.4664 87.994 66.2859 87.9834 66.1072H68.675Z" fill="white"/>
</mask>
<g mask="url(#mask1_910_19850)">
<path d="M78.3289 82.3512C81.5497 82.3512 84.1607 80.9301 84.1607 79.1769C84.1607 77.424 81.5497 76.0027 78.3289 76.0027C75.108 76.0027 72.4971 77.424 72.4971 79.1769C72.4971 80.9301 75.108 82.3512 78.3289 82.3512Z" fill="#FF6C6C"/>
</g>
<path d="M87.9998 66.1106H68.6592V70.0969H87.9998V66.1106Z" fill="white"/>
<path d="M47.6104 32.5838C47.6105 25.0716 48.1384 23.0229 50.1469 21.657C52.1555 20.2912 59.8054 17.7546 56.2933 20.4863C52.7811 23.218 52.4109 29.1292 52.4109 29.1292L50.6189 50.6485C50.5881 51.0064 50.3163 51.2782 49.992 51.2782C49.6531 51.2782 49.376 50.9844 49.3614 50.6125C49.3614 50.6125 47.6102 40.096 47.6104 32.5838ZM109.171 30.7304C109.171 22.9511 107.903 16.038 102.147 13.6572C96.3907 11.2764 95.7078 17.7548 98.7322 18.8279C101.757 19.9011 102.648 22.065 103.122 24.7791C103.596 27.4933 106.392 49.5356 106.392 49.5356C106.423 49.8934 106.694 50.1652 107.019 50.1652C107.358 50.1652 107.635 49.8714 107.649 49.4995C107.649 49.4995 109.171 38.5098 109.171 30.7304Z" fill="black"/>
<path d="M98.4619 37.5598C99.4318 37.5598 100.218 38.346 100.218 39.3159C100.218 40.2685 99.4596 41.0439 98.5137 41.0713L98.4619 41.072H87.34C86.3701 41.072 85.5839 40.2858 85.5839 39.3159C85.5839 38.3634 86.3423 37.588 87.2882 37.5606L87.34 37.5598H98.4619ZM69.3888 37.5598C70.3587 37.5598 71.1449 38.346 71.1449 39.3159C71.1449 40.2685 70.3865 41.0439 69.4406 41.0713L69.3888 41.072H58.1457C57.1759 41.072 56.3896 40.2858 56.3896 39.3159C56.3896 38.3634 57.148 37.588 58.094 37.5606L58.1457 37.5598H69.3888Z" fill="#393939"/>
<path d="M77.4251 52.3093L80.185 54.1493C79.247 55.5563 78.5124 57.6684 78.5124 59.2049C78.5124 60.6865 79.0474 61.3092 80.6854 61.3265L80.7563 61.3269V64.6439C77.1381 64.6439 75.1953 62.4583 75.1953 59.2049C75.1953 57.001 76.1122 54.3257 77.3569 52.4129L77.4251 52.3093Z" fill="#EBBAAA"/>
<path d="M90.9271 43.4133C92.2003 43.4133 93.2362 44.4296 93.2678 45.6953L93.2685 45.7548V49.0719C93.2685 50.365 92.2202 51.4133 90.9271 51.4133C89.6538 51.4133 88.6179 50.397 88.5863 49.1314L88.5856 49.0719V45.7548C88.5856 44.4616 89.6339 43.4133 90.9271 43.4133ZM66.6344 43.4133C67.9077 43.4133 68.9436 44.4296 68.9751 45.6953L68.9759 45.7548V49.0719C68.9759 50.365 67.9276 51.4133 66.6344 51.4133C65.3612 51.4133 64.3253 50.397 64.2937 49.1314L64.293 49.0719V45.7548C64.293 44.4616 65.3413 43.4133 66.6344 43.4133Z" fill="black"/>
</g>
<g clip-path="url(#clip0_910_19850)">
<path d="M52.0888 101.367C52.2517 94.6521 63.2378 88.3156 69.9512 88.0964L80.0138 88.498C81.2909 88.4578 82.5699 88.5241 83.8349 88.6992L99.1338 90.8149C105.883 91.7481 110.686 97.85 110.006 104.629L107.112 133.486L108.564 174.827C108.578 175.181 91.7494 174.845 91.3954 174.827H64.3407L48.9633 172.506C48.6236 172.488 48.3641 172.192 48.3922 171.853L51.3969 129.892L52.0888 101.367Z" fill="#1D2C43"/>
<path d="M77.6584 106.048C85.4172 106.048 91.7071 101.811 91.7071 96.5842C91.7071 91.3577 85.4172 87.1208 77.6584 87.1208C69.8994 87.1208 63.6096 91.3577 63.6096 96.5842C63.6096 101.811 69.8994 106.048 77.6584 106.048Z" fill="#121B2B"/>
<path d="M79.627 76.8396H77.2508C73.1654 76.8396 69.8535 80.1515 69.8535 84.2368V92.6618C69.8535 96.7472 73.1654 100.059 77.2508 100.059H79.627C83.7123 100.059 87.0242 96.7472 87.0242 92.6618V84.2368C87.0242 80.1515 83.7123 76.8396 79.627 76.8396Z" fill="#EBBAAA"/>
<path d="M68.4482 109.514C70.7087 101.883 66.3549 93.8644 58.7237 91.6039C51.0925 89.3434 43.0738 93.6973 40.8133 101.328L29.0686 140.978C26.8082 148.609 31.162 156.628 38.7932 158.888C46.4243 161.149 54.4431 156.795 56.7035 149.164L68.4482 109.514Z" fill="#16131B"/>
<path d="M84.8229 110.62C82.0515 102.571 86.3296 93.7997 94.3783 91.0283C102.427 88.2569 111.198 92.535 113.97 100.584L128.601 143.076C131.372 151.125 127.094 159.896 119.046 162.668C110.997 165.439 102.226 161.161 99.4542 153.112L84.8229 110.62Z" fill="#16131B"/>
<path d="M72.3901 141.462C72.2349 128.359 73.5608 106.37 73.5608 100.096C72.3901 99.6087 70.3413 96.9745 69.3657 96.3892C68.3901 95.8038 69.8535 93.2672 69.8535 87.9014L53.0953 91.1154C50.4959 94.6926 45.9228 105.38 45.1888 125.852C44.6055 142.121 46.4167 153.181 46.397 163.706C46.3919 166.425 46.397 170.438 46.634 175.901C49.8535 176.389 63.0802 177.56 73.4217 177.56C74.1462 164.974 72.6193 160.861 72.3901 141.462Z" fill="#1B1821"/>
<path d="M83.9022 141.462C83.9022 122.69 83.6096 113.95 83.6096 110.633C83.6096 107.316 83.2193 103.023 83.2193 100.779C85.1703 96.6219 87.6096 95.3159 87.0242 88.5842L99.2993 89.6732C102.405 89.9487 105.157 91.6683 105.803 94.7181C107.132 100.989 107.921 112.324 109.158 127.01C110.439 142.205 109.803 154.994 110.439 165.424C110.637 168.677 110.439 174.34 110.439 176.974C104.828 177.773 92.2925 179.413 81.5608 178.535C82.7317 167.857 83.9022 160.234 83.9022 141.462Z" fill="#1B1821"/>
<path d="M92.4876 176.975C96.8779 176.975 106.049 176.877 110.439 176.682V179.121C106.57 179.511 100.976 179.511 97.8381 179.511H97.7559C91.4607 179.511 88.5852 179.804 81.1706 178.438L81.5608 176.194C84.2925 176.43 88.115 176.975 92.4876 176.975ZM70.4396 99.1931L71.4138 99.2444L71.2861 101.593C71.2137 102.889 71.1278 104.383 71.0248 106.142L70.2526 119.183C69.5245 131.608 69.1991 138.231 69.2656 140.307L69.2911 140.966C69.3299 141.91 69.3787 142.825 69.5317 145.326L70.1448 155.189C70.5349 161.545 70.7228 165.233 70.7307 167.19L70.7309 167.397C70.7294 168.366 70.7005 169.314 70.6345 170.774L70.5486 172.61C70.4166 175.516 70.3996 176.929 70.5178 178.396L70.5342 178.59L69.5624 178.676L69.5453 178.474C69.4246 176.978 69.4394 175.562 69.5678 172.703L69.6598 170.733C69.7198 169.406 69.7488 168.508 69.7544 167.634L69.7553 167.254L69.7538 166.997C69.7363 165.173 69.575 161.929 69.2552 156.631L69.0349 153.052L68.5249 144.844C68.4045 142.861 68.358 141.992 68.3229 141.164L68.2929 140.408C68.2172 138.402 68.5254 132.027 69.2325 119.915L70.1929 103.639C70.2565 102.531 70.3119 101.548 70.3604 100.664L70.4396 99.1931Z" fill="#09090C"/>
<path d="M68.7786 97.6321L69.7528 97.6834L69.6895 98.8464C69.5486 101.348 69.3534 104.305 69.0015 109.297L67.9671 123.804C67.2298 134.273 66.9739 138.683 67.0291 140.407L67.0545 141.063C67.0933 142.008 67.1421 142.923 67.2951 145.424L67.9082 155.286C68.2983 161.642 68.4862 165.331 68.4941 167.287L68.4943 167.494C68.4927 168.517 68.4606 169.517 68.3866 171.12L68.3064 172.834C68.1759 175.739 68.1641 177.129 68.2921 178.623L68.2978 178.688L67.326 178.774L67.3089 178.572C67.1846 177.031 67.204 175.574 67.3431 172.54L67.4286 170.711C67.4849 169.449 67.5124 168.579 67.5178 167.731L67.5187 167.352L67.5172 167.095C67.4997 165.271 67.3384 162.027 67.0186 156.729L66.7983 153.149L66.2882 144.941C66.1679 142.959 66.1214 142.089 66.0863 141.262L66.0563 140.505C65.981 138.509 66.326 133.013 67.3758 118.365L67.8483 111.769C68.3612 104.563 68.5956 101.041 68.7603 97.9752L68.7786 97.6321ZM83.813 100.604L84.7878 100.565L84.8321 101.758C84.9649 105.554 85.0607 110.333 85.1314 116.137L85.1571 118.396C85.1733 119.914 85.1879 121.497 85.202 123.206L85.3008 136.27C85.3185 138.003 85.3367 139.107 85.3594 139.804L85.3656 139.981C85.5548 144.995 84.8587 162.981 84.3059 168.004L84.1964 168.968C84.1758 169.152 84.155 169.339 84.1337 169.534L83.8094 172.536C83.6852 173.668 83.5829 174.525 83.4695 175.36C83.327 176.409 83.1701 177.391 82.9816 178.392L82.9176 178.726L81.9599 178.54C82.1523 177.551 82.3118 176.59 82.4555 175.571L82.5028 175.229C82.6051 174.475 82.6985 173.702 82.8079 172.717L83.1725 169.349C83.2122 168.989 83.2501 168.651 83.2888 168.313L83.32 168.041C83.8587 163.378 84.5516 145.757 84.401 140.334L84.3725 139.421C84.3548 138.718 84.3399 137.716 84.3253 136.288L84.2217 122.649C84.2028 120.408 84.1826 118.378 84.1591 116.417L84.1286 114.055C84.0576 108.937 83.964 104.687 83.8385 101.275L83.813 100.604Z" fill="#09090C"/>
<path d="M85.6669 100.604L86.6418 100.565L86.686 101.758C86.8188 105.554 86.9147 110.333 86.9853 116.137L87.0111 118.396C87.0272 119.913 87.0419 121.497 87.0559 123.205L87.1547 136.27C87.1724 138.003 87.1906 139.107 87.2134 139.803L87.2196 139.98C87.4088 144.995 86.7126 162.98 86.1598 168.004L85.678 172.234L85.5825 173.04C85.4396 174.225 85.3105 175.197 85.1675 176.147C85.0376 177.008 84.8981 177.836 84.742 178.664L84.674 179.019L83.7163 178.833C83.8977 177.9 84.0564 176.973 84.2027 176.001L84.2393 175.756C84.3848 174.77 84.5181 173.74 84.6704 172.449L85.174 168.04C85.7126 163.378 86.4056 145.757 86.2549 140.334L86.2264 139.421C86.2088 138.718 86.1938 137.715 86.1792 136.288L86.0756 122.649C86.0567 120.408 86.0365 118.378 86.013 116.417L85.9826 114.055C85.9116 108.936 85.8179 104.687 85.6924 101.275L85.6669 100.604Z" fill="#09090C"/>
<path d="M82.8372 100.596L83.4221 100.573L83.4602 101.59C83.5879 105.181 83.6818 109.665 83.7522 115.08L83.7913 118.398C83.8083 120 83.8237 121.675 83.8385 123.493L83.9349 136.273C83.9517 137.914 83.9689 138.992 83.99 139.695L83.9999 139.988C84.1887 144.992 83.4929 162.968 82.9413 167.982L82.4448 172.482L82.3566 173.26C82.276 173.957 82.2017 174.554 82.1224 175.138C81.9767 176.209 81.8161 177.212 81.6215 178.245L81.5553 178.591L80.9807 178.479C81.2035 177.334 81.3819 176.239 81.5423 175.059L81.5898 174.703C81.6682 174.106 81.744 173.475 81.8287 172.723L82.3079 168.371L82.3431 168.063C82.8829 163.39 83.5762 145.76 83.4253 140.327L83.3945 139.321C83.3722 138.387 83.3541 136.951 83.3354 134.749L83.2461 122.647C83.2272 120.406 83.2069 118.375 83.1835 116.415L83.153 114.052C83.0843 109.103 82.9945 104.966 82.8752 101.612L82.8372 100.596Z" fill="#7B7E8C"/>
<path d="M66.7323 94.4126L67.7065 94.4639L67.6547 95.4182C67.4724 98.6717 67.188 102.771 66.5601 111.355L65.8409 121.172C64.9602 133.298 64.6416 138.411 64.6884 140.248L64.7155 140.966C64.7543 141.91 64.8031 142.825 64.9561 145.326L65.5692 155.189C65.9593 161.545 66.1472 165.233 66.1552 167.19L66.1553 167.397C66.1538 168.366 66.1249 169.314 66.0589 170.774L65.973 172.61C65.841 175.516 65.824 176.928 65.9422 178.396L65.9586 178.59L64.9868 178.676L64.9697 178.474C64.849 176.978 64.8638 175.562 64.9922 172.703L65.0842 170.733C65.1442 169.406 65.1732 168.508 65.1788 167.634L65.1797 167.254L65.1782 166.997C65.1607 165.173 64.9994 161.929 64.6796 156.631L64.4593 153.051L63.9493 144.844C63.829 142.861 63.7824 141.992 63.7473 141.164L63.7173 140.408C63.6487 138.589 63.9733 133.383 64.928 120.274L65.8666 107.444C66.3498 100.768 66.5727 97.4207 66.7261 94.5296L66.7323 94.4126Z" fill="#09090C"/>
<path d="M70.8292 94.0476C69.5804 91.9403 69.9511 89.2671 69.8536 87.8037L66.9264 88.4866C66.9264 88.4866 65.5603 93.2671 68.1945 97.6573C69.6524 100.087 74.3423 101.963 76.4139 102.521C76.6528 102.585 76.8776 102.401 76.8776 102.153V98.7282C76.8776 98.5559 76.7652 98.4051 76.6026 98.3481C74.9162 97.7563 72.0108 96.0417 70.8292 94.0476ZM85.5609 95.8037C87.356 94.0086 87.0243 90.4379 87.0243 88.4866L89.8535 88.7793C90.1136 89.9175 90.634 93.4037 89.4633 97.072C88.338 100.598 83.3378 102.663 80.5254 102.819C80.3343 102.829 80.1724 102.689 80.1417 102.5L79.5734 99.009C79.5392 98.7998 79.6777 98.6023 79.885 98.5586C81.4754 98.222 83.9015 97.463 85.5609 95.8037Z" fill="#09090C"/>
<path d="M74.8292 100.584C75.2063 100.584 75.5121 100.278 75.5121 99.9012C75.5121 99.524 75.2063 99.2183 74.8292 99.2183C74.452 99.2183 74.1462 99.524 74.1462 99.9012C74.1462 100.278 74.452 100.584 74.8292 100.584Z" fill="#C4C4C4"/>
<path d="M82.4388 101.17C82.9238 101.17 83.3169 100.777 83.3169 100.292C83.3169 99.8067 82.9238 99.4136 82.4388 99.4136C81.9539 99.4136 81.5608 99.8067 81.5608 100.292C81.5608 100.777 81.9539 101.17 82.4388 101.17Z" fill="#C4C4C4"/>
<path d="M74.634 100.389C74.9035 100.389 75.1218 100.171 75.1218 99.9014C75.1218 99.632 74.9035 99.4136 74.634 99.4136C74.3646 99.4136 74.1462 99.632 74.1462 99.9014C74.1462 100.171 74.3646 100.389 74.634 100.389Z" fill="#ECECEC"/>
<path opacity="0.5" d="M108.074 62.9867C112.384 62.9867 115.879 59.4922 115.879 55.1818C115.879 50.8712 112.384 47.377 108.074 47.377C103.763 47.377 100.269 50.8712 100.269 55.1818C100.269 59.4922 103.763 62.9867 108.074 62.9867ZM49.5373 62.9867C45.2269 62.9867 41.7324 59.4922 41.7324 55.1818C41.7324 50.8712 45.2269 47.377 49.5373 47.377C53.8477 47.377 57.3422 50.8712 57.3422 55.1818C57.3422 59.4922 53.8477 62.9867 49.5373 62.9867Z" fill="#C99584"/>
<path d="M49.3657 35.7071C49.3657 19.4888 62.5132 6.34131 78.7315 6.34131C94.9498 6.34131 108.097 19.4888 108.097 35.7071V47.3168L107.287 59.9287C106.922 65.6093 105.223 71.1911 101.429 75.4342C96.4007 81.0568 88.2445 88.0972 78.9266 88.0972C69.4708 88.0972 61.2115 80.8471 56.2034 75.1856C52.5714 71.0799 50.8863 65.7328 50.4352 60.2698L49.3657 47.3168V35.7071Z" fill="#F4D5CC"/>
<path fill-rule="evenodd" clip-rule="evenodd" d="M68.6592 66.1116V69.5814C68.6592 74.9231 72.9895 79.2516 78.3292 79.2516C83.6707 79.2516 87.9992 74.9231 87.9992 69.5814V66.1116H68.6592Z" fill="#393939"/>
<mask id="mask2_910_19850" style="mask-type:alpha" maskUnits="userSpaceOnUse" x="68" y="66" width="20" height="14">
<path d="M68.675 66.1079C68.6644 66.2866 68.6592 66.4671 68.6592 66.6478V70.0277C68.6592 75.1225 72.9895 79.2513 78.3292 79.2513C83.6707 79.2513 87.9992 75.1225 87.9992 70.0277V66.6478C87.9992 66.4671 87.994 66.2866 87.9834 66.1079H68.675Z" fill="white"/>
</mask>
<g mask="url(#mask2_910_19850)">
<path d="M78.3291 82.3519C81.55 82.3519 84.1609 80.9308 84.1609 79.1777C84.1609 77.4247 81.55 76.0034 78.3291 76.0034C75.1082 76.0034 72.4973 77.4247 72.4973 79.1777C72.4973 80.9308 75.1082 82.3519 78.3291 82.3519Z" fill="#FF6C6C"/>
</g>
<path d="M87.9998 66.1116H68.6592V70.0979H87.9998V66.1116Z" fill="white"/>
<path d="M47.6096 32.5845C47.6098 25.0724 48.1376 23.0236 50.1462 21.6577C52.1548 20.2919 59.8047 17.7553 56.2925 20.487C52.7803 23.2187 52.4102 29.1299 52.4102 29.1299L50.6182 50.6493C50.5874 51.0071 50.3156 51.2789 49.9913 51.2789C49.6523 51.2789 49.3753 50.9851 49.3606 50.6132C49.3606 50.6132 47.6094 40.0967 47.6096 32.5845ZM109.17 30.7311C109.17 22.9518 107.902 16.0387 102.146 13.658C96.39 11.2772 95.7071 17.7555 98.7314 18.8287C101.756 19.9018 102.648 22.0657 103.122 24.7799C103.596 27.494 106.391 49.5363 106.391 49.5363C106.422 49.8942 106.694 50.166 107.018 50.166C107.357 50.166 107.634 49.8721 107.649 49.5002C107.649 49.5002 109.17 38.5106 109.17 30.7311Z" fill="black"/>
<path d="M81.2554 21.4207C78.785 22.2166 61.463 20.585 60.17 20.6628C59.6781 20.6923 56.0972 20.1397 54.146 23.024C52.195 25.9085 49.4644 21.9508 50.7316 17.6581C51.9987 13.3655 52.0654 12.3216 54.8293 8.87773C57.593 5.43384 62.146 2.63383 69.0728 1.07285C75.9996 -0.488118 86.4618 -1.62259 95.4144 7.31676C101.374 13.268 101.561 13.2679 99.9022 17.6581C98.2436 22.0484 81.2554 21.4207 81.2554 21.4207Z" fill="black"/>
<path opacity="0.3" d="M97.171 19.9018C103.122 18.2433 95.1216 8.97491 91.9021 6.53587C87.6095 3.51151 83.4522 0.900702 76.9753 3.90177C86.4229 10.577 86.0491 11.609 87.4143 14.731C89.149 18.6975 87.6975 20.9853 86.3911 21.3974C86.2477 21.4068 86.1355 21.4261 86.0491 21.4628C86.1603 21.4557 86.2752 21.4339 86.3911 21.3974C87.4641 21.3275 90.2863 21.8204 97.171 19.9018Z" fill="#C4C4C4"/>
<path opacity="0.3" d="M84.9749 15.2193C84.3165 11.0391 78.74 7.0007 74.7166 5.41138C83.7124 11.5703 83.1255 15.0371 81.9509 21.3657C85.2683 21.3657 85.9261 21.2572 84.9749 15.2193Z" fill="#C4C4C4"/>
<path d="M98.4624 37.5608C99.4323 37.5608 100.219 38.347 100.219 39.3169C100.219 40.2694 99.4601 41.0448 98.5142 41.0722L98.4624 41.073H87.3405C86.3706 41.073 85.5844 40.2867 85.5844 39.3169C85.5844 38.3643 86.3428 37.5889 87.2887 37.5615L87.3405 37.5608H98.4624ZM69.3893 37.5608C70.3592 37.5608 71.1454 38.347 71.1454 39.3169C71.1454 40.2694 70.387 41.0448 69.4411 41.0722L69.3893 41.073H58.1462C57.1764 41.073 56.3901 40.2867 56.3901 39.3169C56.3901 38.3643 57.1485 37.5889 58.0945 37.5615L58.1462 37.5608H69.3893Z" fill="#393939"/>
<path d="M77.4256 52.3108L80.1855 54.1508C79.2475 55.5578 78.5129 57.6699 78.5129 59.2064C78.5129 60.6879 79.0479 61.3107 80.6859 61.3279L80.7568 61.3283V64.6454C77.1386 64.6454 75.1958 62.4597 75.1958 59.2064C75.1958 57.0025 76.1127 54.3271 77.3574 52.4144L77.4256 52.3108Z" fill="#EBBAAA"/>
<path d="M90.9266 43.4143C92.1998 43.4143 93.2357 44.4306 93.2673 45.6963L93.268 45.7558V49.0728C93.268 50.366 92.2197 51.4143 90.9266 51.4143C89.6533 51.4143 88.6174 50.398 88.5858 49.1323L88.5851 49.0728V45.7558C88.5851 44.4626 89.6334 43.4143 90.9266 43.4143ZM66.6339 43.4143C67.9072 43.4143 68.9431 44.4306 68.9747 45.6963L68.9754 45.7558V49.0728C68.9754 50.366 67.9271 51.4143 66.6339 51.4143C65.3607 51.4143 64.3248 50.398 64.2932 49.1323L64.2925 49.0728V45.7558C64.2925 44.4626 65.3408 43.4143 66.6339 43.4143Z" fill="black"/>
</g>
<defs>
<clipPath id="clip0_910_19850">
<rect width="160" height="100.683" fill="white"/>
</clipPath>
</defs>
</svg>
