<svg width="160" height="184" viewBox="0 0 160 184" fill="none" xmlns="http://www.w3.org/2000/svg">
<circle cx="81.9508" cy="101.463" r="78.0484" fill="#2F7F84"/>
<circle cx="78.0484" cy="105.365" r="78.0484" fill="#E2D3BD"/>
<mask id="mask0_910_17584" style="mask-type:alpha" maskUnits="userSpaceOnUse" x="0" y="27" width="157" height="157">
<circle cx="78.0484" cy="105.365" r="78.0484" fill="#D9D9D9"/>
</mask>
<g mask="url(#mask0_910_17584)">
<path d="M78.124 197.463C90.5165 197.463 100.563 192.876 100.563 187.219C100.563 181.561 90.5165 176.975 78.124 176.975C65.7313 176.975 55.6851 181.561 55.6851 187.219C55.6851 192.876 65.7313 197.463 78.124 197.463Z" fill="#E2D3BD"/>
<path d="M77.9287 163.707H103.294V254.633H84.9197L77.9287 163.707Z" fill="#E2D3BD"/>
<path d="M78.3191 163.707H52.9534V254.633H71.3283L78.3191 163.707Z" fill="#E2D3BD"/>
<path d="M93.1771 123.937C96.8598 130.465 100.413 140.765 102.652 151.133L102.769 151.679C103.766 156.396 104.42 160.828 104.664 164.496C104.786 166.337 104.801 167.938 104.714 169.233C104.678 169.777 104.625 170.251 104.558 170.646L104.543 170.736C104.491 171.028 104.437 171.24 104.396 171.361L104.388 171.386C103.025 175.133 104.958 179.275 108.705 180.638C112.452 182.001 116.595 180.067 117.957 176.32C120.074 170.501 119.393 160.251 116.766 148.085C114.244 136.408 110.235 124.788 105.753 116.843C103.794 113.37 99.3908 112.143 95.9181 114.102C92.4453 116.061 91.2181 120.464 93.1771 123.937ZM48.8476 116.843C44.3654 124.788 40.3568 136.408 37.8349 148.085C35.2075 160.251 34.5272 170.501 36.6435 176.32C38.0061 180.067 42.1483 182.001 45.8955 180.638C49.6052 179.289 51.5368 175.216 50.253 171.498L50.2131 171.386C50.1737 171.277 50.1213 171.077 50.0692 170.797L50.058 170.736C49.9844 170.324 49.9254 169.819 49.8862 169.233C49.7995 167.938 49.8146 166.337 49.9368 164.496C50.1849 160.758 50.8603 156.225 51.8898 151.406L51.9485 151.133C54.1877 140.765 57.7409 130.465 61.4236 123.937C63.3826 120.464 62.1555 116.061 58.6827 114.102C55.2099 112.143 50.8066 113.37 48.8476 116.843Z" fill="#EBBAAA"/>
<path d="M69.9327 116.07C71.3147 108.232 66.0812 100.758 58.2432 99.3757C50.4052 97.9937 42.9309 103.227 41.5489 111.065L34.3681 151.789C32.9861 159.627 38.2196 167.101 46.0576 168.484C53.8956 169.866 61.3699 164.632 62.752 156.794L69.9327 116.07Z" fill="#216F74"/>
<path d="M84.724 116.07C83.342 108.232 88.5756 100.758 96.4135 99.3757C104.252 97.9937 111.726 103.227 113.108 111.065L120.289 151.789C121.671 159.627 116.437 167.101 108.599 168.484C100.761 169.866 93.2868 164.632 91.9048 156.794L84.724 116.07Z" fill="#216F74"/>
<path d="M34.4558 170.926C33.2071 167.336 34.0264 150.048 35.5873 144.195L56.6996 147.902C54.319 155.316 53.9287 165.073 52.1726 174.633L52.1428 174.635C48.0167 174.831 36.013 175.403 34.4558 170.926ZM119.88 171.902C121.128 168.312 121.441 155.707 119.88 149.853L97.6358 148.877C100.017 156.292 100.407 166.048 102.163 175.609L102.193 175.61C106.319 175.807 118.322 176.379 119.88 171.902Z" fill="#216F74"/>
<path d="M49.5332 107.115C49.285 102.195 52.888 97.9027 57.8375 97.2212L78.0488 94.4387L98.2602 97.2212C103.21 97.9027 106.813 102.195 106.564 107.115L105.073 136.673L106.925 183.779C106.968 184.858 106.092 185.755 104.996 185.755H51.1012C50.0058 185.755 49.1299 184.858 49.1724 183.779L51.0249 136.673L49.5332 107.115Z" fill="white"/>
<path d="M110.657 110.257C111.031 104.868 107.669 99.9221 102.52 98.2876L90.6396 94.5159C88.4171 93.8105 86.0248 94.9243 85.134 97.0792L80.6605 107.902L78.1239 121.561V179.122L83.1971 183.219H109.028C110.221 183.219 111.135 182.158 110.958 180.978L107.392 157.268L110.657 110.257ZM46.0489 112.639C45.4553 103.2 52.95 95.2195 62.4067 95.2195H66.7068C68.437 95.2195 70.0129 96.2138 70.7575 97.7754L75.5874 107.902L78.1239 121.561V179.122L73.0508 183.219H47.2199C46.0267 183.219 45.113 182.158 45.2904 180.978L48.8558 157.268L46.0489 112.639Z" fill="#2F7F84"/>
<path d="M78.1237 141.853C78.878 141.853 79.4895 141.242 79.4895 140.487C79.4895 139.733 78.878 139.122 78.1237 139.122C77.3693 139.122 76.7578 139.733 76.7578 140.487C76.7578 141.242 77.3693 141.853 78.1237 141.853Z" fill="white"/>
<path d="M77.9286 153.756C78.6829 153.756 79.2944 153.144 79.2944 152.39C79.2944 151.635 78.6829 151.024 77.9286 151.024C77.1743 151.024 76.5627 151.635 76.5627 152.39C76.5627 153.144 77.1743 153.756 77.9286 153.756Z" fill="white"/>
<path d="M78.1237 165.073C78.878 165.073 79.4895 164.461 79.4895 163.707C79.4895 162.952 78.878 162.341 78.1237 162.341C77.3693 162.341 76.7578 162.952 76.7578 163.707C76.7578 164.461 77.3693 165.073 78.1237 165.073Z" fill="white"/>
<path d="M78.1237 130.731C78.878 130.731 79.4895 130.12 79.4895 129.365C79.4895 128.611 78.878 128 78.1237 128C77.3693 128 76.7578 128.611 76.7578 129.365C76.7578 130.12 77.3693 130.731 78.1237 130.731Z" fill="white"/>
<path d="M78.1409 84.8779H78.1062C74.0208 84.8779 70.709 88.1898 70.709 92.2752V99.9196C70.709 104.005 74.0208 107.317 78.1062 107.317H78.1409C82.2263 107.317 85.5382 104.005 85.5382 99.9196V92.2752C85.5382 88.1898 82.2263 84.8779 78.1409 84.8779Z" fill="#EBBAAA"/>
<path d="M80.075 106.341L85.3432 90.9268L92.5627 95.0243L88.0749 111.61L80.075 106.341Z" fill="#216F74"/>
<path d="M76.1723 106.341L70.904 90.9268L63.6846 95.0243L68.1724 111.61L76.1723 106.341Z" fill="#216F74"/>
<path d="M84.3679 126.439H103.88L101.929 144.604L94.124 148.878L86.3191 144.604L84.3679 126.439Z" fill="#216F74"/>
<path d="M105.929 68.2924C112.125 68.2924 117.148 63.2692 117.148 57.073C117.148 50.8767 112.125 45.8535 105.929 45.8535C99.7327 45.8535 94.7095 50.8767 94.7095 57.073C94.7095 63.2692 99.7327 68.2924 105.929 68.2924Z" fill="#EBBAAA"/>
<path d="M108.465 63.4143C111.968 63.4143 114.807 60.5751 114.807 57.0729C114.807 53.5707 111.968 50.7314 108.465 50.7314C104.963 50.7314 102.124 53.5707 102.124 57.0729C102.124 60.5751 104.963 63.4143 108.465 63.4143Z" fill="#FFFBFB"/>
<path d="M111.311 58.5993L111.311 58.5992C110.383 58.3504 109.428 58.9015 109.179 59.83L106.754 68.8814C106.505 69.81 107.056 70.7645 107.985 71.0133L107.985 71.0134C108.914 71.2622 109.868 70.7111 110.117 69.7825L112.542 60.7311C112.791 59.8025 112.24 58.8481 111.311 58.5993Z" fill="#E0E6ED"/>
<path d="M50.3196 68.2924C44.1232 68.2924 39.1001 63.2692 39.1001 57.073C39.1001 50.8767 44.1232 45.8535 50.3196 45.8535C56.5158 45.8535 61.539 50.8767 61.539 57.073C61.539 63.2692 56.5158 68.2924 50.3196 68.2924Z" fill="#EBBAAA"/>
<path d="M48.1732 63.4143C44.671 63.4143 41.8318 60.5751 41.8318 57.0729C41.8318 53.5707 44.671 50.7314 48.1732 50.7314C51.6754 50.7314 54.5147 53.5707 54.5147 57.0729C54.5147 60.5751 51.6754 63.4143 48.1732 63.4143Z" fill="#FFFBFB"/>
<path d="M44.9371 58.5993L44.9373 58.5992C45.8659 58.3504 46.8204 58.9015 47.0692 59.83L49.4945 68.8814C49.7433 69.81 49.1922 70.7645 48.2636 71.0133L48.2635 71.0134C47.3349 71.2622 46.3804 70.7111 46.1316 69.7825L43.7063 60.7311C43.4574 59.8025 44.0085 58.8481 44.9371 58.5993Z" fill="#E0E6ED"/>
<path d="M107.393 32.7804C107.393 16.616 94.2887 3.51221 78.1244 3.51221C61.96 3.51221 48.8562 16.616 48.8562 32.7804V65.9509C48.8562 82.1153 61.96 95.2191 78.1244 95.2191C94.2887 95.2191 107.393 82.1153 107.393 65.9509V32.7804Z" fill="#F4D5CC"/>
<path d="M81.8315 44.8779C81.8315 43.908 82.6177 43.1218 83.5876 43.1218H101.929C102.899 43.1218 103.685 43.908 103.685 44.8779V53.073C103.685 56.9525 100.54 60.0974 96.6607 60.0974H88.8559C84.9764 60.0974 81.8315 56.9525 81.8315 53.073V44.8779ZM84.173 45.4633V53.073C84.173 55.6594 86.2695 57.7559 88.8559 57.7559H96.6607C99.2471 57.7559 101.344 55.6594 101.344 53.073V45.4633H84.173Z" fill="#393939"/>
<path d="M83.0024 47.4143H73.2463V49.3655H83.0024V47.4143Z" fill="#393939"/>
<path d="M52.5633 44.8778C52.5633 43.9079 53.3495 43.1217 54.3194 43.1217H72.6608C73.6307 43.1217 74.4169 43.9079 74.4169 44.8778V53.0729C74.4169 56.9524 71.2721 60.0973 67.3925 60.0973H59.5877C55.7082 60.0973 52.5633 56.9524 52.5633 53.0729V44.8778ZM54.9048 45.4632V53.0729C54.9048 55.6593 57.0013 57.7558 59.5877 57.7558H67.3925C69.9789 57.7558 72.0754 55.6593 72.0754 53.0729V45.4632H54.9048ZM77.6932 19.8282C63.2679 19.8282 52.6039 19.8282 51.8393 30.3413C51.2006 39.1218 47.0496 35.7071 46.7097 27.0282C47.5271 4.71295 69.3225 0 78.317 0C85.6885 5.99841 92.1204 19.8282 77.6932 19.8282Z" fill="#393939"/>
<path d="M47.7752 29.6993C47.7264 28.5051 48.6806 27.512 49.8747 27.512C51.1138 27.512 52.0835 28.5773 51.9664 29.8105L49.9879 50.7021C49.9547 51.0514 49.662 51.3167 49.3128 51.3167C48.9479 51.3167 48.6494 51.0299 48.6338 50.667L47.7752 29.6993ZM108.169 29.6993C108.218 28.5051 107.264 27.512 106.07 27.512C104.831 27.512 103.861 28.5773 103.978 29.8105L105.956 50.7021C105.99 51.0514 106.282 51.3167 106.632 51.3167C106.996 51.3167 107.295 51.0299 107.311 50.667L108.169 29.6993Z" fill="#393939"/>
<path d="M78.002 19.8282C92.8667 19.8282 105.746 19.8282 106.359 30.5364C107.878 38.9344 109.51 36.2925 109.929 27.0282C109.088 4.71295 86.7151 0 77.4468 0C69.8508 5.99841 63.1355 19.8282 78.002 19.8282Z" fill="#393939"/>
<path d="M56.8302 27.1648C56.3184 20.3999 55.3233 17.3112 56.2805 14.6341L103.968 13.4607L109.539 31.1257L107.463 44.552C106.424 37.9979 103.968 26.0506 99.4639 22.6489C92.5055 17.3935 86.0525 22.2458 82.6195 26.0506C82.6195 21.3989 80.6254 21.5043 78.8681 20.5541C79.1241 24.9521 70.0368 26.7404 65.7262 26.7404C69.7667 24.9521 70.4229 21.6969 68.5064 20.1106C62.6116 20.5541 61.2224 21.2448 56.8302 27.1648Z" fill="#393939"/>
<path d="M87.9854 46.7133V52.1552C87.9854 53.4483 89.0337 54.4967 90.3269 54.4967C91.62 54.4967 92.6683 53.4483 92.6683 52.1552V46.7133C92.6683 45.4201 91.62 44.3718 90.3269 44.3718C89.0337 44.3718 87.9854 45.4201 87.9854 46.7133ZM63.5801 46.7133V52.1552C63.5801 53.4483 64.6284 54.4967 65.9215 54.4967C67.2147 54.4967 68.263 53.4483 68.263 52.1552V46.7133C68.263 45.4201 67.2147 44.3718 65.9215 44.3718C64.6284 44.3718 63.5801 45.4201 63.5801 46.7133Z" fill="black"/>
<path d="M88.1915 39.097L98.9817 40.2305C100.268 40.3656 101.42 39.4325 101.555 38.1465C101.69 36.8604 100.757 35.7083 99.4709 35.5732L88.6807 34.4398C87.3946 34.3047 86.2425 35.2377 86.1075 36.5238C85.9724 37.8099 86.9054 38.9619 88.1915 39.097ZM68.3477 34.4398L57.5575 35.5732C56.2714 35.7083 55.3384 36.8604 55.4735 38.1465C55.6085 39.4325 56.7606 40.3656 58.0467 40.2305L68.8369 39.097C70.123 38.9619 71.056 37.8099 70.9209 36.5238C70.7858 35.2377 69.6337 34.3047 68.3477 34.4398Z" fill="#393939"/>
<path d="M76.8469 55.7673C75.6932 57.8029 75.0205 60.0281 75.1074 61.8472C75.2272 64.3565 76.8071 66.0485 79.4605 66.0485V62.7315L79.3664 62.7303C78.6511 62.7123 78.4582 62.4752 78.4206 61.6889C78.3675 60.5765 78.8631 58.9372 79.7327 57.403L76.8469 55.7673Z" fill="#EBBAAA"/>
<path fill-rule="evenodd" clip-rule="evenodd" d="M67.3926 71.8086V75.672C67.3926 81.6193 72.214 86.4388 78.1594 86.4388C84.1066 86.4388 88.9261 81.6193 88.9261 75.672V71.8086H67.3926Z" fill="#393939"/>
<mask id="mask1_910_17584" style="mask-type:alpha" maskUnits="userSpaceOnUse" x="67" y="71" width="22" height="16">
<path d="M67.4101 71.8044C67.3984 72.0037 67.3926 72.2046 67.3926 72.4056V76.1687C67.3926 81.8415 72.214 86.4385 78.1594 86.4385C84.1066 86.4385 88.9261 81.8415 88.9261 76.1687V72.4056C88.9261 72.2046 88.9203 72.0037 88.9086 71.8044H67.4101Z" fill="white"/>
</mask>
<g mask="url(#mask1_910_17584)">
<path d="M78.1593 89.8907C81.7454 89.8907 84.6525 88.3083 84.6525 86.3565C84.6525 84.4045 81.7454 82.8223 78.1593 82.8223C74.5732 82.8223 71.6663 84.4045 71.6663 86.3565C71.6663 88.3083 74.5732 89.8907 78.1593 89.8907Z" fill="#FF6C6C"/>
</g>
<path d="M88.9267 71.8086H67.3926V76.247H88.9267V71.8086Z" fill="white"/>
</g>
<g clip-path="url(#clip0_910_17584)">
<path d="M69.9366 116.07C71.3187 108.232 66.0851 100.758 58.2471 99.3755C50.4091 97.9934 42.9348 103.227 41.5528 111.065L34.372 151.789C32.99 159.627 38.2235 167.101 46.0615 168.483C53.8995 169.865 61.3738 164.632 62.7559 156.794L69.9366 116.07Z" fill="#216F74"/>
<path d="M84.7277 116.07C83.3457 108.232 88.5792 100.758 96.4172 99.3755C104.255 97.9934 111.73 103.227 113.112 111.065L120.292 151.789C121.674 159.627 116.441 167.101 108.603 168.483C100.765 169.865 93.2905 164.632 91.9084 156.794L84.7277 116.07Z" fill="#216F74"/>
<path d="M49.5391 108.459C49.2875 103.623 52.9393 99.4042 57.9556 98.7344L78.4401 95.9995L98.9246 98.7344C103.941 99.4042 107.593 103.623 107.341 108.459L105.829 137.512L107.707 183.813C107.75 184.873 106.862 185.755 105.752 185.755H51.1283C50.0181 185.755 49.1304 184.873 49.1734 183.813L51.051 137.512L49.5391 108.459Z" fill="white"/>
<path d="M110.66 110.257C111.035 104.867 107.673 99.9216 102.524 98.2871L90.6432 94.5154C88.4208 93.81 86.0284 94.9238 85.1377 97.0787L80.6642 107.902L78.1276 121.56V179.121L83.2007 183.219H109.032C110.225 183.219 111.139 182.157 110.961 180.977L107.396 157.267L110.66 110.257ZM46.0526 112.638C45.459 103.2 52.9537 95.219 62.4104 95.219H66.7105C68.4406 95.219 70.0166 96.2133 70.7612 97.7749L75.591 107.902L78.1276 121.56V179.121L73.0544 183.219H47.2236C46.0304 183.219 45.1166 182.157 45.2941 180.977L48.8594 157.267L46.0526 112.638Z" fill="#2F7F84"/>
<path d="M78.1449 84.8777H78.1101C74.0247 84.8777 70.7129 88.1895 70.7129 92.2749V99.9194C70.7129 104.005 74.0247 107.317 78.1101 107.317H78.1449C82.2302 107.317 85.5421 104.005 85.5421 99.9194V92.2749C85.5421 88.1895 82.2302 84.8777 78.1449 84.8777Z" fill="#EBBAAA"/>
<path d="M80.0786 106.341L85.3469 90.9265L92.5664 95.0241L88.0786 111.609L80.0786 106.341Z" fill="#216F74"/>
<path d="M76.1762 106.341L70.908 90.9265L63.6885 95.0241L68.1763 111.609L76.1762 106.341Z" fill="#216F74"/>
<path d="M105.932 68.2924C112.129 68.2924 117.152 63.2692 117.152 57.073C117.152 50.8767 112.129 45.8535 105.932 45.8535C99.7361 45.8535 94.7129 50.8767 94.7129 57.073C94.7129 63.2692 99.7361 68.2924 105.932 68.2924Z" fill="#EBBAAA"/>
<path d="M108.469 63.4143C111.971 63.4143 114.811 60.5751 114.811 57.0729C114.811 53.5707 111.971 50.7314 108.469 50.7314C104.967 50.7314 102.128 53.5707 102.128 57.0729C102.128 60.5751 104.967 63.4143 108.469 63.4143Z" fill="#FFFBFB"/>
<path d="M111.315 58.5997L111.315 58.5997C110.386 58.3509 109.432 58.9019 109.183 59.8305L106.757 68.8819C106.509 69.8105 107.06 70.765 107.988 71.0138L107.988 71.0139C108.917 71.2627 109.872 70.7116 110.12 69.783L112.546 60.7316C112.795 59.803 112.243 58.8486 111.315 58.5997Z" fill="#E0E6ED"/>
<path d="M50.323 68.2924C44.1267 68.2924 39.1035 63.2692 39.1035 57.073C39.1035 50.8767 44.1267 45.8535 50.323 45.8535C56.5192 45.8535 61.5424 50.8767 61.5424 57.073C61.5424 63.2692 56.5192 68.2924 50.323 68.2924Z" fill="#EBBAAA"/>
<path d="M48.1766 63.4143C44.6744 63.4143 41.8352 60.5751 41.8352 57.0729C41.8352 53.5707 44.6744 50.7314 48.1766 50.7314C51.6789 50.7314 54.5181 53.5707 54.5181 57.0729C54.5181 60.5751 51.6789 63.4143 48.1766 63.4143Z" fill="#FFFBFB"/>
<path d="M44.9405 58.5997L44.9407 58.5997C45.8693 58.3509 46.8238 58.9019 47.0726 59.8305L49.4979 68.8819C49.7467 69.8105 49.1957 70.765 48.2671 71.0138L48.2669 71.0139C47.3383 71.2627 46.3838 70.7116 46.135 69.783L43.7097 60.7316C43.4609 59.803 44.0119 58.8486 44.9405 58.5997Z" fill="#E0E6ED"/>
<path d="M107.396 32.7804C107.396 16.616 94.2921 3.51221 78.1278 3.51221C61.9634 3.51221 48.8596 16.616 48.8596 32.7804V65.9509C48.8596 82.1153 61.9634 95.2191 78.1278 95.2191C94.2921 95.2191 107.396 82.1153 107.396 65.9509V32.7804Z" fill="#F4D5CC"/>
<path d="M81.835 44.8779C81.835 43.908 82.6212 43.1218 83.5911 43.1218H101.932C102.902 43.1218 103.689 43.908 103.689 44.8779V53.073C103.689 56.9525 100.544 60.0974 96.6642 60.0974H88.8593C84.9798 60.0974 81.835 56.9525 81.835 53.073V44.8779ZM84.1764 45.4633V53.073C84.1764 55.6594 86.2729 57.7559 88.8593 57.7559H96.6642C99.2505 57.7559 101.347 55.6594 101.347 53.073V45.4633H84.1764Z" fill="#393939"/>
<path d="M83.0058 47.4143H73.2498V49.3655H83.0058V47.4143Z" fill="#393939"/>
<path d="M52.5668 44.8778C52.5668 43.9079 53.353 43.1217 54.3229 43.1217H72.6642C73.6341 43.1217 74.4203 43.9079 74.4203 44.8778V53.0729C74.4203 56.9524 71.2755 60.0973 67.396 60.0973H59.5911C55.7116 60.0973 52.5668 56.9524 52.5668 53.0729V44.8778ZM54.9082 45.4632V53.0729C54.9082 55.6593 57.0047 57.7558 59.5911 57.7558H67.396C69.9823 57.7558 72.0789 55.6593 72.0789 53.0729V45.4632H54.9082ZM77.6966 19.8282C63.2713 19.8282 52.6074 19.8282 51.8427 30.3413C51.204 39.1218 47.053 35.7071 46.7131 27.0282C47.5305 4.71295 69.3259 0 78.3204 0C85.6919 5.99841 92.1238 19.8282 77.6966 19.8282Z" fill="#393939"/>
<path d="M47.7786 29.6993C47.7299 28.5051 48.684 27.512 49.8781 27.512C51.1172 27.512 52.0869 28.5773 51.9699 29.8105L49.9913 50.7021C49.9581 51.0514 49.6655 51.3167 49.3162 51.3167C48.9513 51.3167 48.6528 51.0299 48.6372 50.667L47.7786 29.6993ZM108.173 29.6993C108.221 28.5051 107.267 27.512 106.073 27.512C104.834 27.512 103.864 28.5773 103.981 29.8105L105.96 50.7021C105.993 51.0514 106.286 51.3167 106.635 51.3167C107 51.3167 107.298 51.0299 107.314 50.667L108.173 29.6993Z" fill="#393939"/>
<path d="M78.0056 19.8282C92.8703 19.8282 105.749 19.8282 106.362 30.5364C107.882 38.9345 109.514 36.2925 109.933 27.0282C109.092 4.71295 86.7188 0 77.4505 0C69.8544 5.99841 63.1392 19.8282 78.0056 19.8282Z" fill="#393939"/>
<path d="M56.8339 27.1643C56.3221 20.3994 55.3269 17.3107 56.2842 14.6336L103.972 13.4602L109.542 31.1252L107.467 44.5515C106.428 37.9974 103.972 26.0501 99.4676 22.6484C92.5092 17.393 86.0562 22.2453 82.6232 26.0501C82.6232 21.3984 80.6291 21.5038 78.8718 20.5536C79.1278 24.9516 70.0404 26.7399 65.7298 26.7399C69.7704 24.9516 70.4266 21.6964 68.5101 20.1101C62.6153 20.5536 61.226 21.2443 56.8339 27.1643Z" fill="#393939"/>
<path d="M87.9888 46.713V52.155C87.9888 53.4481 89.0371 54.4964 90.3303 54.4964C91.6234 54.4964 92.6717 53.4481 92.6717 52.155V46.713C92.6717 45.4199 91.6234 44.3716 90.3303 44.3716C89.0371 44.3716 87.9888 45.4199 87.9888 46.713ZM63.5835 46.713V52.155C63.5835 53.4481 64.6318 54.4964 65.9249 54.4964C67.2181 54.4964 68.2664 53.4481 68.2664 52.155V46.713C68.2664 45.4199 67.2181 44.3716 65.9249 44.3716C64.6318 44.3716 63.5835 45.4199 63.5835 46.713Z" fill="black"/>
<path d="M88.1949 39.0968L98.9851 40.2303C100.271 40.3653 101.423 39.4323 101.558 38.1462C101.693 36.8602 100.76 35.7081 99.4743 35.573L88.6841 34.4395C87.398 34.3044 86.246 35.2375 86.1109 36.5235C85.9758 37.8096 86.9088 38.9617 88.1949 39.0968ZM68.3511 34.4395L57.5609 35.573C56.2748 35.7081 55.3418 36.8602 55.4769 38.1462C55.612 39.4323 56.764 40.3653 58.0501 40.2303L68.8403 39.0968C70.1264 38.9617 71.0594 37.8096 70.9243 36.5235C70.7892 35.2375 69.6372 34.3044 68.3511 34.4395Z" fill="#393939"/>
<path d="M76.8506 55.7673C75.6969 57.8029 75.0241 60.0281 75.111 61.8472C75.2309 64.3565 76.8108 66.0485 79.4642 66.0485V62.7315L79.37 62.7303C78.6548 62.7123 78.4619 62.4752 78.4243 61.6889C78.3712 60.5765 78.8667 58.9372 79.7364 57.403L76.8506 55.7673Z" fill="#EBBAAA"/>
<path fill-rule="evenodd" clip-rule="evenodd" d="M67.396 71.8083V75.6717C67.396 81.619 72.2174 86.4385 78.1628 86.4385C84.1101 86.4385 88.9296 81.619 88.9296 75.6717V71.8083H67.396Z" fill="#393939"/>
<mask id="mask2_910_17584" style="mask-type:alpha" maskUnits="userSpaceOnUse" x="67" y="71" width="22" height="16">
<path d="M67.4136 71.8044C67.4018 72.0037 67.396 72.2046 67.396 72.4056V76.1687C67.396 81.8415 72.2174 86.4385 78.1628 86.4385C84.1101 86.4385 88.9296 81.8415 88.9296 76.1687V72.4056C88.9296 72.2046 88.9237 72.0037 88.912 71.8044H67.4136Z" fill="white"/>
</mask>
<g mask="url(#mask2_910_17584)">
<path d="M78.1627 89.8912C81.7488 89.8912 84.656 88.3088 84.656 86.357C84.656 84.405 81.7488 82.8228 78.1627 82.8228C74.5766 82.8228 71.6697 84.405 71.6697 86.357C71.6697 88.3088 74.5766 89.8912 78.1627 89.8912Z" fill="#FF6C6C"/>
</g>
<path d="M88.9301 71.8083H67.396V76.2468H88.9301V71.8083Z" fill="white"/>
</g>
<defs>
<clipPath id="clip0_910_17584">
<rect width="159.999" height="106.926" fill="white" transform="translate(0.000976562)"/>
</clipPath>
</defs>
</svg>
