<svg width="160" height="184" viewBox="0 0 160 184" fill="none" xmlns="http://www.w3.org/2000/svg">
<circle cx="81.9508" cy="101.462" r="78.0484" fill="#343844"/>
<circle cx="78.0484" cy="105.365" r="78.0484" fill="#6686B7"/>
<mask id="mask0_910_19366" style="mask-type:alpha" maskUnits="userSpaceOnUse" x="0" y="27" width="157" height="157">
<circle cx="78.0484" cy="105.365" r="78.0484" fill="#D9D9D9"/>
</mask>
<g mask="url(#mask0_910_19366)">
<path d="M80.9757 173.417H52.6831L57.5611 238.587L59.6519 249.319H72.9201L74.1464 240.539L80.9757 173.417Z" fill="#35383E"/>
<path d="M80.0002 193.95C92.3929 193.95 102.439 189.363 102.439 183.706C102.439 178.048 92.3929 173.462 80.0002 173.462C67.6075 173.462 57.5613 178.048 57.5613 183.706C57.5613 189.363 67.6075 193.95 80.0002 193.95Z" fill="#35383E"/>
<path d="M79.0244 173.417H107.317L102.439 238.588L100.348 249.319H87.08L85.8536 240.539L79.0244 173.417Z" fill="#35383E"/>
<path d="M114.374 97.7483C111.492 91.4615 107.348 89.7554 107.348 89.7554L104.78 124.302V176.389C132.831 167.669 129.009 129.666 114.374 97.7483ZM45.6254 97.7483C48.5078 91.4615 52.6516 89.7554 52.6516 89.7554L55.2195 124.302V176.389C27.1686 167.669 30.9912 129.666 45.6254 97.7483Z" fill="#454B5E"/>
<path d="M80 97.5602C92.3927 97.5602 102.439 92.9739 102.439 87.3164C102.439 81.6588 92.3927 77.0725 80 77.0725C67.6072 77.0725 57.561 81.6588 57.561 87.3164C57.561 92.9739 67.6072 97.5602 80 97.5602Z" fill="#35383E"/>
<path d="M80 109.658C92.3927 109.658 102.439 105.071 102.439 99.4138C102.439 93.7562 92.3927 89.1699 80 89.1699C67.6072 89.1699 57.561 93.7562 57.561 99.4138C57.561 105.071 67.6072 109.658 80 109.658Z" fill="white"/>
<path d="M80 185.169C92.3927 185.169 102.439 180.059 102.439 173.755C102.439 167.451 92.3927 162.34 80 162.34C67.6072 162.34 57.561 167.451 57.561 173.755C57.561 180.059 67.6072 185.169 80 185.169Z" fill="#6686B7"/>
<path d="M52.9843 159.954H109.569L110.316 166.967C110.438 168.119 109.534 169.124 108.375 169.124H54.1784C53.0192 169.124 52.1156 168.119 52.2382 166.967L52.9843 159.954Z" fill="#B2BDC0"/>
<path d="M86.8291 79.0236C86.8291 75.2519 83.7716 72.1943 79.9999 72.1943C76.2282 72.1943 73.1707 75.2519 73.1707 79.0236V87.804C73.1707 91.5757 76.2282 94.6333 79.9999 94.6333C83.7716 94.6333 86.8291 91.5757 86.8291 87.804V79.0236Z" fill="#EBBAAA"/>
<path d="M46.9447 124.528C46.9447 121.809 41.3046 101.09 52.5848 89.761L71.5428 84.0967C69.9992 87.2089 72.2279 96.402 79.2294 98.9411C86.231 101.48 78.4515 138.474 80.3965 151.092C82.6694 165.839 83.6983 175.019 79.2294 179.414C74.7606 183.808 55.7862 175.871 46.9447 169.452C42.295 166.077 46.9447 133.865 46.9447 124.528Z" fill="#343844"/>
<path d="M113.055 124.528C113.055 121.809 118.695 101.09 107.415 89.761L88.457 84.0967C90.0006 87.2089 87.7719 96.402 80.7704 98.9411C73.7689 101.48 81.5484 138.474 79.6034 151.092C77.3304 165.839 76.3015 175.019 80.7704 179.414C85.2393 183.808 104.214 175.871 113.055 169.452C117.705 166.077 113.055 133.865 113.055 124.528Z" fill="#343844"/>
<path d="M81.3419 114.098C80.2774 114.098 79.4145 113.235 79.4145 112.17C79.4145 111.106 80.2774 110.243 81.3419 110.243C82.4064 110.243 83.2693 111.106 83.2693 112.17C83.2693 113.235 82.4064 114.098 81.3419 114.098Z" fill="#454B5D"/>
<path d="M82.3175 141.805C81.253 141.805 80.3901 140.942 80.3901 139.878C80.3901 138.813 81.253 137.95 82.3175 137.95C83.3819 137.95 84.2449 138.813 84.2449 139.878C84.2449 140.942 83.3819 141.805 82.3175 141.805Z" fill="#454B5D"/>
<path d="M82.6529 127.951C81.5884 127.951 80.7255 127.088 80.7255 126.024C80.7255 124.959 81.5884 124.096 82.6529 124.096C83.7174 124.096 84.5803 124.959 84.5803 126.024C84.5803 127.088 83.7174 127.951 82.6529 127.951Z" fill="#454B5D"/>
<path d="M82.9029 155.659C81.8384 155.659 80.9755 154.796 80.9755 153.731C80.9755 152.667 81.8384 151.804 82.9029 151.804C83.9674 151.804 84.8303 152.667 84.8303 153.731C84.8303 154.796 83.9674 155.659 82.9029 155.659Z" fill="#454B5D"/>
<path d="M81.9273 169.122C80.8629 169.122 79.9999 168.259 79.9999 167.194C79.9999 166.13 80.8629 165.267 81.9273 165.267C82.9918 165.267 83.8547 166.13 83.8547 167.194C83.8547 168.259 82.9918 169.122 81.9273 169.122Z" fill="#454B5D"/>
<path d="M79.9999 94.6332C72.6829 90.3406 73.1707 84.0967 73.1707 84.0967C66.6591 90.2627 66.3654 96.9856 70.7886 104.703C71.6097 95.3161 79.9999 94.6332 79.9999 94.6332ZM79.9999 94.6332C87.3169 90.3406 86.8291 84.0967 86.8291 84.0967C93.3407 90.2627 93.6344 96.9856 89.2112 104.703C88.3901 95.3161 79.9999 94.6332 79.9999 94.6332Z" fill="#6686B7"/>
<path d="M109.269 59.9017C113.579 59.9017 117.073 56.4073 117.073 52.0968C117.073 47.7864 113.579 44.292 109.269 44.292C104.958 44.292 101.464 47.7864 101.464 52.0968C101.464 56.4073 104.958 59.9017 109.269 59.9017ZM50.7323 59.9017C46.4218 59.9017 42.9275 56.4073 42.9275 52.0968C42.9275 47.7864 46.4218 44.292 50.7323 44.292C55.0427 44.292 58.5372 47.7864 58.5372 52.0968C58.5372 56.4073 55.0427 59.9017 50.7323 59.9017Z" fill="#EBBAAA"/>
<path d="M50.7322 33.9508C50.7322 17.7864 63.8359 4.68262 80.0003 4.68262C96.1647 4.68262 109.268 17.7864 109.268 33.9508V48.8541L107.794 62.736C106.537 74.5769 95.4165 82.8344 83.7053 80.6807C81.2624 80.2315 78.7484 80.2368 76.3083 80.6998C64.9255 82.8594 54.0762 74.982 52.6053 63.4899L50.7322 48.8541V33.9508Z" fill="#F4D5CC"/>
<path fill-rule="evenodd" clip-rule="evenodd" d="M87.4413 61.1902V63.8957C87.4413 68.0518 84.0721 71.4212 79.9159 71.4212C75.7598 71.4212 72.3906 68.0518 72.3906 63.8957V61.1902H87.4413Z" fill="#393939"/>
<mask id="mask1_910_19366" style="mask-type:alpha" maskUnits="userSpaceOnUse" x="72" y="59" width="16" height="13">
<path d="M87.3418 59.9019C87.4071 60.3011 87.4413 60.7108 87.4413 61.1286V63.896C87.4413 68.0521 84.0721 71.4212 79.9159 71.4212C75.7598 71.4212 72.3906 68.0521 72.3906 63.896V61.1286C72.3906 60.7108 72.4246 60.3011 72.4901 59.9019H87.3418Z" fill="white"/>
</mask>
<g mask="url(#mask1_910_19366)">
<path d="M79.5144 74.0692C77.008 74.0692 74.9762 72.9626 74.9762 71.5976C74.9762 70.2325 77.008 69.126 79.5144 69.126C82.0207 69.126 84.0525 70.2325 84.0525 71.5976C84.0525 72.9626 82.0207 74.0692 79.5144 74.0692Z" fill="#FF6C6C"/>
<path d="M72.3905 60.8H87.4412V63.9038H72.3905V60.8Z" fill="white"/>
</g>
<path d="M86.6379 33.9871C86.6996 32.9295 87.5926 32.1179 88.6448 32.1504L88.6994 32.1528L100.407 32.8357C101.482 32.8985 102.304 33.8214 102.241 34.8972C102.179 35.9548 101.286 36.7664 100.234 36.7339L100.179 36.7315L88.4721 36.0486C87.3964 35.9858 86.5751 35.0629 86.6379 33.9871ZM71.3015 32.1528C72.3773 32.09 73.3003 32.9113 73.363 33.9871C73.4247 35.0446 72.6321 35.9545 71.5832 36.0447L71.5287 36.0486L59.8215 36.7315C58.7457 36.7943 57.8227 35.973 57.76 34.8972C57.6983 33.8397 58.4909 32.9298 59.5398 32.8396L59.5942 32.8357L71.3015 32.1528Z" fill="#393939"/>
<path d="M92.293 40.9751C93.5663 40.9751 94.6021 41.9914 94.6337 43.257L94.6345 43.3165V45.8531C94.6345 47.1463 93.5862 48.1946 92.293 48.1946C91.0198 48.1946 89.9839 47.1783 89.9523 45.9126L89.9516 45.8531V43.3165C89.9516 42.0234 90.9999 40.9751 92.293 40.9751ZM67.8053 40.9751C69.0786 40.9751 70.1145 41.9914 70.146 43.257L70.1468 43.3165V45.8531C70.1468 47.1463 69.0985 48.1946 67.8053 48.1946C66.5321 48.1946 65.4962 47.1783 65.4646 45.9126L65.4639 45.8531V43.3165C65.4639 42.0234 66.5122 40.9751 67.8053 40.9751Z" fill="black"/>
<path d="M102.83 40.1946H84.4882C83.7338 40.1946 83.1223 40.8061 83.1223 41.5604V47.0238C83.1223 49.0712 84.7822 50.7311 86.8296 50.7311H100.488C102.536 50.7311 104.195 49.0712 104.195 47.0238V41.5604C104.195 40.8061 103.584 40.1946 102.83 40.1946ZM84.6833 41.7555H102.634V47.0238C102.634 48.2091 101.673 49.1701 100.488 49.1701H86.8296L86.7733 49.1694C85.614 49.1396 84.6833 48.1903 84.6833 47.0238V41.7555Z" fill="#393939"/>
<path d="M83.9027 42.5359H76.0979V44.0969H83.9027V42.5359Z" fill="#393939"/>
<path d="M75.5126 40.1946H57.1713C56.4169 40.1946 55.8054 40.8061 55.8054 41.5604V46.8287C55.8054 48.8761 57.4653 50.536 59.5127 50.536H73.1712C75.2186 50.536 76.8785 48.8761 76.8785 46.8287V41.5604C76.8785 40.8061 76.267 40.1946 75.5126 40.1946ZM57.3664 41.7555H75.3175V46.8287C75.3175 48.014 74.3565 48.975 73.1712 48.975H59.5127L59.4564 48.9743C58.2971 48.9445 57.3664 47.9952 57.3664 46.8287V41.7555Z" fill="#393939"/>
<path d="M110.243 26.1525C110.364 15.1599 100.697 11.5582 102.408 13.6302C104.119 15.7022 100.066 20.8372 102.408 22.4589C104.75 24.0805 102.138 29.3058 103.399 31.2877C104.66 33.2697 106.672 32.8192 107.812 36.6931C108.951 40.5669 107.992 48.1087 107.992 48.1087C107.901 48.3145 107.992 48.5848 108.172 48.5848C108.352 48.5848 108.622 48.4946 108.695 48.1087C108.695 48.1087 110.063 42.5487 110.243 26.1525ZM49.7577 26.1525C49.637 15.1599 59.3039 11.5582 57.5927 13.6302C55.8815 15.7022 59.9343 20.8372 57.5927 22.4589C55.251 24.0805 57.8627 29.3058 56.6018 31.2877C55.3412 33.2697 53.3285 32.8192 52.1893 36.6931C51.0501 40.5669 52.0092 48.1087 52.0092 48.1087C52.0992 48.3145 52.0092 48.5848 51.829 48.5848C51.6489 48.5848 51.3788 48.4946 51.3056 48.1087C51.3056 48.1087 49.9378 42.5487 49.7577 26.1525Z" fill="#272727"/>
<path fill-rule="evenodd" clip-rule="evenodd" d="M80.0165 -0.000488281H80.0167C80.0302 -0.000488281 80.0437 -0.000488281 80.0573 -0.000488281C80.0708 -0.000488281 80.0844 -0.000488281 80.0979 -0.000488281H80.0981C92.293 -0.000488281 111.805 6.04826 110.244 29.853C107.944 26.8265 104.391 25.5063 101.235 23.5313C94.5925 19.3735 89.1683 17.8514 81.9711 17.8514C75.7863 17.8514 68.2006 19.3837 63.0771 22.0689C58.4941 24.471 54.4309 26.2728 49.9517 29.853C48.6834 5.4629 67.6102 -0.000488281 80.0165 -0.000488281Z" fill="#272727"/>
<path d="M78.791 46.9924L81.551 48.8324C80.613 50.2394 79.8783 52.3515 79.8783 53.888C79.8783 55.3696 80.4134 55.9923 82.0514 56.0096L82.1222 56.0099V59.327C78.5041 59.327 76.5613 57.1413 76.5613 53.888C76.5613 51.6841 77.4781 49.0088 78.7228 47.096L78.791 46.9924Z" fill="#EBBAAA"/>
</g>
<g clip-path="url(#clip0_910_19366)">
<path d="M114.375 97.7486C111.493 91.4618 107.349 89.7556 107.349 89.7556L104.781 124.303V176.389C132.832 167.669 129.009 129.666 114.375 97.7486ZM45.6261 97.7486C48.5085 91.4618 52.6523 89.7556 52.6523 89.7556L55.2202 124.303V176.389C27.1694 167.669 30.9919 129.666 45.6261 97.7486Z" fill="#454B5E"/>
<path d="M80.0007 97.5605C92.3934 97.5605 102.44 92.9741 102.44 87.3166C102.44 81.6591 92.3934 77.0728 80.0007 77.0728C67.608 77.0728 57.5618 81.6591 57.5618 87.3166C57.5618 92.9741 67.608 97.5605 80.0007 97.5605Z" fill="#35383E"/>
<path d="M80.0007 109.658C92.3934 109.658 102.44 105.072 102.44 99.4143C102.44 93.7567 92.3934 89.1704 80.0007 89.1704C67.608 89.1704 57.5618 93.7567 57.5618 99.4143C57.5618 105.072 67.608 109.658 80.0007 109.658Z" fill="white"/>
<path d="M86.8299 79.0241C86.8299 75.2524 83.7723 72.1948 80.0006 72.1948C76.2289 72.1948 73.1714 75.2524 73.1714 79.0241V87.8045C73.1714 91.5762 76.2289 94.6337 80.0006 94.6337C83.7723 94.6337 86.8299 91.5762 86.8299 87.8045V79.0241Z" fill="#EBBAAA"/>
<path d="M46.9454 124.529C46.9454 121.81 41.3053 101.09 52.5855 89.7615L71.5436 84.0972C70 87.2093 72.2286 96.4025 79.2302 98.9416C86.2317 101.481 78.4522 138.475 80.3972 151.093C82.6701 165.839 83.699 175.019 79.2302 179.414C74.7613 183.809 55.787 175.872 46.9454 169.453C42.2958 166.077 46.9454 133.866 46.9454 124.529Z" fill="#343844"/>
<path d="M113.056 124.529C113.056 121.81 118.696 101.09 107.416 89.7615L88.4577 84.0972C90.0013 87.2093 87.7727 96.4025 80.7711 98.9416C73.7696 101.481 81.5491 138.475 79.6041 151.093C77.3312 165.839 76.3023 175.019 80.7711 179.414C85.24 183.809 104.214 175.872 113.056 169.453C117.706 166.077 113.056 133.866 113.056 124.529Z" fill="#343844"/>
<path d="M80.0006 94.6337C72.6836 90.341 73.1714 84.0972 73.1714 84.0972C66.6598 90.2632 66.3662 96.9861 70.7894 104.704C71.6104 95.3166 80.0006 94.6337 80.0006 94.6337ZM80.0006 94.6337C87.3177 90.341 86.8299 84.0972 86.8299 84.0972C93.3415 90.2632 93.6351 96.9861 89.2119 104.704C88.3908 95.3166 80.0006 94.6337 80.0006 94.6337Z" fill="#6686B7"/>
<path d="M109.269 59.9022C113.579 59.9022 117.073 56.4077 117.073 52.0973C117.073 47.7869 113.579 44.2925 109.269 44.2925C104.958 44.2925 101.464 47.7869 101.464 52.0973C101.464 56.4077 104.958 59.9022 109.269 59.9022ZM50.7323 59.9022C46.4218 59.9022 42.9275 56.4077 42.9275 52.0973C42.9275 47.7869 46.4218 44.2925 50.7323 44.2925C55.0427 44.2925 58.5372 47.7869 58.5372 52.0973C58.5372 56.4077 55.0427 59.9022 50.7323 59.9022Z" fill="#EBBAAA"/>
<path d="M50.7324 33.951C50.7324 17.7866 63.8362 4.68286 80.0006 4.68286C96.165 4.68286 109.269 17.7867 109.269 33.951V48.8544L107.795 62.7362C106.537 74.5772 95.4167 82.8347 83.7055 80.6809C81.2626 80.2318 78.7487 80.237 76.3085 80.7001C64.9257 82.8597 54.0764 74.9822 52.6055 63.4902L50.7324 48.8544V33.951Z" fill="#F4D5CC"/>
<path fill-rule="evenodd" clip-rule="evenodd" d="M87.4415 61.1902V63.8957C87.4415 68.0518 84.0724 71.4212 79.9161 71.4212C75.76 71.4212 72.3909 68.0518 72.3909 63.8957V61.1902H87.4415Z" fill="#393939"/>
<mask id="mask2_910_19366" style="mask-type:alpha" maskUnits="userSpaceOnUse" x="72" y="59" width="16" height="13">
<path d="M87.342 59.9021C87.4074 60.3013 87.4415 60.7111 87.4415 61.1288V63.8962C87.4415 68.0523 84.0724 71.4215 79.9161 71.4215C75.76 71.4215 72.3909 68.0523 72.3909 63.8962V61.1288C72.3909 60.7111 72.4248 60.3013 72.4904 59.9021H87.342Z" fill="white"/>
</mask>
<g mask="url(#mask2_910_19366)">
<path d="M79.5149 74.0699C77.0085 74.0699 74.9767 72.9633 74.9767 71.5983C74.9767 70.2333 77.0085 69.1267 79.5149 69.1267C82.0212 69.1267 84.053 70.2333 84.053 71.5983C84.053 72.9633 82.0212 74.0699 79.5149 74.0699Z" fill="#FF6C6C"/>
<path d="M72.391 60.8008H87.4417V63.9046H72.391V60.8008Z" fill="white"/>
</g>
<path d="M86.6379 33.9875C86.6996 32.93 87.5926 32.1184 88.6448 32.1508L88.6994 32.1533L100.407 32.8362C101.482 32.899 102.304 33.8219 102.241 34.8977C102.179 35.9553 101.286 36.7668 100.234 36.7344L100.179 36.732L88.4721 36.0491C87.3964 35.9863 86.5751 35.0633 86.6379 33.9875ZM71.3015 32.1533C72.3773 32.0905 73.3003 32.9118 73.363 33.9875C73.4247 35.0451 72.6321 35.955 71.5832 36.0451L71.5287 36.0491L59.8215 36.732C58.7457 36.7947 57.8227 35.9735 57.76 34.8977C57.6983 33.8402 58.4909 32.9303 59.5398 32.8401L59.5942 32.8362L71.3015 32.1533Z" fill="#393939"/>
<path d="M92.293 40.9753C93.5663 40.9753 94.6021 41.9916 94.6337 43.2573L94.6345 43.3168V45.8534C94.6345 47.1465 93.5862 48.1948 92.293 48.1948C91.0198 48.1948 89.9839 47.1785 89.9523 45.9129L89.9516 45.8534V43.3168C89.9516 42.0236 90.9999 40.9753 92.293 40.9753ZM67.8053 40.9753C69.0786 40.9753 70.1145 41.9916 70.146 43.2573L70.1468 43.3168V45.8534C70.1468 47.1465 69.0985 48.1948 67.8053 48.1948C66.5321 48.1948 65.4962 47.1785 65.4646 45.9129L65.4639 45.8534V43.3168C65.4639 42.0236 66.5122 40.9753 67.8053 40.9753Z" fill="black"/>
<path d="M102.83 40.1948H84.4882C83.7338 40.1948 83.1223 40.8063 83.1223 41.5607V47.0241C83.1223 49.0715 84.7822 50.7314 86.8296 50.7314H100.488C102.536 50.7314 104.195 49.0715 104.195 47.0241V41.5607C104.195 40.8063 103.584 40.1948 102.83 40.1948ZM84.6833 41.7558H102.634V47.0241C102.634 48.2094 101.673 49.1704 100.488 49.1704H86.8296L86.7733 49.1697C85.614 49.1398 84.6833 48.1906 84.6833 47.0241V41.7558Z" fill="#393939"/>
<path d="M83.903 42.5364H76.0981V44.0973H83.903V42.5364Z" fill="#393939"/>
<path d="M75.5126 40.1948H57.1713C56.4169 40.1948 55.8054 40.8063 55.8054 41.5607V46.8289C55.8054 48.8764 57.4653 50.5362 59.5127 50.5362H73.1712C75.2186 50.5362 76.8785 48.8764 76.8785 46.8289V41.5607C76.8785 40.8063 76.267 40.1948 75.5126 40.1948ZM57.3664 41.7558H75.3175V46.8289C75.3175 48.0143 74.3565 48.9753 73.1712 48.9753H59.5127L59.4564 48.9745C58.2971 48.9447 57.3664 47.9955 57.3664 46.8289V41.7558Z" fill="#393939"/>
<path d="M110.243 26.1527C110.364 15.1601 100.697 11.5585 102.408 13.6305C104.12 15.7024 100.067 20.8374 102.408 22.4591C104.75 24.0807 102.138 29.3061 103.399 31.2879C104.66 33.27 106.672 32.8194 107.812 36.6934C108.951 40.5671 107.992 48.1089 107.992 48.1089C107.902 48.3148 107.992 48.585 108.172 48.585C108.352 48.585 108.622 48.4949 108.695 48.1089C108.695 48.1089 110.063 42.549 110.243 26.1527ZM49.758 26.1527C49.6373 15.1601 59.3041 11.5585 57.5929 13.6305C55.8817 15.7024 59.9346 20.8374 57.5929 22.4591C55.2513 24.0807 57.863 29.3061 56.6021 31.2879C55.3414 33.27 53.3287 32.8194 52.1895 36.6934C51.0503 40.5671 52.0094 48.1089 52.0094 48.1089C52.0994 48.3148 52.0094 48.585 51.8293 48.585C51.6492 48.585 51.379 48.4949 51.3058 48.1089C51.3058 48.1089 49.938 42.549 49.758 26.1527Z" fill="#272727"/>
<path fill-rule="evenodd" clip-rule="evenodd" d="M80.0168 0H80.017C80.0304 0 80.0439 0 80.0576 0C80.071 0 80.0847 0 80.0981 0H80.0983C92.2932 0 111.805 6.04875 110.244 29.8535C107.944 26.827 104.391 25.5068 101.236 23.5318C94.5927 19.374 89.1685 17.8519 81.9713 17.8519C75.7866 17.8519 68.2008 19.3842 63.0774 22.0694C58.4943 24.4715 54.4311 26.2732 49.9519 29.8535C48.6837 5.46339 67.6104 0 80.0168 0Z" fill="#272727"/>
<path d="M79.9801 23.1014C87.2043 18.6865 90.5217 17.7814 94.0002 15.7747C91.592 14.7044 85.3403 11.7145 82.1296 14.2831C80.7555 16.0756 78.305 19.0878 79.9801 23.1014Z" fill="#272727"/>
<path d="M66.294 25.1192C77.0299 18.8984 81.6791 20.9052 85.1573 18.8984C82.7493 17.8281 87.9669 10.1806 70.8091 13.8815C65.692 14.9853 64.6191 21.1058 66.294 25.1192Z" fill="#272727"/>
<path d="M78.7913 46.9927L81.5512 48.8326C80.6132 50.2397 79.8786 52.3518 79.8786 53.8882C79.8786 55.3698 80.4136 55.9926 82.0516 56.0098L82.1225 56.0102V59.3272C78.5043 59.3272 76.5615 57.1416 76.5615 53.8882C76.5615 51.6843 77.4784 49.009 78.7231 47.0962L78.7913 46.9927Z" fill="#EBBAAA"/>
</g>
<defs>
<clipPath id="clip0_910_19366">
<rect width="159.999" height="96.78" fill="white" transform="translate(0.000976562)"/>
</clipPath>
</defs>
</svg>
