<svg width="160" height="182" viewBox="0 0 160 182" fill="none" xmlns="http://www.w3.org/2000/svg">
<circle cx="81.9508" cy="99.9024" r="78.0484" fill="#333131"/>
<circle cx="78.0484" cy="103.805" r="78.0484" fill="#E9E9F0"/>
<mask id="mask0_910_17693" style="mask-type:alpha" maskUnits="userSpaceOnUse" x="0" y="25" width="157" height="157">
<circle cx="78.0484" cy="103.805" r="78.0484" fill="#D9D9D9"/>
</mask>
<g mask="url(#mask0_910_17693)">
<path d="M76.9395 193.745C89.3849 193.745 99.474 188.966 99.474 183.07C99.474 177.175 89.3849 172.396 76.9395 172.396C64.4939 172.396 54.4048 177.175 54.4048 183.07C54.4048 188.966 64.4939 193.745 76.9395 193.745Z" fill="#090B08"/>
<path d="M52.7161 171.126H79.0574L78.0818 241.33L76.5208 246.832L61.5941 246.052L59.3279 240.062L52.7161 171.126Z" fill="#090B08"/>
<path d="M78.8066 172.301H105.237L104.228 239.808L102.082 245.467L86.8624 248.085L85.4456 241.369L78.8066 172.301Z" fill="#090B08"/>
<path d="M57.2348 122.831L36.8457 116.206L35.8395 119.303L56.2286 125.927L57.2348 122.831Z" fill="#F1EDED"/>
<path d="M99.5936 129.95L119.983 123.326L118.977 120.229L98.5874 126.854L99.5936 129.95Z" fill="#F1EDED"/>
<path d="M53.2145 107.149C53.3774 100.434 58.7532 95.0115 65.4666 94.7924L81.1395 94.2794C82.4165 94.2392 83.6955 94.3056 84.9605 94.4806L100.259 96.5963C107.009 97.5296 111.812 103.631 111.132 110.411L108.238 139.267L109.69 180.608C109.704 180.962 92.875 180.627 92.5211 180.608H65.4666L50.0893 178.287C49.7494 178.269 49.4899 177.974 49.518 177.634L52.5226 135.673L53.2145 107.149Z" fill="#D9D9E3"/>
<path d="M78.6673 112C86.3184 112 92.5209 105.666 92.5209 97.8533C92.5209 90.0405 86.3184 83.707 78.6673 83.707C71.0162 83.707 64.8137 90.0405 64.8137 97.8533C64.8137 105.666 71.0162 112 78.6673 112Z" fill="#E9E9F0"/>
<path d="M39.4482 106.048C41.4774 99.8045 44.4563 98.699 45.692 98.9265L60.6186 161.365C59.253 166.243 54.3554 174.711 45.692 169.56C34.8628 163.121 27.5458 148.487 28.1311 144.097C28.7165 139.707 36.9116 113.853 39.4482 106.048ZM119.448 100.878C117.575 99.707 108.326 96.9427 103.643 95.4143C104.521 119.186 106.394 167.219 108.033 167.219C110.082 167.219 122.96 156.682 127.058 150.536C131.155 144.39 121.789 102.341 119.448 100.878Z" fill="#1B1B1B"/>
<path d="M75.9358 144.975C75.7808 131.871 73.3992 127.249 73.3992 120.975C72.326 116.78 70.9602 111.999 69.9846 111.414C59.5456 100.78 69.009 95.3167 69.887 91.1215C69.887 91.1215 68.4236 90.7444 68.326 90.7313C68.2285 90.7182 66.9602 90.3411 66.9602 90.3411C66.9602 90.3411 64.7163 91.9996 62.57 94.341C60.4236 96.6825 45.3018 98.7313 45.3018 98.7313C45.3018 99.2191 47.2201 110.942 46.4861 131.413C45.7521 151.885 47.2507 171.987 46.4861 181.205C49.6972 182.134 67.7264 185.229 78.2772 181.927C78.2772 168.72 76.1652 164.373 75.9358 144.975Z" fill="#1B1B1B"/>
<path d="M45.4968 159.219C46.5114 156.409 48.6837 155.674 50.2773 155.414V181.658C47.7731 181.235 45.5749 181.346 43.1554 179.316C40.131 176.78 39.5456 167.804 40.5212 164.78C41.4968 161.755 44.2285 162.731 45.4968 159.219Z" fill="#333131"/>
<path d="M66.927 178.931C63.0596 179.243 54.1507 176.199 50.1797 174.638V181.272C52.4242 183.223 58.2464 183.837 61.4021 184.394C66.927 185.37 71.7613 184.394 78.6674 183.223L78.3221 177.272C75.9049 177.857 70.7944 178.618 66.927 178.931Z" fill="#2C2A2A"/>
<path d="M59.8382 96.6825C61.009 95.1996 65.0089 91.8371 66.8626 90.3411L69.887 91.1215C69.7894 91.4142 69.4967 92.2142 69.1065 93.0728C68.6187 94.1459 65.6919 97.0169 65.1065 100.78C64.4236 105.17 68.7162 110.048 70.0821 111.512C71.4479 112.975 72.0333 115.804 72.8138 118.634C73.5943 121.463 73.4967 125.853 74.5699 129.17C75.643 132.487 76.0333 141.755 76.0333 145.658C76.0333 149.56 76.4235 159.999 76.9113 162.438C77.3016 164.389 78.3747 179.154 78.6674 183.316L74.2772 183.804C73.0089 163.349 69.5943 115.765 66.8626 112.097C64.1309 108.429 56.2935 108.878 52.7163 109.56C53.887 107.707 56.4041 103.57 57.1065 101.853C57.9846 99.7069 58.3748 98.5361 59.8382 96.6825Z" fill="#090B08"/>
<path d="M82.7062 147.414C82.852 134.735 80.5722 132.292 82.7062 126.048C85.3403 118.341 84.2672 116.683 87.4867 109.272C88.1858 104.082 94.9988 98.7315 87.4867 91.2193L90.5698 90.5364L103.556 95.344C104.736 95.7808 105.699 96.5342 106.025 97.7494C107.319 102.583 109.744 116.853 110.304 132.907C110.994 152.716 112.035 173.079 112.755 181.999C107.143 182.798 100.267 184.877 90.511 184.097C87.4867 172.292 82.4904 166.185 82.7062 147.414Z" fill="#1B1B1B"/>
<path d="M102.911 113.441C101.264 114.127 94.1056 114.526 90.7322 114.812V119.779C91.4756 119.836 93.3333 119.779 94.849 119.779C97.2505 119.779 103.14 118.694 106.342 118.066V112.585C106.342 112.585 104.112 112.942 102.911 113.441Z" fill="#BB2521"/>
<path d="M115.35 166.926C114.57 163.96 112.033 157.495 110.862 154.634L108.814 177.072C111.318 174.926 116.131 169.892 115.35 166.926Z" fill="#1B1B1B"/>
<path d="M93.4966 90.7314L90.5697 90.4387L87.4478 91.2192C87.7405 91.4793 88.638 92.429 89.8868 94.146C91.4478 96.2924 91.3502 99.9997 89.8868 102.536C88.4234 105.073 87.5454 108.78 87.4478 109.365C87.3502 109.951 86.96 110.829 86.1795 112C85.5551 112.936 85.1389 115.772 85.0088 117.073C85.9518 114.829 88.0527 110.146 88.9112 109.365C89.7697 108.585 96.4883 105.983 99.7404 104.78C99.5453 104.487 98.7648 103.512 97.2039 101.951C95.6429 100.39 94.0819 93.8208 93.4966 90.7314Z" fill="#090B08"/>
<path d="M101.106 178.146C104.814 177.71 108.716 177.858 112.423 174.833L112.814 181.662C108.911 182.638 104.606 183.324 103.155 183.512C100.131 183.902 98.277 184.585 90.5697 183.902L88.7161 177.955C91.4478 178.541 96.1307 178.731 101.106 178.146Z" fill="#2C2A2A"/>
<path d="M70.9602 121.561C71.7685 121.561 72.4236 120.905 72.4236 120.097C72.4236 119.289 71.7685 118.634 70.9602 118.634C70.152 118.634 69.4968 119.289 69.4968 120.097C69.4968 120.905 70.152 121.561 70.9602 121.561Z" fill="#48494D"/>
<path d="M73.4966 136.975C74.3048 136.975 74.96 136.32 74.96 135.512C74.96 134.704 74.3048 134.048 73.4966 134.048C72.6884 134.048 72.0332 134.704 72.0332 135.512C72.0332 136.32 72.6884 136.975 73.4966 136.975Z" fill="#48494D"/>
<path d="M74.0821 150.829C74.8903 150.829 75.5455 150.173 75.5455 149.365C75.5455 148.557 74.8903 147.902 74.0821 147.902C73.2738 147.902 72.6187 148.557 72.6187 149.365C72.6187 150.173 73.2738 150.829 74.0821 150.829Z" fill="#48494D"/>
<path d="M74.8626 165.463C75.6708 165.463 76.326 164.808 76.326 163.999C76.326 163.191 75.6708 162.536 74.8626 162.536C74.0544 162.536 73.3992 163.191 73.3992 163.999C73.3992 164.808 74.0544 165.463 74.8626 165.463Z" fill="#48494D"/>
<path d="M76.2285 179.707C77.0368 179.707 77.692 179.052 77.692 178.243C77.692 177.435 77.0368 176.78 76.2285 176.78C75.4203 176.78 74.7651 177.435 74.7651 178.243C74.7651 179.052 75.4203 179.707 76.2285 179.707Z" fill="#48494D"/>
<path d="M65.5615 109.073H67.4152" stroke="#1B1B1B" stroke-width="3"/>
<path d="M80.0501 82.5413H77.2837C73.1983 82.5413 69.8865 85.8531 69.8865 89.9385V98.3634C69.8865 102.449 73.1983 105.761 77.2837 105.761H80.0501C84.1355 105.761 87.4474 102.449 87.4474 98.3634V89.9385C87.4474 85.8531 84.1355 82.5413 80.0501 82.5413Z" fill="#EBBAAA"/>
<path d="M104.084 68.5965C110.471 68.5965 115.649 63.4192 115.649 57.0325C115.649 50.6458 110.471 45.4683 104.084 45.4683C97.6978 45.4683 92.5205 50.6458 92.5205 57.0325C92.5205 63.4192 97.6978 68.5965 104.084 68.5965ZM53.5483 69.1819C47.1616 69.1819 41.9841 64.0046 41.9841 57.6179C41.9841 51.2312 47.1616 46.0536 53.5483 46.0536C59.935 46.0536 65.1124 51.2312 65.1124 57.6179C65.1124 64.0046 59.935 69.1819 53.5483 69.1819Z" fill="#EBBAAA"/>
<path d="M49.0085 32.8424C49.0085 16.5388 62.2253 3.32202 78.529 3.32202C95.1652 3.32202 108.516 17.0619 108.037 33.6912L107.642 47.4193L106.93 68.8789C106.511 81.5011 96.1578 91.5166 83.5286 91.5166H78.9596H74.2445C62.0735 91.5166 51.9318 82.192 50.9123 70.0637L49.0085 47.4193V32.8424Z" fill="#F4D4C9"/>
<path d="M73.2545 77.4157C77.0767 79.5391 81.5879 79.4841 86.4553 77.4929C87.2233 77.1787 87.5911 76.3015 87.277 75.5335C86.9628 74.7656 86.0856 74.3977 85.3176 74.7119C81.234 76.3824 77.6602 76.426 74.7137 74.7891C73.9884 74.3861 73.0737 74.6474 72.6708 75.3728C72.2678 76.0981 72.5292 77.0127 73.2545 77.4157Z" fill="#C99584"/>
<path d="M80.0555 23.3994C65.1869 23.3994 53.1897 23.3994 52.4016 34.2355C51.2274 50.3784 48.42 51.6769 46.2915 44.1907C45.9671 43.0497 43.7233 35.4185 43.677 34.2355C43.677 2.962 77.7888 -7.31197 90.2765 5.17588C97.8746 11.3586 94.9259 23.3994 80.0555 23.3994Z" fill="#272727"/>
<path d="M69.2036 27.5172C72.2475 26.9709 80.2279 25.4684 84.2279 23.0294C73.0085 21.8587 50.7452 20.7075 51.4476 25.4684C52.3256 31.4196 65.3987 28.2001 69.2036 27.5172ZM47.8398 33.4116C47.7877 32.2175 48.8066 31.2243 50.0817 31.2243C51.4049 31.2243 52.4404 32.2897 52.3153 33.5228L50.2025 54.4144C50.1672 54.7637 49.8546 55.0291 49.4817 55.0291C49.0921 55.0291 48.7733 54.7423 48.7565 54.3793L47.8398 33.4116ZM109.299 33.3221C109.351 32.1769 108.332 31.2243 107.057 31.2243C105.734 31.2243 104.698 32.2462 104.823 33.4288L106.936 53.4642C106.972 53.799 107.284 54.0535 107.657 54.0535C108.047 54.0535 108.366 53.7785 108.382 53.4305L109.299 33.3221Z" fill="#272727"/>
<path d="M90.0813 20.688C96.3252 16.3954 104.416 24.9079 105.047 35.9451C106.614 44.6012 109.583 57.8455 113.203 32.1026C112.337 9.10188 93.9838 3.41989 87.2521 6.15153C79.4227 12.3342 74.7581 20.688 90.0813 20.688Z" fill="#272727"/>
<path d="M91.2522 51.7119V53.6631M66.0815 51.7119V53.6631" stroke="black" stroke-width="8" stroke-linecap="round"/>
<path d="M87.5464 44.0647L98.7282 43.9078C100.021 43.8896 101.055 42.8267 101.037 41.5337C101.018 40.2407 99.9555 39.2072 98.6625 39.2253L87.4807 39.3822C86.1877 39.4004 85.1542 40.4633 85.1723 41.7563C85.1905 43.0493 86.2534 44.0828 87.5464 44.0647ZM70.6014 39.4043L59.4198 39.5807C58.1268 39.6011 57.0951 40.6658 57.1155 41.9588C57.1359 43.2518 58.2006 44.2834 59.4936 44.263L70.6752 44.0866C71.9682 44.0662 72.9999 43.0015 72.9795 41.7085C72.9591 40.4156 71.8944 39.3839 70.6014 39.4043Z" fill="#393939"/>
<path d="M77.2464 58.5039C76.0616 60.5943 75.371 62.8789 75.4601 64.743C75.5824 67.3034 77.1897 69.0248 79.8959 69.0248V65.7078C79.0504 65.7078 78.8149 65.4556 78.7734 64.5847C78.7181 63.4272 79.2315 61.7285 80.1322 60.1394L77.2464 58.5039Z" fill="#EBBAAA"/>
</g>
<g clip-path="url(#clip0_910_17693)">
<path d="M53.1707 107.149C53.3342 100.433 58.7279 95.0113 65.4636 94.7922L81.1887 94.2792C82.47 94.239 83.7533 94.3053 85.0225 94.4804L100.372 96.596C107.144 97.5293 111.963 103.631 111.281 110.411L108.377 139.267L109.834 180.608C109.848 180.962 92.9634 180.626 92.6083 180.608H65.4636L50.035 178.287C49.694 178.269 49.4336 177.973 49.4618 177.634L52.4765 135.673L53.1707 107.149Z" fill="#D9D9E3"/>
<path d="M78.7084 112C86.385 112 92.6081 105.666 92.6081 97.8533C92.6081 90.0405 86.385 83.707 78.7084 83.707C71.0318 83.707 64.8086 90.0405 64.8086 97.8533C64.8086 105.666 71.0318 112 78.7084 112Z" fill="#E9E9F0"/>
<path d="M39.3583 106.048C41.3943 99.8045 44.3831 98.699 45.623 98.9265L60.5993 161.365C59.2291 166.243 54.3153 174.711 45.623 169.56C34.7577 163.121 27.4162 148.487 28.0036 144.097C28.5909 139.707 36.8133 113.853 39.3583 106.048ZM119.625 100.878C117.745 99.707 108.466 96.9427 103.767 95.4143C104.648 119.186 106.528 167.219 108.172 167.219C110.228 167.219 123.149 156.682 127.26 150.536C131.371 144.39 121.974 102.341 119.625 100.878Z" fill="#1B1B1B"/>
<path d="M75.9676 144.975C75.8121 131.871 73.4225 127.249 73.4225 120.975C72.3458 116.78 70.9754 111.999 69.9965 111.414C59.5228 100.78 69.0177 95.3167 69.8986 91.1215C69.8986 91.1215 68.4304 90.7444 68.3325 90.7313C68.2346 90.7182 66.9621 90.3411 66.9621 90.3411C66.9621 90.3411 64.7107 91.9996 62.5572 94.341C60.4037 96.6825 45.2314 98.7313 45.2314 98.7313C45.2314 99.2191 47.1561 110.942 46.4197 131.413C45.6833 151.885 47.1868 171.987 46.4197 181.205C49.6416 182.134 67.7309 185.229 78.3168 181.927C78.3168 168.72 76.1978 164.373 75.9676 144.975Z" fill="#1B1B1B"/>
<path d="M59.8166 96.6825C60.9912 95.1996 65.0045 91.8371 66.8643 90.3411L69.8988 91.1215C69.8009 91.4142 69.5072 92.2142 69.1157 93.0728C68.6263 94.1459 65.6897 97.0169 65.1024 100.78C64.4172 105.17 68.7242 110.048 70.0946 111.512C71.465 112.975 72.0523 115.804 72.8354 118.634C73.6184 121.463 73.5206 125.853 74.5973 129.17C75.674 132.487 76.0656 141.755 76.0656 145.658C76.0656 149.56 76.4571 159.999 76.9466 162.438C77.3381 164.389 78.4148 179.154 78.7085 183.316L74.3036 183.804C73.0311 163.349 69.6051 115.765 66.8643 112.097C64.1235 108.429 56.26 108.878 52.6709 109.56C53.8455 107.707 56.371 103.57 57.0758 101.853C57.9567 99.7069 58.3483 98.5361 59.8166 96.6825Z" fill="#090B08"/>
<path d="M82.7608 147.414C82.907 134.735 80.6196 132.292 82.7608 126.048C85.4037 118.341 84.3269 116.683 87.5572 109.272C88.2586 104.082 95.0944 98.7315 87.5572 91.2193L90.6505 90.5364L103.681 95.344C104.864 95.7808 105.83 96.5342 106.157 97.7494C107.455 102.583 109.889 116.853 110.45 132.907C111.143 152.716 112.188 173.079 112.91 181.999C107.279 182.798 100.38 184.877 90.5916 184.097C87.5572 172.292 82.5442 166.185 82.7608 147.414Z" fill="#1B1B1B"/>
<path d="M93.5871 90.7314L90.6505 90.4387L87.5182 91.2192C87.8118 91.4793 88.7124 92.429 89.9653 94.146C91.5315 96.2924 91.4336 99.9997 89.9653 102.536C88.497 105.073 87.6161 108.78 87.5182 109.365C87.4203 109.951 87.0288 110.829 86.2457 112C85.6192 112.936 85.2016 115.772 85.071 117.073C86.0172 114.829 88.1251 110.146 88.9865 109.365C89.8479 108.585 96.5889 105.983 99.8518 104.78C99.656 104.487 98.8729 103.512 97.3068 101.951C95.7406 100.39 94.1744 93.8208 93.5871 90.7314Z" fill="#090B08"/>
<path d="M65.5588 109.073H67.4187" stroke="#1B1B1B" stroke-width="3"/>
<path d="M80.0962 82.5408H77.3206C73.2216 82.5408 69.8987 85.8526 69.8987 89.938V98.3629C69.8987 102.448 73.2216 105.76 77.3206 105.76H80.0962C84.1952 105.76 87.5181 102.448 87.5181 98.3629V89.938C87.5181 85.8526 84.1952 82.5408 80.0962 82.5408Z" fill="#EBBAAA"/>
<path d="M104.211 68.5961C110.619 68.5961 115.813 63.4187 115.813 57.032C115.813 50.6453 110.619 45.4678 104.211 45.4678C97.8027 45.4678 92.6081 50.6453 92.6081 57.032C92.6081 63.4187 97.8027 68.5961 104.211 68.5961ZM53.5061 69.1814C47.098 69.1814 41.9033 64.0041 41.9033 57.6174C41.9033 51.2307 47.098 46.0531 53.5061 46.0531C59.9141 46.0531 65.1087 51.2307 65.1087 57.6174C65.1087 64.0041 59.9141 69.1814 53.5061 69.1814Z" fill="#EBBAAA"/>
<path d="M48.9512 32.8419C48.9512 16.5383 62.2119 3.32153 78.57 3.32153C95.2617 3.32153 108.657 17.0614 108.177 33.6907L107.78 47.4188L107.066 68.8784C106.646 81.5006 96.2576 91.5162 83.5863 91.5162H79.0021H74.2713C62.0596 91.5162 51.8842 82.1915 50.8613 70.0632L48.9512 47.4188V32.8419Z" fill="#F4D4C9"/>
<path d="M73.2778 77.4147C77.1127 79.5381 81.639 79.4831 86.5226 77.4919C87.2932 77.1777 87.6623 76.3005 87.347 75.5325C87.0318 74.7646 86.1517 74.3967 85.3812 74.7109C81.2839 76.3815 77.6982 76.425 74.7419 74.7881C74.0142 74.3851 73.0965 74.6465 72.6922 75.3718C72.2879 76.0971 72.5501 77.0117 73.2778 77.4147Z" fill="#C99584"/>
<path d="M80.1016 23.3989C65.1834 23.3989 53.1462 23.3989 52.3555 34.235C51.1773 50.3779 48.3606 51.6765 46.225 44.1902C45.8996 43.0492 43.6483 35.418 43.6018 34.235C43.6018 2.96151 77.8273 -7.31246 90.3567 5.17539C97.98 11.3581 95.0215 23.3989 80.1016 23.3989Z" fill="#272727"/>
<path d="M69.2133 27.5167C72.2673 26.9704 80.2744 25.468 84.2877 23.0289C73.0308 21.8582 50.6933 20.707 51.3981 25.468C52.2791 31.4191 65.3958 28.1996 69.2133 27.5167ZM47.7783 33.4111C47.726 32.217 48.7483 31.2238 50.0277 31.2238C51.3552 31.2238 52.3942 32.2892 52.2687 33.5224L50.1489 54.414C50.1134 54.7632 49.7998 55.0286 49.4257 55.0286C49.0347 55.0286 48.7149 54.7418 48.698 54.3788L47.7783 33.4111ZM109.442 33.3216C109.495 32.1764 108.472 31.2238 107.193 31.2238C105.865 31.2238 104.826 32.2457 104.952 33.4283L107.072 53.4637C107.107 53.7985 107.421 54.053 107.795 54.053C108.186 54.053 108.506 53.7781 108.523 53.43L109.442 33.3216Z" fill="#272727"/>
<path d="M90.1609 20.6875C96.4256 16.3949 104.543 24.9074 105.177 35.9446C106.748 44.6008 109.728 57.845 113.36 32.1021C112.491 9.10139 94.0764 3.41941 87.3223 6.15104C79.4667 12.3337 74.7866 20.6875 90.1609 20.6875Z" fill="#272727"/>
<path d="M91.3356 51.7117V53.6629M66.0811 51.7117V53.6629" stroke="black" stroke-width="7" stroke-linecap="round"/>
<path d="M87.6173 44.0644L98.8364 43.9075C100.134 43.8894 101.171 42.8265 101.152 41.5335C101.134 40.2404 100.068 39.2069 98.7705 39.2251L87.5514 39.382C86.2541 39.4001 85.2171 40.463 85.2353 41.756C85.2535 43.0491 86.32 44.0825 87.6173 44.0644ZM70.6158 39.4041L59.3969 39.5805C58.0996 39.6009 57.0646 40.6656 57.085 41.9586C57.1055 43.2515 58.1737 44.2832 59.471 44.2628L70.6899 44.0864C71.9872 44.066 73.0223 43.0013 73.0018 41.7083C72.9814 40.4153 71.9131 39.3837 70.6158 39.4041Z" fill="#393939"/>
<path d="M77.2829 58.5034C76.0942 60.5938 75.4013 62.8784 75.4906 64.7425C75.6133 67.3029 77.226 69.0244 79.9412 69.0244V65.7073C79.0929 65.7073 78.8567 65.4551 78.8149 64.5842C78.7595 63.4267 79.2747 61.7281 80.1783 60.1389L77.2829 58.5034Z" fill="#EBBAAA"/>
</g>
<defs>
<clipPath id="clip0_910_17693">
<rect width="159.999" height="108.487" fill="white" transform="translate(0.000976562)"/>
</clipPath>
</defs>
</svg>
