<svg width="160" height="182" viewBox="0 0 160 182" fill="none" xmlns="http://www.w3.org/2000/svg">
<circle cx="81.9509" cy="99.9021" r="78.0486" fill="#E0A1B2"/>
<circle cx="78.0486" cy="103.805" r="78.0486" fill="#B3818E"/>
<mask id="mask0_910_17469" style="mask-type:alpha" maskUnits="userSpaceOnUse" x="0" y="25" width="157" height="157">
<circle cx="78.0486" cy="103.805" r="78.0486" fill="#D9D9D9"/>
</mask>
<g mask="url(#mask0_910_17469)">
<path d="M79.2802 200.145C91.1493 200.145 100.771 190.104 100.771 177.72C100.771 165.335 91.1493 155.295 79.2802 155.295C67.411 155.295 57.7893 165.335 57.7893 177.72C57.7893 190.104 67.411 200.145 79.2802 200.145Z" fill="#C88497"/>
<path d="M79.2801 158.845H107.312V178.467C107.312 204.63 97.9678 244.809 97.9678 244.809C97.9678 244.809 91.8154 248.296 86.7551 246.677C84.2489 245.876 81.1488 244.809 81.1488 244.809L80.2145 201.827L79.2801 158.845ZM79.2801 158.845H51.2485V178.467C51.2485 204.63 60.5924 244.809 60.5924 244.809C60.5924 244.809 66.7447 248.296 71.805 246.677C74.3112 245.876 77.4113 244.809 77.4113 244.809L78.3457 201.827L79.2801 158.845Z" fill="#E0A1B2"/>
<path d="M79.2803 91.0091C91.1494 91.0091 102.64 86.6166 102.64 81.1981C102.64 54.5681 91.1494 54.5681 79.2803 54.5681C67.4112 54.5681 55.9207 54.5681 55.9207 81.1981C55.9207 86.6166 67.4112 91.0091 79.2803 91.0091Z" fill="#2D2427"/>
<path d="M105.182 95.3676C109.242 96.2908 112.426 98.6655 114.543 102.283C115.535 103.979 116.25 105.85 116.825 108.032L116.879 108.238C117.253 109.689 117.52 111.03 117.905 113.25L118.4 116.119C118.511 116.748 118.577 117.092 118.68 117.615L118.755 117.991C119.583 122.043 120.583 124.486 122.118 126.107C124.037 128.134 127.288 129.319 132.914 129.319C136.733 129.319 139.828 132.415 139.828 136.233C139.828 140.052 136.733 143.148 132.914 143.148C123.73 143.148 116.825 140.632 112.075 135.614C109.998 133.42 108.438 130.857 107.263 127.927C106.377 125.718 105.74 123.404 105.181 120.632L105.032 119.879C104.93 119.357 104.851 118.926 104.711 118.119L104.286 115.65C103.656 112.042 103.221 110.37 102.657 109.355L97.968 129.047L106.702 156.9C107.03 157.946 106.398 159.043 105.324 159.261C100.52 160.235 88.0334 162.583 79.2803 162.583C70.5272 162.583 58.0402 160.235 53.2368 159.261C52.1622 159.043 51.5309 157.946 51.8589 156.9L60.5926 129.047L55.9032 109.355C55.3268 110.393 54.8848 112.119 54.2309 115.901L53.829 118.237C53.6611 119.2 53.5827 119.612 53.4292 120.386C52.8575 123.268 52.2093 125.653 51.2979 127.927C50.123 130.857 48.5626 133.42 46.4856 135.614C41.7361 140.632 34.831 143.148 25.6466 143.148C21.8279 143.148 18.7322 140.052 18.7322 136.233C18.7322 132.415 21.8279 129.319 25.6466 129.319C31.2731 129.319 34.5238 128.134 36.4424 126.107C37.9776 124.486 38.9778 122.043 39.8051 117.991L39.9455 117.284C40.0317 116.841 40.1004 116.466 40.2233 115.76L40.6552 113.25C41.0405 111.03 41.308 109.689 41.6816 108.238C42.2661 105.968 42.9942 104.032 44.0179 102.283C46.1342 98.6655 49.3188 96.2908 53.3786 95.3676C54.041 91.7292 56.8445 88.6692 60.7081 87.8814L79.2803 84.0947L97.8525 87.8814C101.716 88.6692 104.52 91.7292 105.182 95.3676Z" fill="#F4D5CC"/>
<path d="M53.0749 119.495C52.0652 114.448 55.3274 109.535 60.3706 108.507L79.2803 104.651L98.19 108.507C103.233 109.535 106.495 114.448 105.486 119.495L101.706 138.391C101.706 138.391 107.312 151.37 107.312 158.845C107.312 158.845 90.3242 162.583 79.2803 162.583C68.2365 162.583 51.2488 158.845 51.2488 158.845C51.2488 151.37 56.8551 138.391 56.8551 138.391L53.0749 119.495Z" fill="#E0A1B2"/>
<path d="M56.1625 137.968C56.7417 137.137 57.8751 136.921 58.7176 137.472L58.8465 137.558C58.9001 137.593 58.9747 137.641 59.07 137.701L59.2326 137.801C59.4849 137.955 59.7756 138.124 60.1036 138.304C61.2664 138.944 62.6324 139.588 64.1877 140.19C68.6536 141.921 73.7184 142.961 79.2802 142.961C84.8345 142.961 89.7666 141.924 94.0191 140.201C95.432 139.628 96.6675 139.019 97.7181 138.413L97.8602 138.33C98.2315 138.112 98.5492 137.912 98.812 137.735L98.9907 137.612C99.036 137.581 99.0669 137.558 99.0833 137.546C99.9066 136.923 101.079 137.086 101.701 137.909C102.324 138.733 102.161 139.905 101.337 140.527L101.231 140.606C101.146 140.666 101.035 140.744 100.899 140.836C100.573 141.055 100.19 141.296 99.7516 141.553C98.5183 142.277 97.0729 142.996 95.4227 143.665C90.7402 145.562 85.3356 146.698 79.2802 146.698C73.2322 146.698 67.7151 145.566 62.8372 143.676C61.1221 143.011 59.6061 142.297 58.3016 141.579L58.055 141.442C57.7338 141.261 57.4433 141.089 57.184 140.929L56.9928 140.81C56.8258 140.704 56.7038 140.623 56.6277 140.57C55.7808 139.98 55.5726 138.815 56.1625 137.968ZM56.8622 151.617C57.7583 151.104 58.8998 151.416 59.4119 152.312C59.9148 153.192 59.6235 154.309 58.764 154.834L58.694 154.875L58.6089 154.929C58.5878 154.943 58.5652 154.958 58.5412 154.973C58.3584 155.095 58.1499 155.245 57.9219 155.424C57.2567 155.947 56.5869 156.588 55.9616 157.347C54.1797 159.511 53.1174 162.166 53.1174 165.386C53.1174 166.418 52.2807 167.255 51.2487 167.255C50.2166 167.255 49.3799 166.418 49.3799 165.386C49.3799 161.247 50.7704 157.771 53.0764 154.971C53.8819 153.993 54.745 153.167 55.6128 152.485C55.9214 152.243 56.211 152.034 56.4754 151.859L56.5724 151.795C56.6955 151.715 56.7932 151.656 56.8622 151.617Z" fill="#B3818E"/>
<path d="M59.2412 151.476C59.7612 150.584 60.9054 150.283 61.797 150.803C62.6726 151.314 62.9787 152.427 62.4967 153.311L62.4488 153.397L62.3972 153.497C62.3675 153.555 62.3351 153.621 62.3005 153.695C62.1453 154.025 61.9874 154.412 61.8388 154.849C61.382 156.193 61.1204 157.679 61.1552 159.248C61.2001 161.274 61.7389 163.292 62.8829 165.273C63.3989 166.167 63.0927 167.31 62.1988 167.826C61.305 168.342 60.1621 168.036 59.6461 167.142C58.1801 164.603 57.4771 161.971 57.4186 159.331C57.3734 157.295 57.7102 155.382 58.3 153.646C58.4952 153.072 58.7058 152.556 58.919 152.103C58.9832 151.966 59.0445 151.843 59.102 151.732L59.172 151.6C59.1944 151.558 59.2138 151.524 59.2298 151.496L59.2412 151.476Z" fill="#B3818E"/>
<path d="M50.4815 106.953C51.5349 103.793 54.1908 101.433 57.4528 100.758L79.2804 96.2417L101.108 100.758C104.37 101.433 107.026 103.793 108.079 106.953L111.984 118.667C111.984 118.667 108.686 121.142 106.378 122.404C97.0049 127.529 79.2804 126.142 79.2804 126.142C79.2804 126.142 61.556 127.529 52.1832 122.404C49.8745 121.142 46.5769 118.667 46.5769 118.667L50.4815 106.953Z" fill="#ECB3C3"/>
<path d="M85.8211 77.9276C85.8211 74.3153 82.8927 71.387 79.2804 71.387C75.6681 71.387 72.7397 74.3153 72.7397 77.9276V86.3372C72.7397 89.9495 75.6681 92.8778 79.2804 92.8778C82.8927 92.8778 85.8211 89.9495 85.8211 86.3372V77.9276Z" fill="url(#paint0_linear_910_17469)"/>
<path d="M56.3878 138.289C52.0014 138.289 48.4456 141.845 48.4456 146.231C48.4456 150.617 52.0014 154.173 56.3878 154.173C60.7742 154.173 64.3301 150.617 64.3301 146.231C64.3301 141.845 60.7742 138.289 56.3878 138.289ZM56.3878 142.026C58.71 142.026 60.5926 143.909 60.5926 146.231C60.5926 148.553 58.71 150.436 56.3878 150.436C54.0656 150.436 52.1831 148.553 52.1831 146.231C52.1831 143.909 54.0656 142.026 56.3878 142.026Z" fill="#B3818E"/>
<path d="M66.6659 141.092C62.2795 141.092 58.7236 144.648 58.7236 149.035C58.7236 153.421 62.2795 156.977 66.6659 156.977C71.0523 156.977 74.6082 153.421 74.6082 149.035C74.6082 144.648 71.0523 141.092 66.6659 141.092ZM66.6659 144.83C68.9881 144.83 70.8706 146.712 70.8706 149.035C70.8706 151.357 68.9881 153.239 66.6659 153.239C64.3437 153.239 62.4612 151.357 62.4612 149.035C62.4612 146.712 64.3437 144.83 66.6659 144.83Z" fill="#B3818E"/>
<path fill-rule="evenodd" clip-rule="evenodd" d="M79.2593 0C79.2726 0 79.2458 0 79.2593 0C87.6321 0 100.17 2.3704 105.461 13.2684C108.254 19.019 109.676 23.0871 109.202 30.0872C103.394 22.7007 87.6103 17.7533 79.2591 17.7533C68.7136 17.7533 57.5791 23.7035 49.3167 30.0872C48.9383 23.0537 50.2648 19.019 53.0569 13.2684C58.3483 2.37038 70.6682 0 79.2593 0Z" fill="#B3818E"/>
<path d="M79.6541 53.6335C102.253 53.6335 122.262 54.225 122.262 43.9159C122.262 28.5705 102.253 12.3337 79.6541 12.3337C57.0554 12.3337 37.0461 28.5705 37.0461 43.9159C37.0461 54.225 57.0554 53.6335 79.6541 53.6335Z" fill="#ECB3C3"/>
<path d="M108.994 60.1743C113.122 60.1743 116.469 56.8275 116.469 52.6992C116.469 48.5709 113.122 45.2241 108.994 45.2241C104.865 45.2241 101.519 48.5709 101.519 52.6992C101.519 56.8275 104.865 60.1743 108.994 60.1743ZM49.5669 60.1743C45.4386 60.1743 42.0918 56.8275 42.0918 52.6992C42.0918 48.5709 45.4386 45.2241 49.5669 45.2241C53.6952 45.2241 57.042 48.5709 57.042 52.6992C57.042 56.8275 53.6952 60.1743 49.5669 60.1743Z" fill="#EFC6BD"/>
<path d="M51.2488 36.441C51.2488 20.9595 63.7989 8.40942 79.2803 8.40942C94.7618 8.40942 107.312 20.9595 107.312 36.441V49.2185L106.419 57.0763C104.852 70.8708 93.18 81.2914 79.2968 81.2914C65.7203 81.2914 54.2074 71.3139 52.2772 57.8754L51.5807 53.0248C51.3596 51.4866 51.2488 49.9346 51.2488 48.3805V36.441Z" fill="#F4D5CC"/>
<path d="M87.8361 63.9706C88.1132 63.5353 88.6907 63.407 89.126 63.6841C89.5614 63.9612 89.6897 64.5387 89.4126 64.9741C88.8467 65.8631 87.5647 66.8798 85.9573 67.6519C83.9869 68.5983 81.6494 69.1443 79.0816 69.1443C76.515 69.1443 74.3031 68.6011 72.4527 67.6385C71.0487 66.9082 69.9428 65.9808 69.2054 65.0541C68.8841 64.6503 68.951 64.0625 69.3548 63.7412C69.7587 63.4199 70.3465 63.4868 70.6678 63.8906C71.2453 64.6163 72.1486 65.3738 73.3151 65.9807C74.8997 66.805 76.8158 67.2755 79.0816 67.2755C81.3656 67.2755 83.4272 66.794 85.1483 65.9673C86.4358 65.3489 87.4336 64.5667 87.8107 64.0092L87.8361 63.9706Z" fill="#C99584"/>
<path d="M61.5269 62.043C64.6231 62.043 67.1331 59.533 67.1331 56.4368C67.1331 53.3406 64.6231 50.8306 61.5269 50.8306C58.4306 50.8306 55.9207 53.3406 55.9207 56.4368C55.9207 59.533 58.4306 62.043 61.5269 62.043Z" fill="#F2CACA"/>
<path d="M68.0678 42.4209C68.5838 42.4209 69.0022 42.8392 69.0022 43.3553C69.0022 43.8574 68.6061 44.267 68.1094 44.2888L68.0678 44.2897H62.4615C61.9454 44.2897 61.5271 43.8713 61.5271 43.3553C61.5271 42.8532 61.9231 42.4436 62.4199 42.4218L62.4615 42.4209H68.0678ZM96.0993 42.4209C96.6154 42.4209 97.0337 42.8392 97.0337 43.3553C97.0337 43.8574 96.6377 44.267 96.141 44.2888L96.0993 44.2897H90.493C89.977 44.2897 89.5586 43.8713 89.5586 43.3553C89.5586 42.8532 89.9547 42.4436 90.4514 42.4218L90.493 42.4209H96.0993Z" fill="black"/>
<path d="M90.4927 40.926C91.7121 40.926 92.7043 41.8994 92.7345 43.1116L92.7352 43.1686V48.7749C92.7352 50.0134 91.7312 51.0174 90.4927 51.0174C89.2732 51.0174 88.2811 50.044 88.2509 48.8318L88.2502 48.7749V43.1686C88.2502 41.93 89.2542 40.926 90.4927 40.926ZM68.0682 40.926C69.2877 40.926 70.2798 41.8994 70.31 43.1116L70.3107 43.1686V48.7749C70.3107 50.0134 69.3067 51.0174 68.0682 51.0174C66.8487 51.0174 65.8566 50.044 65.8264 48.8318L65.8257 48.7749V43.1686C65.8257 41.93 66.8297 40.926 68.0682 40.926Z" fill="black"/>
<path d="M87.3751 34.0131L98.027 34.5737C98.6454 34.6062 99.1204 35.1339 99.0878 35.7523C99.056 36.3563 98.5518 36.8235 97.9522 36.8146L97.9092 36.8131L87.2572 36.2525C86.6388 36.2199 86.1639 35.6922 86.1964 35.0738C86.2282 34.4698 86.7324 34.0027 87.3321 34.0116L87.3751 34.0131ZM71.1858 34.0131C71.8042 33.9805 72.3319 34.4554 72.3644 35.0738C72.3962 35.6779 71.9439 36.1953 71.3465 36.2494L71.3036 36.2525L60.6517 36.8131C60.0333 36.8457 59.5056 36.3707 59.473 35.7523C59.4412 35.1483 59.8936 34.6308 60.4909 34.5768L60.5338 34.5737L71.1858 34.0131Z" fill="#271E1E"/>
<path d="M97.0332 62.043C100.129 62.043 102.639 59.533 102.639 56.4368C102.639 53.3406 100.129 50.8306 97.0332 50.8306C93.937 50.8306 91.427 53.3406 91.427 56.4368C91.427 59.533 93.937 62.043 97.0332 62.043Z" fill="#F2CACA"/>
<path d="M77.9585 46.9592L80.6019 48.7215C79.7035 50.0691 78.9999 52.0919 78.9999 53.5635C78.9999 54.9818 79.5119 55.5784 81.0792 55.5954L81.149 55.5957V58.7726C77.6837 58.7726 75.823 56.6793 75.823 53.5635C75.823 51.4534 76.7005 48.8921 77.892 47.0602L77.9585 46.9592Z" fill="#EBBAAA"/>
<path d="M97.8467 36.903C94.1166 34.4383 87.0917 24.2994 84.0454 19.5382C101.67 14.9636 109.037 28.0338 110.529 36.903C112.021 45.772 109.037 60.8968 110.343 60.3368C111.387 59.8886 112.456 59.4039 112.954 59.0305C113.264 71.7895 116.707 95.1766 112.954 97.0258C108.026 99.4531 94.0381 99.6398 96.3694 93.1047C98.7007 86.5696 105.587 45.1185 104.841 42.9712C104.095 40.824 102.509 39.9838 97.8467 36.903ZM60.7135 36.903C64.4435 34.4383 71.4684 24.2994 74.5147 19.5382C56.89 14.9636 49.5231 28.0338 48.0311 36.903C46.539 45.772 49.5231 60.8968 48.2176 60.3368C47.1731 59.8886 46.1038 59.4039 45.6065 59.0305C45.2958 71.7895 41.8527 95.1766 45.6065 97.0258C50.5341 99.4531 64.522 99.6398 62.1907 93.1047C59.8594 86.5696 52.9734 45.1185 53.7194 42.9712C54.4654 40.824 56.0507 39.9838 60.7135 36.903Z" fill="#2D2427"/>
<path fill-rule="evenodd" clip-rule="evenodd" d="M79.2674 6.91431C79.2799 6.91431 79.2548 6.91431 79.2674 6.91431C90.5514 6.91431 108.675 11.6407 107.231 27.6577C101.806 22.4685 87.0663 19.3867 79.2674 19.3867C69.419 19.3867 59.0206 23.173 51.3044 27.6577C50.1308 11.2468 67.7879 6.91431 79.2674 6.91431Z" fill="#ECB3C3"/>
</g>
<g clip-path="url(#clip0_910_17469)">
<path d="M79.2729 91.0086C91.1421 91.0086 102.633 86.6161 102.633 81.1976C102.633 54.5676 91.1421 54.5676 79.2729 54.5676C67.4038 54.5676 55.9133 54.5676 55.9133 81.1976C55.9133 86.6161 67.4038 91.0086 79.2729 91.0086Z" fill="#2D2427"/>
<path d="M105.175 95.3671C109.234 96.2903 112.419 98.665 114.535 102.282C115.528 103.979 116.243 105.85 116.818 108.032L116.872 108.237C117.245 109.689 117.513 111.029 117.898 113.25L118.393 116.119C118.504 116.748 118.569 117.092 118.673 117.615L118.748 117.991C119.575 122.042 120.576 124.485 122.111 126.107C124.029 128.134 127.28 129.318 132.907 129.318C136.725 129.318 139.821 132.414 139.821 136.233C139.821 140.052 136.725 143.147 132.907 143.147C123.722 143.147 116.817 140.631 112.068 135.613C109.991 133.419 108.43 130.857 107.255 127.926C106.37 125.718 105.733 123.404 105.173 120.631L105.024 119.878C104.923 119.356 104.844 118.925 104.704 118.118L104.279 115.65C103.649 112.042 103.214 110.37 102.65 109.355L97.9607 129.047L106.694 156.899C107.022 157.945 106.391 159.043 105.317 159.261C100.513 160.235 88.0261 162.583 79.273 162.583C70.5198 162.583 58.0329 160.235 53.2294 159.261C52.1549 159.043 51.5236 157.945 51.8516 156.899L60.5853 129.047L55.8958 109.355C55.3194 110.393 54.8775 112.119 54.2236 115.901L53.8217 118.237C53.6538 119.2 53.5754 119.612 53.4219 120.386C52.8501 123.268 52.2019 125.653 51.2906 127.926C50.1157 130.857 48.5553 133.419 46.4783 135.613C41.7288 140.631 34.8237 143.147 25.6393 143.147C21.8206 143.147 18.7249 140.052 18.7249 136.233C18.7249 132.414 21.8206 129.318 25.6393 129.318C31.2657 129.318 34.5165 128.134 36.4351 126.107C37.9703 124.485 38.9705 122.042 39.7978 117.991L39.9382 117.284C40.0244 116.841 40.0931 116.466 40.2159 115.76L40.6478 113.25C41.0332 111.029 41.3007 109.689 41.6743 108.237C42.2588 105.967 42.9869 104.032 44.0106 102.282C46.1269 98.665 49.3115 96.2903 53.3712 95.3671C54.0337 91.7287 56.8371 88.6688 60.7008 87.8809L79.273 84.0942L97.8452 87.8809C101.709 88.6688 104.512 91.7287 105.175 95.3671Z" fill="#F4D5CC"/>
<path d="M50.4742 106.953C51.5276 103.793 54.1835 101.432 57.4454 100.757L79.273 96.2412L101.101 100.757C104.363 101.432 107.018 103.793 108.072 106.953L111.977 118.666C111.977 118.666 108.679 121.142 106.37 122.404C96.9976 127.529 79.273 126.142 79.273 126.142C79.273 126.142 61.5487 127.529 52.1759 122.404C49.8672 121.142 46.5696 118.666 46.5696 118.666L50.4742 106.953Z" fill="#ECB3C3"/>
<path d="M85.8138 77.9269C85.8138 74.3146 82.8854 71.3862 79.2731 71.3862C75.6608 71.3862 72.7324 74.3146 72.7324 77.9269V86.3364C72.7324 89.9487 75.6608 92.8771 79.2731 92.8771C82.8854 92.8771 85.8138 89.9487 85.8138 86.3364V77.9269Z" fill="url(#paint1_linear_910_17469)"/>
<path fill-rule="evenodd" clip-rule="evenodd" d="M79.252 0C79.2652 0 79.2385 0 79.252 0C87.6248 0 100.163 2.3704 105.454 13.2684C108.246 19.019 109.669 23.0871 109.194 30.0872C103.386 22.7007 87.6029 17.7533 79.2518 17.7533C68.7063 17.7533 57.5718 23.7035 49.3094 30.0872C48.931 23.0537 50.2574 19.019 53.0496 13.2684C58.341 2.37038 70.6609 0 79.252 0Z" fill="#B3818E"/>
<path d="M79.6468 53.6338C102.245 53.6338 122.255 54.2252 122.255 43.9162C122.255 28.5708 102.245 12.334 79.6468 12.334C57.0481 12.334 37.0388 28.5708 37.0388 43.9162C37.0388 54.2252 57.0481 53.6338 79.6468 53.6338Z" fill="#ECB3C3"/>
<path d="M108.986 60.174C113.115 60.174 116.461 56.8273 116.461 52.699C116.461 48.5707 113.115 45.2239 108.986 45.2239C104.858 45.2239 101.511 48.5707 101.511 52.699C101.511 56.8273 104.858 60.174 108.986 60.174ZM49.5595 60.174C45.4313 60.174 42.0845 56.8273 42.0845 52.699C42.0845 48.5707 45.4313 45.2239 49.5595 45.2239C53.6878 45.2239 57.0346 48.5707 57.0346 52.699C57.0346 56.8273 53.6878 60.174 49.5595 60.174Z" fill="#EFC6BD"/>
<path d="M51.2415 36.441C51.2415 20.9595 63.7915 8.40942 79.273 8.40942C94.7544 8.40942 107.305 20.9595 107.305 36.441V49.2185L106.412 57.0763C104.844 70.8708 93.1727 81.2914 79.2894 81.2914C65.713 81.2914 54.2001 71.3139 52.2698 57.8754L51.5733 53.0248C51.3523 51.4866 51.2415 49.9346 51.2415 48.3805V36.441Z" fill="#F4D5CC"/>
<path d="M87.8285 63.9709C88.1056 63.5355 88.6831 63.4072 89.1185 63.6843C89.5538 63.9614 89.6821 64.539 89.405 64.9743C88.8391 65.8633 87.5571 66.8801 85.9498 67.6521C83.9794 68.5985 81.6418 69.1445 79.0741 69.1445C76.5074 69.1445 74.2956 68.6014 72.4451 67.6388C71.0411 66.9084 69.9352 65.981 69.1979 65.0544C68.8766 64.6505 68.9435 64.0627 69.3473 63.7414C69.7511 63.4201 70.3389 63.487 70.6602 63.8908C71.2377 64.6166 72.141 65.3741 73.3076 65.9809C74.8922 66.8052 76.8083 67.2757 79.0741 67.2757C81.3581 67.2757 83.4196 66.7942 85.1407 65.9676C86.4283 65.3491 87.426 64.567 87.8032 64.0094L87.8285 63.9709Z" fill="#C99584"/>
<path d="M61.5198 62.043C64.616 62.043 67.126 59.533 67.126 56.4368C67.126 53.3406 64.616 50.8306 61.5198 50.8306C58.4236 50.8306 55.9136 53.3406 55.9136 56.4368C55.9136 59.533 58.4236 62.043 61.5198 62.043Z" fill="#F2CACA"/>
<path d="M68.0605 42.4214C68.5765 42.4214 68.9949 42.8397 68.9949 43.3558C68.9949 43.8579 68.5988 44.2675 68.1021 44.2892L68.0605 44.2902H62.4542C61.9381 44.2902 61.5198 43.8718 61.5198 43.3558C61.5198 42.8537 61.9158 42.4441 62.4125 42.4223L62.4542 42.4214H68.0605ZM96.092 42.4214C96.6081 42.4214 97.0264 42.8397 97.0264 43.3558C97.0264 43.8579 96.6304 44.2675 96.1336 44.2892L96.092 44.2902H90.4857C89.9697 44.2902 89.5513 43.8718 89.5513 43.3558C89.5513 42.8537 89.9473 42.4441 90.4441 42.4223L90.4857 42.4214H96.092Z" fill="black"/>
<path d="M90.4856 40.926C91.7051 40.926 92.6972 41.8994 92.7274 43.1116L92.7281 43.1685V48.7749C92.7281 50.0134 91.7241 51.0174 90.4856 51.0174C89.2662 51.0174 88.274 50.044 88.2438 48.8318L88.2431 48.7749V43.1685C88.2431 41.93 89.2471 40.926 90.4856 40.926ZM68.0611 40.926C69.2806 40.926 70.2727 41.8994 70.3029 43.1116L70.3036 43.1685V48.7749C70.3036 50.0134 69.2996 51.0174 68.0611 51.0174C66.8417 51.0174 65.8496 50.044 65.8193 48.8318L65.8186 48.7749V43.1685C65.8186 41.93 66.8226 40.926 68.0611 40.926Z" fill="black"/>
<path d="M87.3677 34.0128L98.0197 34.5734C98.6381 34.606 99.113 35.1337 99.0805 35.7521C99.0487 36.3561 98.5445 36.8232 97.9448 36.8143L97.9018 36.8129L87.2499 36.2522C86.6315 36.2197 86.1565 35.692 86.1891 35.0736C86.2209 34.4696 86.7251 34.0024 87.3247 34.0114L87.3677 34.0128ZM71.1785 34.0128C71.7969 33.9803 72.3246 34.4552 72.3571 35.0736C72.3889 35.6776 71.9365 36.1951 71.3392 36.2492L71.2963 36.2522L60.6443 36.8129C60.0259 36.8454 59.4982 36.3705 59.4657 35.7521C59.4339 35.1481 59.8863 34.6306 60.4836 34.5765L60.5265 34.5734L71.1785 34.0128Z" fill="#271E1E"/>
<path d="M97.0264 62.043C100.123 62.043 102.633 59.533 102.633 56.4368C102.633 53.3406 100.123 50.8306 97.0264 50.8306C93.9302 50.8306 91.4202 53.3406 91.4202 56.4368C91.4202 59.533 93.9302 62.043 97.0264 62.043Z" fill="#F2CACA"/>
<path d="M77.9512 46.9595L80.5946 48.7217C79.6962 50.0693 78.9926 52.0921 78.9926 53.5637C78.9926 54.9821 79.5046 55.5786 81.0718 55.5956L81.1417 55.596V58.7729C77.6764 58.7729 75.8157 56.6796 75.8157 53.5637C75.8157 51.4536 76.6932 48.8923 77.8847 47.0605L77.9512 46.9595Z" fill="#EBBAAA"/>
<path d="M97.8393 36.9032C94.1093 34.4385 87.0844 24.2997 84.0381 19.5384C101.663 14.9639 109.03 28.034 110.522 36.9032C112.014 45.7722 109.03 60.8971 110.335 60.337C111.38 59.8889 112.449 59.4041 112.946 59.0308C113.257 71.7898 116.7 95.1769 112.946 97.026C108.019 99.4534 94.0308 99.64 96.3621 93.1049C98.6934 86.5699 105.579 45.1187 104.833 42.9715C104.087 40.8243 102.502 39.9841 97.8393 36.9032ZM60.7062 36.9032C64.4362 34.4385 71.4611 24.2997 74.5074 19.5384C56.8826 14.9639 49.5158 28.034 48.0237 36.9032C46.5317 45.7722 49.5158 60.8971 48.2103 60.337C47.1658 59.8889 46.0965 59.4041 45.5992 59.0308C45.2884 71.7898 41.8454 95.1769 45.5992 97.026C50.5268 99.4534 64.5147 99.64 62.1834 93.1049C59.8521 86.5699 52.9661 45.1187 53.7121 42.9715C54.4581 40.8243 56.0434 39.9841 60.7062 36.9032Z" fill="#2D2427"/>
<path fill-rule="evenodd" clip-rule="evenodd" d="M79.26 6.91455C79.2726 6.91455 79.2475 6.91455 79.26 6.91455C90.544 6.91455 108.668 11.6409 107.223 27.6579C101.799 22.4687 87.059 19.3869 79.26 19.3869C69.4116 19.3869 59.0132 23.1732 51.2971 27.6579C50.1235 11.247 67.7806 6.91455 79.26 6.91455Z" fill="#ECB3C3"/>
</g>
<defs>
<linearGradient id="paint0_linear_910_17469" x1="79.2804" y1="81.1045" x2="79.2804" y2="85.7766" gradientUnits="userSpaceOnUse">
<stop stop-color="#EBBAAA"/>
<stop offset="1" stop-color="#F4D5CC"/>
</linearGradient>
<linearGradient id="paint1_linear_910_17469" x1="79.2731" y1="81.1038" x2="79.2731" y2="85.7759" gradientUnits="userSpaceOnUse">
<stop stop-color="#EBBAAA"/>
<stop offset="1" stop-color="#F4D5CC"/>
</linearGradient>
<clipPath id="clip0_910_17469">
<rect width="160" height="99.1217" fill="white" transform="translate(0.000488281)"/>
</clipPath>
</defs>
</svg>
