<svg width="160" height="185" viewBox="0 0 160 185" fill="none" xmlns="http://www.w3.org/2000/svg">
<circle cx="81.9511" cy="102.244" r="78.0488" fill="#5A4438"/>
<circle cx="78.0488" cy="106.147" r="78.0488" fill="#1F6F1D"/>
<mask id="mask0_910_19590" style="mask-type:alpha" maskUnits="userSpaceOnUse" x="0" y="28" width="157" height="157">
<circle cx="78.0488" cy="106.147" r="78.0488" fill="#D9D9D9"/>
</mask>
<g mask="url(#mask0_910_19590)">
<path d="M63.5607 174.071C63.1976 176.351 61.3024 181.367 56.6272 183.191" stroke="#0036A2" stroke-width="5" stroke-linecap="round"/>
<path d="M49.9905 207.477V193.896L79.6065 173.872L86.0447 183.487L65.7394 207.477H49.9905Z" fill="#020202"/>
<path d="M44.0475 167.726L52.2686 162.076L78.1209 160.391L66.6309 182.596L46.6227 209.658L40.6797 204.899L34.2415 203.214L40.6797 184.876L46.3527 177.576L44.0475 167.726Z" fill="#10171B"/>
<path fill-rule="evenodd" clip-rule="evenodd" d="M48.6983 164.629L44.0477 167.826L45.908 175.774L51.0803 170.8L48.6983 164.629ZM55.9131 197.191L53.3584 195.086L47.7126 202.421L48.8254 206.779L55.9131 197.191ZM39.4959 204.689L43.4534 200.141L40.68 195.086L36.434 197.069L34.2417 203.313L39.4959 204.689ZM40.9611 184.613L47.7126 180.712L45.1825 179.181L40.9611 184.613Z" fill="#312E2A"/>
<path d="M46.0286 191.121L55.3394 178.729L62.0748 182.595L57.3205 204.305L46.0286 191.121Z" fill="#312E2A"/>
<path d="M85.3773 176.216L85.3965 176.313C87.5075 186.514 87.3753 234.601 85.3936 249.411L85.333 249.849C84.8687 253.099 87.1285 256.109 90.3804 256.573C93.6323 257.037 96.6449 254.779 97.1093 251.529C98.1115 244.515 98.7571 229.042 98.8218 212.517L98.8236 212.016C98.8799 194.382 98.2817 179.879 97.0458 173.906C96.3806 170.691 93.2336 168.624 90.0167 169.289C86.832 169.947 84.7728 173.036 85.3773 176.216ZM60.6381 172.953C59.4145 178.866 58.816 193.173 58.8588 210.614L58.8603 211.143C58.9138 227.9 59.5623 243.652 60.5746 250.737C61.0389 253.986 64.0516 256.244 67.3035 255.78C70.5554 255.316 72.8152 252.306 72.3509 249.057C70.332 234.927 70.1583 186.644 72.2241 175.681L72.2874 175.36C72.9526 172.146 70.884 169.001 67.6672 168.337C64.4503 167.672 61.3033 169.739 60.6381 172.953Z" fill="#F6DDD6"/>
<path d="M96.0923 186.188L60.7942 182.177L53.1731 162.928L100.906 164.933L96.0923 186.188Z" fill="#617EAC"/>
<path d="M76.7485 167.639L105.607 165.6L100.54 240.684L83.3903 239.892L82.7618 202.082L76.7485 167.639Z" fill="#617EAC"/>
<path d="M50.875 163.817L76.8383 168.141L73.6293 206.326L74.4682 240.585L57.5168 239.892L50.875 163.817Z" fill="#617EAC"/>
<path d="M44.5612 103.238C40.1161 111.939 36.2302 122.953 34.8726 132.599C34.0831 138.209 36.1915 143.372 40.3087 148.182C43.0785 151.418 46.6132 154.385 51.4058 157.785L51.8868 158.123L52.556 158.586C54.7537 160.099 59.2211 163.124 60.6784 164.162L60.9137 164.331C64.1847 166.724 68.7766 166.013 71.17 162.742C73.5634 159.472 72.852 154.881 69.581 152.488L69.3663 152.333C67.4676 150.971 61.336 146.832 60.0952 145.955L59.7458 145.708L59.3975 145.459C55.7729 142.857 53.2004 140.673 51.4601 138.64C49.8278 136.733 49.2962 135.432 49.4071 134.644C50.5109 126.801 53.8726 117.273 57.6325 109.913C59.4761 106.304 58.0446 101.884 54.4351 100.041C50.8256 98.1978 46.4049 99.6291 44.5612 103.238ZM99.219 112.339C103.076 119.176 105.718 127.363 107.182 137.003C107.642 140.035 103.197 144.671 93.5894 150.219L92.6402 150.762C90.9951 151.697 89.7351 152.375 86.5571 154.046L83.902 155.442L82.8352 156.008C80.4885 157.261 79.0985 158.057 77.7892 158.914C74.3983 161.134 73.4492 165.682 75.6695 169.072C77.8675 172.428 82.3477 173.392 85.7273 171.257L86.0472 171.051L86.296 170.894C87.2893 170.279 88.6643 169.522 91.0383 168.27L94.7295 166.328L95.7698 165.777C97.6994 164.752 98.7922 164.15 100.302 163.287L100.597 163.118C106.71 159.614 111.395 156.299 114.976 152.593C120.086 147.303 122.688 141.356 121.693 134.801C119.975 123.487 116.789 113.612 112.003 105.129C110.011 101.6 105.535 100.352 102.005 102.343C98.475 104.334 97.2276 108.81 99.219 112.339ZM61.4787 93.2542C61.4787 90.3036 63.871 87.9119 66.8222 87.9119H88.8625C91.8137 87.9119 94.206 90.3036 94.206 93.2542C94.206 101.037 87.8956 107.346 80.1114 107.346H75.5733C67.7891 107.346 61.4787 101.037 61.4787 93.2542Z" fill="#EBBAAA"/>
<path d="M115.231 98.5212C114.12 97.1728 113.248 96.373 112.95 96.2407L104.917 96.439L100.157 129.159L126.339 123.012C123.661 114.187 116.342 99.8697 115.231 98.5212ZM42.9336 98.3229C43.6477 97.5297 45.0163 96.5382 45.6113 96.3399L54.5369 105.264V128.763L30.4377 122.417C34.8014 114.915 42.2196 99.1162 42.9336 98.3229Z" fill="black"/>
<path d="M45.4132 96.3397C46.524 95.1499 56.1901 91.0186 60.8844 89.1016L74.967 92.3736L94.3059 89.1016C99.9256 90.5889 110.769 94.555 112.752 95.9431C114.097 96.8843 109.678 97.7279 109.281 101.991C108.787 107.299 104.025 125.491 104.025 130.052C104.025 145.619 106.504 167.928 105.512 170.804C105.324 171.35 92.2573 172.673 78.0414 172.787C68.416 172.863 57.9699 170.584 50.6695 170.704C49.281 153.551 53.3412 129.405 51.8596 117.757C49.6777 100.603 44.0248 97.827 45.4132 96.3397Z" fill="#0C0F10"/>
<path d="M58.1067 94.3445C58.1067 90.7919 60.9873 87.9119 64.5407 87.9119H91.1438C94.6972 87.9119 97.5778 90.7919 97.5778 94.3445C97.5778 103.715 89.9795 111.312 80.6068 111.312H75.0777C65.705 111.312 58.1067 103.715 58.1067 94.3445Z" fill="#1E2529"/>
<path d="M62.8677 92.8181C62.8677 90.1085 65.0648 87.9119 67.775 87.9119H87.9108C90.621 87.9119 92.8181 90.1085 92.8181 92.8181C92.8181 99.9653 87.0228 105.759 79.8742 105.759H75.8116C68.663 105.759 62.8677 99.9653 62.8677 92.8181Z" fill="#EBBAAA"/>
<mask id="mask1_910_19590" style="mask-type:alpha" maskUnits="userSpaceOnUse" x="58" y="115" width="42" height="12">
<path d="M66.1531 119.11C66.1531 117.301 64.838 115.568 62.3936 115.568H58.0308V126.581H60.7382V122.653H62.3936C64.838 122.653 66.1531 120.92 66.1531 119.11ZM63.4456 119.11C63.4456 119.683 63.0124 120.224 62.2698 120.224H60.7382V117.997H62.2698C63.0124 117.997 63.4456 118.538 63.4456 119.11ZM75.8991 122.715V115.568H73.1916V122.653C73.1916 123.674 72.6037 124.261 71.7064 124.261C70.8091 124.261 70.2521 123.674 70.2521 122.653V115.568H67.5447V122.715C67.5447 125.127 69.4167 126.674 71.7064 126.674C73.9961 126.674 75.8991 125.127 75.8991 122.715ZM88.2166 126.581V115.568H85.5556L83.0802 120.425L80.6048 115.568H77.9438V126.581H80.6513V121.307L82.2138 124.029H83.9466L85.5092 121.307V126.581H88.2166ZM99.4272 126.581L95.4202 115.568H93.3316L89.3246 126.581H92.1558L92.6973 124.942H96.0854L96.596 126.581H99.4272ZM95.3738 122.684H93.4554L94.4455 119.745L95.3738 122.684Z" fill="white"/>
</mask>
<g mask="url(#mask1_910_19590)">
<path d="M66.1531 119.11C66.1531 117.301 64.838 115.568 62.3936 115.568H58.0308V126.581H60.7382V122.653H62.3936C64.838 122.653 66.1531 120.92 66.1531 119.11ZM63.4456 119.11C63.4456 119.683 63.0124 120.224 62.2698 120.224H60.7382V117.997H62.2698C63.0124 117.997 63.4456 118.538 63.4456 119.11ZM75.8991 122.715V115.568H73.1916V122.653C73.1916 123.674 72.6037 124.261 71.7064 124.261C70.8091 124.261 70.2521 123.674 70.2521 122.653V115.568H67.5447V122.715C67.5447 125.127 69.4167 126.674 71.7064 126.674C73.9961 126.674 75.8991 125.127 75.8991 122.715ZM88.2166 126.581V115.568H85.5556L83.0802 120.425L80.6048 115.568H77.9438V126.581H80.6513V121.307L82.2138 124.029H83.9466L85.5092 121.307V126.581H88.2166ZM99.4272 126.581L95.4202 115.568H93.3316L89.3246 126.581H92.1558L92.6973 124.942H96.0854L96.596 126.581H99.4272ZM95.3738 122.684H93.4554L94.4455 119.745L95.3738 122.684Z" fill="#598CBD"/>
<path d="M83.3741 97.7639L86.4292 91.3568H79.0969L77.8748 100.205L69.6262 91.3568H56.3365L49.0042 103.256L61.8356 111.646L56.3365 117.443H47.1712L53.8924 126.596L47.1712 130.105L42.4358 158.326L61.8356 163.513L86.4292 156.191V146.885L77.8748 154.97L73.9033 149.021L69.6262 156.191V145.054L61.8356 150.546L49.0042 156.191V141.698H56.3365L61.8356 130.105L73.2922 134.681L75.1254 145.054L83.3741 138.647L79.0969 130.105L75.1254 126.596L79.0969 122.63L83.3741 111.646V118.968L89.4844 117.443V107.069H96.0528L93.6087 117.443L100.024 118.968V130.105L98.1913 124.765L96.0528 132.545L100.024 141.698H91.6229L89.4844 152.682L93.9142 150.546L100.024 145.054H105.829L103.996 138.647L101.552 127.816L115.911 141.698L114.383 126.596L105.829 122.63L119.119 118.968L111.328 95.0181L103.996 97.7639L96.0528 88.0007L100.024 95.0181L89.4844 103.256V95.0181L83.3741 97.7639Z" fill="#5A4438"/>
<path d="M99.5291 139.523L96.2604 139.681L100.982 134.687L96.0297 134.928L97.555 131.578C100.268 130.884 105.198 129.48 103.209 129.417C101.22 129.355 93.3332 129.83 89.6381 130.076L88.4647 136.585C88.0524 136.274 87.3363 135.429 87.7695 134.534C88.2027 133.64 86.7472 132.565 85.9654 132.14L81.805 132.342C81.6464 132.349 81.8864 135.382 82.026 136.897C83.1887 137.668 85.1472 139.426 83.68 140.292C81.8461 141.373 80.4755 143.822 79.7995 142.167C79.2586 140.844 79.4076 138.183 79.5496 137.017L79.3358 132.61C79.3326 133.212 78.9246 133.874 77.2484 132.563C75.6009 134.628 75.4399 137.581 75.565 138.799L73.6901 130.849L71.4116 130.96L71.181 126.206C71.1522 125.612 69.9105 124.58 68.5064 126.336C67.3832 127.74 66.4091 130.177 66.0626 131.219C65.6606 131.801 64.2261 132.658 61.7041 131.431C58.5516 129.896 57.214 126.883 57.8084 126.855C58.4026 126.826 65.0376 124.419 61.3725 124.597C58.4403 124.739 55.4711 127.795 54.3528 129.305L58.2505 135.966C59.8972 136.482 62.9712 137.901 62.0933 139.452C60.996 141.392 62.15 144.711 59.7899 143.138C57.43 141.565 56.9404 137.618 55.8124 136.878C54.6844 136.139 53.0917 138.102 52.0879 133.783C51.0838 129.464 49.2029 125.485 51.6073 123.88C53.5306 122.595 55.5568 120.015 56.3295 118.886L58.7567 121.845L58.6077 118.775L57.2268 114.871L60.7814 112.416C59.8956 111.896 57.9064 110.867 57.0346 110.91C56.1629 110.952 56.5592 108.617 56.8664 107.444L60.5315 107.266C61.0409 105.487 62.3279 102.136 63.4004 102.957C63.6196 107.473 62.4176 109.987 61.7894 110.679C62.0477 111.229 62.822 112.317 63.8522 112.267C65.1399 112.204 68.4376 112.64 65.2504 114.482C62.0366 120.277 64.1388 121.584 65.5917 121.514L64.4433 124.448C65.7996 123.754 68.4632 122.169 68.2663 121.384C68.0693 120.599 69.5037 119.603 70.2456 119.203L73.07 118.074L74.705 121.072L74.7865 122.755L76.6861 120.976C76.8844 119.609 77.5487 117.062 78.6172 117.804L80.6425 124.754L82.868 123.554L82.7285 120.682L82.5796 117.612L86.9381 117.401C85.793 116.993 83.8272 115.904 85.1244 114.809C86.4216 113.713 88.0942 112.58 88.7684 112.15L89.3327 115.597L91.4858 123.136L94.2594 123.002L94.12 120.13L91.0054 113.233L93.7211 111.91C93.381 113.085 92.9385 115.422 93.8893 115.376C97.4554 115.203 99.396 113.587 99.9205 112.8C99.8506 112.043 99.3939 110.543 98.1258 110.604C96.858 110.666 94.5714 109.652 93.5866 109.137L99.5601 105.373C100.368 104.969 102.044 105.411 102.286 110.402C102.589 116.642 103.533 117.688 101.994 120.741C100.762 123.183 99.3633 124.508 98.8179 124.865L111.939 133.362L99.5291 139.523Z" fill="#1F6F1D"/>
</g>
<path d="M67.2539 71.3274C67.2539 67.1772 70.6167 63.813 74.765 63.813H80.9421C85.0904 63.813 88.4532 67.1772 88.4532 71.3274V90.2744C88.4532 96.131 83.7075 100.879 77.8536 100.879C71.9996 100.879 67.2539 96.131 67.2539 90.2744V71.3274ZM104.554 62.3329C111.039 62.3329 116.296 57.0735 116.296 50.5856C116.296 44.0977 111.039 38.8381 104.554 38.8381C98.0691 38.8381 92.8119 44.0977 92.8119 50.5856C92.8119 57.0735 98.0691 62.3329 104.554 62.3329ZM50.8626 62.9276C44.3775 62.9276 39.1204 57.6682 39.1204 51.1803C39.1204 44.6924 44.3775 39.4328 50.8626 39.4328C57.3474 39.4328 62.6046 44.6924 62.6046 51.1803C62.6046 57.6682 57.3474 62.9276 50.8626 62.9276Z" fill="#EBBAAA"/>
<path d="M47.2434 33.7024C47.2434 17.0531 60.7342 3.55615 77.376 3.55615C94.2346 3.55615 107.813 17.3929 107.504 34.256L107.222 49.6141C107.191 51.2815 107.04 52.9443 106.77 54.5899L104.912 65.9171C103.078 77.0928 94.166 85.7608 82.9481 87.2787L82.3559 87.3588C79.2368 87.781 76.0748 87.7757 72.9571 87.3432L72.0293 87.2145C61.2612 85.7208 52.5902 77.6242 50.3589 66.9799L47.9809 55.6362C47.4905 53.2973 47.2434 50.9138 47.2434 48.5239V33.7024Z" fill="#F4D4C9"/>
<path d="M87.1437 39.9255L98.4776 40.6187M69.199 40.1668L57.8596 40.7608" stroke="#393939" stroke-width="24" stroke-linecap="round"/>
<path d="M77.3813 51.9202C75.3559 55.4955 74.7403 60.0923 78.6065 60.0923" stroke="#EBBAAA" stroke-width="17"/>
<path d="M67.254 71.3274C67.254 67.1772 70.6167 63.813 74.765 63.813H80.9421C85.0905 63.813 88.4532 67.1772 88.4532 71.3274V90.2744C88.4532 96.131 83.7076 100.879 77.8536 100.879C71.9996 100.879 67.254 96.131 67.254 90.2744V71.3274ZM104.554 62.3329C111.039 62.3329 116.296 57.0735 116.296 50.5856C116.296 44.0977 111.039 38.8381 104.554 38.8381C98.0692 38.8381 92.8119 44.0977 92.8119 50.5856C92.8119 57.0735 98.0692 62.3329 104.554 62.3329ZM50.8624 62.9276C44.3775 62.9276 39.1204 57.6682 39.1204 51.1803C39.1204 44.6924 44.3775 39.4328 50.8624 39.4328C57.3474 39.4328 62.6046 44.6924 62.6046 51.1803C62.6046 57.6682 57.3474 62.9276 50.8624 62.9276Z" fill="#EBBAAA"/>
<path d="M47.2434 33.7024C47.2434 17.0531 60.7343 3.55615 77.3761 3.55615C94.2346 3.55615 107.813 17.3929 107.504 34.256L107.222 49.6141C107.191 51.2815 107.04 52.9443 106.77 54.5899L104.912 65.9171C103.078 77.0928 94.1661 85.7608 82.9481 87.2787L82.3559 87.3588C79.2368 87.781 76.0748 87.7757 72.9571 87.3432L72.0293 87.2145C61.2613 85.7208 52.5902 77.6242 50.3589 66.9799L47.9809 55.6362C47.4905 53.2973 47.2434 50.9138 47.2434 48.5239V33.7024Z" fill="#F4D4C9"/>
<path d="M86.9985 42.2996L98.3323 42.9928C99.6429 43.0729 100.77 42.075 100.85 40.7638C100.931 39.4526 99.9331 38.3247 98.6225 38.2445L87.2886 37.5514C85.978 37.4712 84.8506 38.4692 84.7705 39.7804C84.6903 41.0916 85.6879 42.2195 86.9985 42.2996ZM69.0745 37.7914L57.7349 38.3855C56.4237 38.4542 55.4163 39.5733 55.485 40.8852C55.5537 42.197 56.6723 43.2048 57.9836 43.1361L69.3232 42.542C70.6344 42.4733 71.6417 41.3542 71.5731 40.0424C71.5044 38.7305 70.3858 37.7227 69.0745 37.7914Z" fill="#393939"/>
<path d="M75.9156 51.0896C74.7127 53.2132 74.0114 55.5339 74.1018 57.4275C74.2259 60.0285 75.858 61.7773 78.6059 61.7773V58.4076C77.7474 58.4076 77.5083 58.1514 77.4661 57.2668C77.4099 56.091 77.9314 54.3654 78.8459 52.751L75.9156 51.0896Z" fill="#EBBAAA"/>
<path d="M104.897 10.8907C106.961 13.9469 111.146 31.4825 107.278 43.5953C106.583 43.1915 105.559 35.7819 103.808 34.4775C101.829 33.0039 102.021 23.8299 100.136 21.5936C98.2516 19.3574 83.5718 19.8356 77.4221 19.8356C71.2723 19.8356 55.7697 18.7723 53.389 22.4061C51.0086 26.0399 51.8021 33.5873 50.4134 35.1712C49.3025 36.4384 47.5661 42.0734 47.1693 43.5953C47.1693 36.6071 43.7698 25.6124 47.1693 14.8041C48.4002 10.8907 56.0964 -0.0172511 75.4382 0.827722C83.4638 1.17833 92.3004 2.03894 96.0695 4.83421C99.0453 6.60455 98.7477 7.35007 100.136 8.93405C100.831 8.93405 103.648 9.03954 104.897 10.8907Z" fill="#2C2929"/>
<path d="M48.6304 32.6933V16.8397L66.8579 8.70972L68.542 23.7503L58.7568 27.0444L60.9141 23.7503L54.3012 27.0444V23.7503L48.6304 32.6933Z" fill="#2C2929"/>
<path d="M106.879 33.8831L105.789 15.35L88.651 7.32251L86.0754 17.8277L87.4624 26.8464L93.8023 24.6889L95.8827 28.0357L102.22 24.6889L106.879 33.8831Z" fill="#2C2929"/>
<path d="M63.5373 28.0263L62.925 21.8441L61.9045 7.32251H95.7838L84.3547 29.7206V26.4427L80.0688 28.0263L79.2522 24.5065L75.3746 28.0263L74.3541 26.4427L68.4355 28.0263L69.2519 26.4427L63.5373 28.0263Z" fill="#2C2929"/>
<path d="M87.335 51.3054L96.4487 49.9179C97.4223 49.7697 98.0914 48.8599 97.9432 47.8859C97.7951 46.9119 96.8857 46.2424 95.9122 46.3907L86.7985 47.7782C85.8249 47.9264 85.1557 48.8361 85.3039 49.8101C85.4521 50.7842 86.3614 51.4536 87.335 51.3054ZM68.5132 47.7782L59.3995 46.3907C58.4259 46.2424 57.5166 46.9119 57.3684 47.8859C57.2203 48.8599 57.8894 49.7697 58.863 49.9179L67.9767 51.3054C68.9503 51.4536 69.8596 50.7842 70.0078 49.8101C70.1559 48.8361 69.4868 47.9264 68.5132 47.7782Z" fill="black"/>
<mask id="mask2_910_19590" style="mask-type:alpha" maskUnits="userSpaceOnUse" x="68" y="59" width="19" height="13">
<path d="M68.8391 65.4978C68.8391 61.9401 71.722 59.0559 75.2781 59.0559H80.0331C83.5892 59.0559 86.4721 61.9401 86.4721 65.4978C86.4721 69.0556 83.5892 71.9398 80.0331 71.9398H75.2781C71.722 71.9398 68.8391 69.0556 68.8391 65.4978Z" fill="white"/>
</mask>
<g mask="url(#mask2_910_19590)">
<path d="M109.653 67.5791H69.4336V75.904H109.653V67.5791Z" fill="white"/>
</g>
</g>
<g clip-path="url(#clip0_910_19590)">
<path d="M44.5605 102.456C40.1154 111.157 36.2295 122.172 34.8719 131.817C34.0824 137.427 36.1908 142.59 40.308 147.4C43.0778 150.636 46.6125 153.603 51.4051 157.003L51.8861 157.342L52.5553 157.805C54.753 159.317 59.2204 162.342 60.6777 163.38L60.9129 163.55C64.1839 165.942 68.7758 165.231 71.1693 161.961C73.5627 158.691 72.8512 154.1 69.5802 151.707L69.3656 151.551C67.4668 150.19 61.3353 146.051 60.0945 145.174L59.7451 144.926L59.3967 144.677C55.7721 142.076 53.1996 139.892 51.4594 137.859C49.827 135.952 49.2955 134.65 49.4064 133.862C50.5102 126.02 53.8718 116.491 57.6317 109.131C59.4754 105.523 58.0439 101.103 54.4344 99.2596C50.8248 97.4164 46.4041 98.8476 44.5605 102.456ZM99.2183 111.557C103.076 118.394 105.717 126.581 107.181 136.222C107.641 139.253 103.196 143.889 93.5887 149.437L92.6394 149.981C90.9944 150.915 89.7344 151.593 86.5564 153.265L83.9013 154.661L82.8344 155.227C80.4878 156.479 79.0978 157.276 77.7885 158.133C74.3975 160.353 73.4485 164.9 75.6688 168.291C77.8668 171.647 82.347 172.61 85.7266 170.475L86.0465 170.269L86.2953 170.113C87.2886 169.497 88.6635 168.74 91.0376 167.488L94.7288 165.546L95.7691 164.996C97.6987 163.971 98.7915 163.368 100.301 162.506L100.596 162.337C106.709 158.833 111.394 155.517 114.975 151.811C120.085 146.522 122.688 140.574 121.692 134.019C119.975 122.705 116.788 112.83 112.002 104.347C110.011 100.818 105.535 99.5709 102.004 101.562C98.4743 103.553 97.2269 108.028 99.2183 111.557ZM61.478 92.4727C61.478 89.5221 63.8703 87.1304 66.8215 87.1304H88.8618C91.813 87.1304 94.2053 89.5221 94.2053 92.4727C94.2053 100.255 87.8948 106.564 80.1107 106.564H75.5725C67.7884 106.564 61.478 100.255 61.478 92.4727Z" fill="#EBBAAA"/>
<path d="M115.23 97.7395C114.119 96.391 113.247 95.5913 112.949 95.459L104.916 95.6573L100.156 128.378L126.338 122.23C123.66 113.406 116.341 99.088 115.23 97.7395ZM42.9326 97.5412C43.6467 96.748 45.0153 95.7564 45.6103 95.5581L54.5359 104.482V127.981L30.4368 121.635C34.8004 114.133 42.2186 98.3344 42.9326 97.5412Z" fill="black"/>
<path d="M45.412 95.5585C46.5228 94.3686 56.1889 90.2373 60.8831 88.3203L74.9658 91.5924L94.3046 88.3203C99.9244 89.8076 110.767 93.7737 112.751 95.1619C114.096 96.103 109.677 96.9466 109.28 101.21C108.786 106.518 104.024 124.709 104.024 129.27C104.024 144.837 106.503 167.147 105.511 170.022C105.323 170.569 92.2561 171.892 78.0402 172.005C68.4148 172.082 57.9686 169.803 50.6683 169.923C49.2798 152.77 53.34 128.624 51.8583 116.975C49.6765 99.822 44.0236 97.0458 45.412 95.5585Z" fill="#0C0F10"/>
<path d="M58.1062 93.563C58.1062 90.0104 60.9868 87.1304 64.5402 87.1304H91.1433C94.6967 87.1304 97.5773 90.0104 97.5773 93.563C97.5773 102.934 89.979 110.53 80.6063 110.53H75.0772C65.7045 110.53 58.1062 102.934 58.1062 93.563Z" fill="#1E2529"/>
<path d="M62.8665 92.0367C62.8665 89.327 65.0635 87.1304 67.7738 87.1304H87.9096C90.6198 87.1304 92.8169 89.327 92.8169 92.0367C92.8169 99.1838 87.0216 104.978 79.8729 104.978H75.8104C68.6618 104.978 62.8665 99.1838 62.8665 92.0367Z" fill="#EBBAAA"/>
<mask id="mask3_910_19590" style="mask-type:alpha" maskUnits="userSpaceOnUse" x="58" y="114" width="42" height="12">
<path d="M66.1523 118.329C66.1523 116.519 64.8373 114.787 62.3929 114.787H58.03V125.8H60.7375V121.871H62.3929C64.8373 121.871 66.1523 120.138 66.1523 118.329ZM63.4449 118.329C63.4449 118.901 63.0117 119.442 62.2691 119.442H60.7375V117.215H62.2691C63.0117 117.215 63.4449 117.756 63.4449 118.329ZM75.8983 121.933V114.787H73.1909V121.871C73.1909 122.892 72.603 123.48 71.7057 123.48C70.8083 123.48 70.2514 122.892 70.2514 121.871V114.787H67.5439V121.933C67.5439 124.346 69.4159 125.893 71.7057 125.893C73.9954 125.893 75.8983 124.346 75.8983 121.933ZM88.2159 125.8V114.787H85.5549L83.0795 119.644L80.6041 114.787H77.9431V125.8H80.6505V120.525L82.2131 123.248H83.9459L85.5084 120.525V125.8H88.2159ZM99.4265 125.8L95.4195 114.787H93.3309L89.3239 125.8H92.1551L92.6965 124.16H96.0847L96.5953 125.8H99.4265ZM95.373 121.902H93.4546L94.4448 118.963L95.373 121.902Z" fill="white"/>
</mask>
<g mask="url(#mask3_910_19590)">
<path d="M66.1523 118.329C66.1523 116.519 64.8373 114.787 62.3929 114.787H58.03V125.8H60.7375V121.871H62.3929C64.8373 121.871 66.1523 120.138 66.1523 118.329ZM63.4449 118.329C63.4449 118.901 63.0117 119.442 62.2691 119.442H60.7375V117.215H62.2691C63.0117 117.215 63.4449 117.756 63.4449 118.329ZM75.8983 121.933V114.787H73.1909V121.871C73.1909 122.892 72.603 123.48 71.7057 123.48C70.8083 123.48 70.2514 122.892 70.2514 121.871V114.787H67.5439V121.933C67.5439 124.346 69.4159 125.893 71.7057 125.893C73.9954 125.893 75.8983 124.346 75.8983 121.933ZM88.2159 125.8V114.787H85.5549L83.0795 119.644L80.6041 114.787H77.9431V125.8H80.6505V120.525L82.2131 123.248H83.9459L85.5084 120.525V125.8H88.2159ZM99.4265 125.8L95.4195 114.787H93.3309L89.3239 125.8H92.1551L92.6965 124.16H96.0847L96.5953 125.8H99.4265ZM95.373 121.902H93.4546L94.4448 118.963L95.373 121.902Z" fill="#598CBD"/>
<path d="M83.3736 96.9826L86.4287 90.5756H79.0964L77.8743 99.4234L69.6257 90.5756H56.336L49.0037 102.475L61.8351 110.865L56.336 116.662H47.1707L53.8919 125.815L47.1707 129.323L42.4353 157.545L61.8351 162.732L86.4287 155.409V146.104L77.8743 154.189L73.9028 148.239L69.6257 155.409V144.273L61.8351 149.765L49.0037 155.409V140.917H56.336L61.8351 129.323L73.2917 133.9L75.1249 144.273L83.3736 137.866L79.0964 129.323L75.1249 125.815L79.0964 121.848L83.3736 110.865V118.187L89.4839 116.662V106.288H96.0523L93.6082 116.662L100.024 118.187V129.323L98.1908 123.984L96.0523 131.764L100.024 140.917H91.6224L89.4839 151.901L93.9137 149.765L100.024 144.273H105.828L103.996 137.866L101.551 127.035L115.91 140.917L114.383 125.815L105.828 121.848L119.118 118.187L111.328 94.2368L103.996 96.9826L96.0523 87.2195L100.024 94.2368L89.4839 102.475V94.2368L83.3736 96.9826Z" fill="#5A4438"/>
<path d="M99.5286 138.742L96.2599 138.9L100.982 133.906L96.0292 134.147L97.5545 130.797C100.268 130.103 105.197 128.699 103.209 128.636C101.22 128.574 93.3327 129.049 89.6377 129.295L88.4642 135.804C88.0519 135.493 87.3358 134.648 87.769 133.753C88.2022 132.859 86.7468 131.784 85.9649 131.359L81.8045 131.561C81.6459 131.568 81.8859 134.601 82.0255 136.116C83.1882 136.887 85.1467 138.645 83.6795 139.511C81.8456 140.592 80.475 143.041 79.7991 141.386C79.2582 140.063 79.4071 137.402 79.5491 136.236L79.3353 131.829C79.3321 132.431 78.9241 133.093 77.2479 131.782C75.6004 133.847 75.4394 136.8 75.5645 138.018L73.6896 130.068L71.4112 130.179L71.1805 125.425C71.1517 124.831 69.9101 123.799 68.506 125.555C67.3827 126.959 66.4086 129.396 66.0621 130.438C65.6601 131.02 64.2256 131.877 61.7036 130.65C58.5511 129.115 57.2135 126.102 57.8079 126.074C58.4022 126.045 65.0371 123.638 61.372 123.816C58.4398 123.958 55.4706 127.014 54.3523 128.524L58.25 135.185C59.8967 135.701 62.9707 137.12 62.0928 138.671C60.9955 140.611 62.1495 143.93 59.7894 142.357C57.4295 140.784 56.9399 136.837 55.8119 136.097C54.6839 135.358 53.0912 137.321 52.0874 133.002C51.0833 128.683 49.2024 124.704 51.6068 123.099C53.5302 121.814 55.5563 119.234 56.329 118.105L58.7562 121.064L58.6072 117.994L57.2264 114.09L60.7809 111.635C59.8951 111.115 57.9059 110.086 57.0342 110.129C56.1624 110.171 56.5587 107.836 56.866 106.663L60.531 106.485C61.0404 104.706 62.3274 101.355 63.3999 102.176C63.6191 106.692 62.4171 109.206 61.7889 109.898C62.0472 110.448 62.8215 111.536 63.8517 111.486C65.1394 111.423 68.4371 111.859 65.2499 113.701C62.0361 119.496 64.1384 120.803 65.5912 120.733L64.4428 123.667C65.7991 122.973 68.4627 121.388 68.2658 120.603C68.0688 119.818 69.5033 118.822 70.2451 118.422L73.0695 117.293L74.7045 120.291L74.786 121.974L76.6856 120.195C76.8839 118.828 77.5482 116.281 78.6167 117.023L80.642 123.973L82.8675 122.773L82.728 119.901L82.5791 116.831L86.9376 116.62C85.7925 116.212 83.8267 115.123 85.1239 114.028C86.4211 112.932 88.0937 111.799 88.7679 111.369L89.3322 114.816L91.4853 122.355L94.259 122.221L94.1195 119.349L91.0049 112.452L93.7206 111.129C93.3805 112.304 92.938 114.641 93.8888 114.595C97.4549 114.422 99.3955 112.806 99.92 112.019C99.8502 111.262 99.3934 109.762 98.1253 109.823C96.8575 109.885 94.571 108.871 93.5862 108.356L99.5596 104.592C100.367 104.188 102.044 104.63 102.286 109.621C102.589 115.861 103.533 116.907 101.993 119.96C100.761 122.402 99.3628 123.727 98.8174 124.084L111.939 132.581L99.5286 138.742Z" fill="#1F6F1D"/>
</g>
<path d="M67.2517 70.5464C67.2517 66.3962 70.6145 63.032 74.7628 63.032H80.9399C85.0882 63.032 88.451 66.3962 88.451 70.5464V89.4934C88.451 95.35 83.7053 100.098 77.8514 100.098C71.9974 100.098 67.2517 95.35 67.2517 89.4934V70.5464ZM104.552 61.5519C111.037 61.5519 116.294 56.2925 116.294 49.8046C116.294 43.3167 111.037 38.0571 104.552 38.0571C98.0669 38.0571 92.8097 43.3167 92.8097 49.8046C92.8097 56.2925 98.0669 61.5519 104.552 61.5519ZM50.8604 62.1465C44.3753 62.1465 39.1182 56.8872 39.1182 50.3993C39.1182 43.9113 44.3753 38.6518 50.8604 38.6518C57.3452 38.6518 62.6024 43.9113 62.6024 50.3993C62.6024 56.8872 57.3452 62.1465 50.8604 62.1465Z" fill="#EBBAAA"/>
<path d="M47.2412 32.9211C47.2412 16.2719 60.732 2.7749 77.3738 2.7749C94.2324 2.7749 107.811 16.6117 107.502 33.4747L107.22 48.8329C107.189 50.5002 107.038 52.163 106.768 53.8086L104.91 65.1359C103.076 76.3115 94.1638 84.9796 82.9459 86.4975L82.3537 86.5776C79.2346 86.9998 76.0726 86.9944 72.9549 86.5619L72.0271 86.4333C61.259 84.9395 52.588 76.8429 50.3567 66.1987L47.9787 54.855C47.4883 52.5161 47.2412 50.1325 47.2412 47.7427V32.9211Z" fill="#F4D4C9"/>
<path d="M87.1415 39.144L98.4754 39.8372M69.1968 39.3853L57.8574 39.9793" stroke="#393939" stroke-width="24" stroke-linecap="round"/>
<path d="M77.3786 51.1387C75.3532 54.714 74.7376 59.3108 78.6038 59.3108" stroke="#EBBAAA" stroke-width="17"/>
<path d="M67.2518 70.5464C67.2518 66.3962 70.6145 63.032 74.7628 63.032H80.9399C85.0883 63.032 88.451 66.3962 88.451 70.5464V89.4934C88.451 95.35 83.7054 100.098 77.8514 100.098C71.9974 100.098 67.2518 95.35 67.2518 89.4934V70.5464ZM104.552 61.5519C111.037 61.5519 116.294 56.2925 116.294 49.8046C116.294 43.3167 111.037 38.0571 104.552 38.0571C98.067 38.0571 92.8097 43.3167 92.8097 49.8046C92.8097 56.2925 98.067 61.5519 104.552 61.5519ZM50.8602 62.1465C44.3753 62.1465 39.1182 56.8872 39.1182 50.3993C39.1182 43.9113 44.3753 38.6518 50.8602 38.6518C57.3452 38.6518 62.6024 43.9113 62.6024 50.3993C62.6024 56.8872 57.3452 62.1465 50.8602 62.1465Z" fill="#EBBAAA"/>
<path d="M47.2412 32.9211C47.2412 16.2719 60.7321 2.7749 77.3739 2.7749C94.2324 2.7749 107.811 16.6117 107.502 33.4747L107.22 48.8329C107.189 50.5002 107.038 52.163 106.768 53.8086L104.91 65.1359C103.076 76.3115 94.1639 84.9796 82.9459 86.4975L82.3537 86.5776C79.2346 86.9998 76.0726 86.9944 72.9549 86.5619L72.0271 86.4333C61.2591 84.9395 52.588 76.8429 50.3567 66.1987L47.9787 54.855C47.4884 52.5161 47.2412 50.1325 47.2412 47.7427V32.9211Z" fill="#F4D4C9"/>
<path d="M86.9963 41.5189L98.3301 42.212C99.6407 42.2922 100.768 41.2942 100.848 39.983C100.928 38.6718 99.9309 37.5439 98.6203 37.4638L87.2864 36.7706C85.9758 36.6905 84.8484 37.6884 84.7683 38.9996C84.6882 40.3108 85.6857 41.4387 86.9963 41.5189ZM69.0723 37.0107L57.7327 37.6047C56.4215 37.6734 55.4141 38.7926 55.4828 40.1044C55.5515 41.4162 56.6701 42.424 57.9814 42.3553L69.321 41.7613C70.6322 41.6926 71.6395 40.5734 71.5709 39.2616C71.5022 37.9498 70.3836 36.942 69.0723 37.0107Z" fill="#393939"/>
<path d="M75.9134 50.3079C74.7105 52.4314 74.0092 54.7522 74.0996 56.6458C74.2237 59.2468 75.8558 60.9955 78.6038 60.9955V57.6259C77.7452 57.6259 77.5061 57.3697 77.4639 56.485C77.4077 55.3092 77.9292 53.5836 78.8437 51.9693L75.9134 50.3079Z" fill="#EBBAAA"/>
<path d="M104.895 10.1095C106.958 13.1656 111.144 30.7012 107.276 42.814C106.581 42.4102 105.557 35.0006 103.806 33.6962C101.827 32.2227 102.019 23.0486 100.134 20.8124C98.2494 18.5761 83.5696 19.0543 77.4199 19.0543C71.2701 19.0543 55.7675 17.991 53.3868 21.6248C51.0064 25.2587 51.7999 32.806 50.4112 34.39C49.3003 35.6571 47.5639 41.2921 47.1671 42.814C47.1671 35.8258 43.7677 24.8311 47.1671 14.0228C48.398 10.1095 56.0942 -0.798501 75.436 0.0464724C83.4616 0.397082 92.2982 1.25769 96.0673 4.05296C99.0431 5.8233 98.7455 6.56882 100.134 8.1528C100.828 8.1528 103.646 8.25829 104.895 10.1095Z" fill="#2C2929"/>
<path d="M48.6282 31.9121V16.0584L66.8557 7.92847L68.5398 22.9691L58.7546 26.2631L60.9119 22.9691L54.299 26.2631V22.9691L48.6282 31.9121Z" fill="#2C2929"/>
<path d="M106.877 33.1016L105.787 14.5685L88.6491 6.54102L86.0735 17.0462L87.4604 26.0649L93.8003 23.9075L95.8807 27.2542L102.218 23.9075L106.877 33.1016Z" fill="#2C2929"/>
<path d="M63.5351 27.2448L62.9228 21.0626L61.9023 6.54102H95.7816L84.3525 28.9391V25.6612L80.0666 27.2448L79.2501 23.725L75.3724 27.2448L74.3519 25.6612L68.4333 27.2448L69.2497 25.6612L63.5351 27.2448Z" fill="#2C2929"/>
<path d="M95.7817 1.98242C96.277 2.34581 97.4262 3.27081 98.0602 4.06366C98.3861 4.47112 98.7401 4.97635 99.0508 6.04579C99.196 6.54582 98.8017 5.47997 98.2583 4.6583C97.7026 3.81778 96.178 2.77527 96.7724 3.46902C97.763 5.45115 100.933 12.7256 100.537 8.12702C100.14 3.52848 97.2017 2.11457 95.7817 1.98242Z" fill="#2C2929"/>
<path d="M101.626 6.34277C100.517 6.34277 99.1167 7.86241 98.5554 8.62222L101.626 9.91061L104.4 9.51418L102.221 8.62222L105.193 9.01865L103.211 7.73026L105.193 8.3249C105.028 8.19275 104.638 7.88883 104.4 7.73026C104.162 7.57169 102.848 7.13563 102.221 6.93741H103.608C103.409 6.7392 102.736 6.34277 101.626 6.34277Z" fill="#2C2929"/>
<path d="M87.3323 50.5236L96.446 49.1362C97.4196 48.9879 98.0887 48.0782 97.9406 47.1042C97.7924 46.1301 96.8831 45.4607 95.9095 45.6089L86.7958 46.9964C85.8222 47.1446 85.1531 48.0544 85.3012 49.0284C85.4494 50.0024 86.3587 50.6719 87.3323 50.5236ZM68.5105 46.9964L59.3968 45.6089C58.4233 45.4607 57.5139 46.1301 57.3658 47.1042C57.2176 48.0782 57.8867 48.9879 58.8603 49.1362L67.974 50.5236C68.9476 50.6719 69.8569 50.0024 70.0051 49.0284C70.1532 48.0544 69.4841 47.1446 68.5105 46.9964Z" fill="black"/>
<mask id="mask4_910_19590" style="mask-type:alpha" maskUnits="userSpaceOnUse" x="68" y="58" width="19" height="14">
<path d="M68.8369 64.7163C68.8369 61.1586 71.7198 58.2744 75.2759 58.2744H80.0309C83.587 58.2744 86.4699 61.1586 86.4699 64.7163C86.4699 68.2741 83.587 71.1583 80.0309 71.1583H75.2759C71.7198 71.1583 68.8369 68.2741 68.8369 64.7163Z" fill="white"/>
</mask>
<g mask="url(#mask4_910_19590)">
<path d="M109.65 66.7979H69.4312V75.1227H109.65V66.7979Z" fill="white"/>
</g>
</g>
<defs>
<clipPath id="clip0_910_19590">
<rect width="160" height="116.293" fill="white"/>
</clipPath>
</defs>
</svg>
