<svg width="160" height="178" viewBox="0 0 160 178" fill="none" xmlns="http://www.w3.org/2000/svg">
<circle cx="81.9511" cy="96" r="78.0488" fill="#993030"/>
<g clip-path="url(#clip0_910_17335)">
<path d="M78.0538 115.465C85.5999 115.465 91.7172 109.273 91.7172 101.635C91.7172 93.9971 85.5999 87.8052 78.0538 87.8052C70.5077 87.8052 64.3904 93.9971 64.3904 101.635C64.3904 109.273 70.5077 115.465 78.0538 115.465Z" fill="#993030"/>
<path d="M78.2901 86.6375H78.2899C74.1488 86.6375 70.7917 89.9945 70.7917 94.1356V101.634C70.7917 105.775 74.1488 109.132 78.2899 109.132H78.2901C82.4312 109.132 85.7882 105.775 85.7882 101.634V94.1356C85.7882 89.9945 82.4312 86.6375 78.2901 86.6375Z" fill="#EBBAAA"/>
<path d="M45.3053 110.975C45.9439 102.42 53.0713 95.8052 61.6499 95.8052H67.0208C68.7507 95.8052 70.3267 96.7995 71.0713 98.3611L75.9012 108.488L73.5597 147.122V179.82C73.5597 180.853 72.7552 181.707 71.7244 181.768L42.9626 183.48C41.7993 183.549 40.8349 182.59 40.8985 181.426L43.2182 138.927L45.3053 110.975Z" fill="#2B2D2F"/>
<path d="M76.2915 108.683L71.2183 93.4636L63.9988 95.61L68.4866 114.147L76.2915 108.683Z" fill="#494C50"/>
<path d="M111.182 110.975C110.543 102.42 103.415 95.8052 94.8368 95.8052H89.466C87.7359 95.8052 86.1599 96.7995 85.4153 98.3611L80.5854 108.488L82.9269 147.122V179.82C82.9269 180.853 83.7314 181.707 84.7622 181.768L113.524 183.48C114.688 183.549 115.652 182.59 115.588 181.426L113.268 138.927L111.182 110.975Z" fill="#2B2D2F"/>
<path d="M80.1951 108.683L85.2682 93.4636L92.4878 95.61L87.9999 114.147L80.1951 108.683Z" fill="#494C50"/>
<path d="M46.4074 70.8075C52.6651 70.8075 57.738 65.9957 57.738 60.06C57.738 54.1243 52.6651 49.3125 46.4074 49.3125C40.1498 49.3125 35.0769 54.1243 35.0769 60.06C35.0769 65.9957 40.1498 70.8075 46.4074 70.8075Z" fill="#EBBAAA"/>
<path d="M110.225 71.6408C116.483 71.6408 121.556 66.829 121.556 60.8933C121.556 54.9576 116.483 50.1458 110.225 50.1458C103.968 50.1458 98.8948 54.9576 98.8948 60.8933C98.8948 66.829 103.968 71.6408 110.225 71.6408Z" fill="#EBBAAA"/>
<path d="M44.2129 40.2264C43.8935 21.2286 59.2061 5.65625 78.2067 5.65625C97.2071 5.65625 112.52 21.2286 112.2 40.2264L111.776 65.458C111.468 83.7776 96.5288 98.4674 78.2067 98.4674C59.8843 98.4674 44.9454 83.7776 44.6373 65.458L44.2129 40.2264Z" fill="#EED4CC"/>
<path fill-rule="evenodd" clip-rule="evenodd" d="M71.1504 74.7668L71.6885 78.1647C72.517 83.3951 77.4286 86.9635 82.6591 86.1352C87.8895 85.3067 91.4581 80.3951 90.6296 75.1647L90.0915 71.7668L71.1504 74.7668Z" fill="#393939"/>
<mask id="mask0_910_17335" style="mask-type:alpha" maskUnits="userSpaceOnUse" x="71" y="71" width="20" height="16">
<path d="M71.0674 74.1375C71.0859 74.3225 71.1097 74.5082 71.1392 74.6942L71.6888 78.1642C72.5171 83.3947 77.4289 86.9633 82.6594 86.135C87.8898 85.3065 91.4584 80.3949 90.6299 75.1644L90.0803 71.6942C90.0508 71.5082 90.0163 71.3242 89.9767 71.1426L71.0674 74.1375Z" fill="white"/>
</mask>
<g mask="url(#mask0_910_17335)">
<path d="M83.1403 88.5855C86.2945 88.0859 88.6311 86.2892 88.3592 84.5724C88.0873 82.8556 85.3098 81.8688 82.1556 82.3684C79.0013 82.868 76.6648 84.6647 76.9367 86.3815C77.2086 88.0983 79.986 89.0851 83.1403 88.5855Z" fill="#FF6C6C"/>
<path d="M90.0915 71.7669L71.1504 74.7668L71.7687 78.6708L90.7098 75.6708L90.0915 71.7669Z" fill="white"/>
</g>
<path d="M59.2061 46.9108L70.1432 45.7611C71.4293 45.6259 72.3623 44.4738 72.2271 43.1877C72.0919 41.9016 70.9397 40.9687 69.6537 41.1038L58.7165 42.2535C57.4304 42.3887 56.4975 43.5408 56.6326 44.8269C56.7678 46.113 57.92 47.046 59.2061 46.9108Z" fill="#393939"/>
<path d="M64.8296 53.215V58.7305C64.8296 60.0237 65.8779 61.072 67.1711 61.072C68.4642 61.072 69.5125 60.0237 69.5125 58.7305V53.215C69.5125 51.9218 68.4642 50.8735 67.1711 50.8735C65.8779 50.8735 64.8296 51.9218 64.8296 53.215ZM87.8239 53.215V58.7305C87.8239 60.0237 88.8722 61.072 90.1654 61.072C91.4585 61.072 92.5069 60.0237 92.5069 58.7305V53.215C92.5069 51.9218 91.4585 50.8735 90.1654 50.8735C88.8722 50.8735 87.8239 51.9218 87.8239 53.215Z" fill="black"/>
<path d="M85.8041 43.4994L96.7413 44.6491C98.0273 44.7843 99.1795 43.8513 99.3147 42.5652C99.4499 41.2792 98.5169 40.127 97.2308 39.9918L86.2937 38.8422C85.0076 38.707 83.8554 39.6399 83.7202 40.926C83.5851 42.2121 84.518 43.3642 85.8041 43.4994ZM41.8013 20.4957C41.8013 13.9031 46.5775 8.19368 53.0834 7.12837L83.8473 2.09099C91.5061 0.836951 98.6971 6.12901 99.7771 13.8141C100.841 21.3843 95.5615 28.3815 87.9902 29.4362L56.9757 33.7562C48.9704 34.9107 41.8013 28.5839 41.8013 20.4957Z" fill="#393939"/>
<path d="M47.2195 29.7561C47.2195 28.5168 46.2149 27.5122 44.9756 27.5122C43.7363 27.5122 42.7317 28.5168 42.7317 29.7561V49.2683C42.7317 50.5076 43.7363 51.5122 44.9756 51.5122C46.2149 51.5122 47.2195 50.5076 47.2195 49.2683V29.7561Z" fill="#393939"/>
<path d="M55.6097 28.0976C52.6439 29.9708 49.3658 30.244 47.0244 40.0001L45.4634 30.244C50.0813 28.7482 58.5756 26.2245 55.6097 28.0976Z" fill="#393939"/>
<path d="M112.781 32.6831C112.781 31.4438 111.776 30.4392 110.537 30.4392C109.297 30.4392 108.293 31.4438 108.293 32.6831V52.0002C108.293 53.2395 109.297 54.2441 110.537 54.2441C111.776 54.2441 112.781 53.2395 112.781 52.0002V32.6831Z" fill="#393939"/>
<path d="M96.9606 6.42836L96.9604 6.42843C91.7961 8.35929 89.1749 14.1111 91.1057 19.2754L94.5117 28.3851C96.4426 33.5495 102.194 36.1707 107.359 34.2398L107.359 34.2398C112.523 32.3089 115.144 26.5571 113.214 21.3928L109.808 12.2831C107.877 7.11874 102.125 4.4975 96.9606 6.42836Z" fill="#393939"/>
<path d="M92.4752 -0.390137C91.9419 6.46807 91.9025 14.2907 91.9025 14.2907L102.639 7.00385C102.639 7.00385 97.0575 5.61078 92.4752 -0.390137ZM50.3416 38.6834C51.2528 33.0709 52.461 30.2612 51.2528 25.7562H111.61V42.5367L108.2 40.6421C108.2 34.4891 101.313 36.8356 97.6032 33.0709C91.6922 27.0729 84.9933 33.5012 81.1021 37.3736C81.1021 32.6405 78.8415 32.7482 76.8506 31.7802C77.1402 36.2549 69.9365 39.2237 65.0498 39.2237C65.0498 34.3833 65.0867 34.6844 62.9148 33.0709C58.2881 34.6382 55.6399 33.0709 50.3416 38.6834Z" fill="#393939"/>
<path d="M75.3245 58.3113C75.2613 58.7719 75.1897 59.0832 74.8504 60.4454C74.7681 60.7756 74.7097 61.0153 74.6537 61.2558C74.2384 63.0387 74.11 64.2575 74.3817 65.3897C74.8083 67.1682 76.2217 68.1935 78.3005 68.1935V64.8764C78.0869 64.8764 77.9201 64.8565 77.7978 64.8236C77.7258 64.8041 77.6859 64.7856 77.666 64.7712C77.6524 64.7613 77.6355 64.7337 77.6072 64.6159C77.4937 64.1427 77.5816 63.3074 77.8842 62.0084C77.9357 61.7876 77.9905 61.5624 78.0691 61.2471C78.4465 59.7321 78.5238 59.3958 78.6107 58.7622L75.3245 58.3113Z" fill="#EBBAAA"/>
</g>
<circle cx="78.0488" cy="99.9025" r="78.0488" fill="#D04040"/>
<mask id="mask1_910_17335" style="mask-type:alpha" maskUnits="userSpaceOnUse" x="0" y="21" width="157" height="157">
<circle cx="78.0488" cy="99.9025" r="78.0488" fill="#D9D9D9"/>
</mask>
<g mask="url(#mask1_910_17335)">
<path d="M78.4475 196.112C90.6869 196.112 100.609 191.412 100.609 185.614C100.609 179.817 90.6869 175.117 78.4475 175.117C66.2081 175.117 56.2861 179.817 56.2861 185.614C56.2861 191.412 66.2081 196.112 78.4475 196.112Z" fill="#2B2D2F"/>
<path d="M75.0314 176.189L73.2753 187.116C73.1641 187.808 73.6347 188.458 74.3263 188.57C75.0179 188.681 75.6686 188.21 75.7797 187.519L77.5358 176.592C77.647 175.9 77.1764 175.249 76.4849 175.138C75.7933 175.027 75.1425 175.498 75.0314 176.189ZM78.9223 178.644L79.8979 190.156C79.957 190.854 80.5708 191.372 81.2688 191.313C81.9667 191.254 82.4846 190.64 82.4254 189.942L81.4498 178.43C81.3907 177.732 80.7769 177.214 80.079 177.273C79.381 177.332 78.8631 177.946 78.9223 178.644Z" fill="#E5ECF3"/>
<path d="M57.679 123.578C58.156 122.861 58.6596 122.11 59.2197 121.279C59.906 120.261 62.2833 116.756 62.6973 116.143C64.0445 114.148 65.0485 112.64 65.9549 111.239C68.121 107.892 67.1632 103.422 63.8156 101.256C60.4681 99.0897 55.9984 100.047 53.8323 103.395C52.9876 104.7 52.0307 106.138 50.7323 108.06C50.3295 108.657 47.9474 112.169 47.2476 113.207C46.6721 114.061 46.1526 114.836 45.6581 115.579C42.8797 119.754 40.8123 123.051 39.1436 126.055L38.7753 126.821C35.4051 135.036 33.7371 141.319 33.232 147.885C32.798 153.527 33.132 158.538 34.3833 169.049C34.8546 173.008 38.4463 175.835 42.4056 175.364C46.3649 174.893 49.1924 171.301 48.721 167.342C47.5777 157.737 47.289 153.406 47.6285 148.993C47.9994 144.171 49.2472 139.404 51.9713 132.699C53.3876 130.185 55.217 127.278 57.679 123.578Z" fill="#EBBAAA"/>
<path d="M46.2133 117.685C47.112 107.078 55.9835 98.9268 66.6279 98.9268H87.4625C98.041 98.9268 106.88 106.98 107.862 117.513L110.43 145.069L108.674 184.585L45.8445 185.756L43.8933 145.069L46.2133 117.685Z" fill="#D04040"/>
<path d="M78.0445 115.465C85.5906 115.465 91.7079 109.273 91.7079 101.635C91.7079 93.9969 85.5906 87.8049 78.0445 87.8049C70.4984 87.8049 64.3811 93.9969 64.3811 101.635C64.3811 109.273 70.4984 115.465 78.0445 115.465Z" fill="#993030"/>
<path d="M78.2813 86.6372H78.2811C74.14 86.6372 70.783 89.9942 70.783 94.1354V101.634C70.783 105.775 74.14 109.132 78.2811 109.132H78.2813C82.4224 109.132 85.7794 105.775 85.7794 101.634V94.1354C85.7794 89.9942 82.4224 86.6372 78.2813 86.6372Z" fill="#EBBAAA"/>
<path d="M97.1297 112.16C97.6332 114.489 98.4202 116.761 99.6138 119.581C100.121 120.78 102.172 125.355 102.641 126.45C104.6 131.021 105.846 134.794 106.651 139.087C108.184 147.261 113.806 154.099 121.38 158.129C128.749 162.051 137.199 162.882 143.707 159.628C147.274 157.845 148.719 153.508 146.936 149.942C145.153 146.376 140.816 144.93 137.25 146.713C135.393 147.642 131.731 147.281 128.163 145.383C124.239 143.295 121.508 139.973 120.843 136.426C119.818 130.96 118.256 126.228 115.913 120.761C115.376 119.51 113.343 114.975 112.911 113.952C112.039 111.892 111.522 110.4 111.243 109.108C110.4 105.211 106.558 102.735 102.66 103.578C98.7632 104.42 96.287 108.263 97.1297 112.16Z" fill="#EBBAAA"/>
<path d="M27.8708 125.816C27.1256 125.05 27.1344 123.828 27.8905 123.073L52.6726 98.3416L64.2447 124.435L42.9165 141.268L27.8708 125.816Z" fill="#2B2D2F"/>
<path d="M45.2962 110.975C45.9349 102.42 53.0623 95.8049 61.6408 95.8049H67.0117C68.7417 95.8049 70.3177 96.7993 71.0623 98.3608L75.8921 108.488L73.5507 147.122V179.82C73.5507 180.853 72.7462 181.706 71.7154 181.768L42.9536 183.48C41.7903 183.549 40.8259 182.59 40.8894 181.426L43.2092 138.927L45.2962 110.975Z" fill="#2B2D2F"/>
<path d="M76.2822 108.683L71.209 93.4634L63.9895 95.6097L68.4773 114.146L76.2822 108.683Z" fill="#494C50"/>
<path d="M128.598 125.816C129.343 125.05 129.334 123.828 128.578 123.073L103.796 98.3416L92.2239 124.435L113.552 141.268L128.598 125.816Z" fill="#2B2D2F"/>
<path d="M111.173 110.975C110.534 102.42 103.406 95.8049 94.8277 95.8049H89.457C87.7269 95.8049 86.1509 96.7993 85.4063 98.3608L80.5764 108.488L82.9179 147.122V179.82C82.9179 180.853 83.7224 181.706 84.7532 181.768L113.515 183.48C114.678 183.549 115.643 182.59 115.579 181.426L113.259 138.927L111.173 110.975Z" fill="#2B2D2F"/>
<path d="M80.186 108.683L85.2592 93.4634L92.4787 95.6097L87.9909 114.146L80.186 108.683Z" fill="#494C50"/>
<path d="M85.4545 133.073C86.2088 133.073 86.8203 132.462 86.8203 131.707C86.8203 130.953 86.2088 130.342 85.4545 130.342C84.7001 130.342 84.0886 130.953 84.0886 131.707C84.0886 132.462 84.7001 133.073 85.4545 133.073Z" fill="#5F6368"/>
<path d="M86.2348 144.976C86.9891 144.976 87.6006 144.364 87.6006 143.61C87.6006 142.855 86.9891 142.244 86.2348 142.244C85.4804 142.244 84.8689 142.855 84.8689 143.61C84.8689 144.364 85.4804 144.976 86.2348 144.976Z" fill="#5F6368"/>
<path d="M86.4301 156.293C87.1844 156.293 87.7959 155.681 87.7959 154.927C87.7959 154.173 87.1844 153.561 86.4301 153.561C85.6757 153.561 85.0642 154.173 85.0642 154.927C85.0642 155.681 85.6757 156.293 86.4301 156.293Z" fill="#5F6368"/>
<path d="M86.4301 167.61C87.1844 167.61 87.7959 166.998 87.7959 166.244C87.7959 165.489 87.1844 164.878 86.4301 164.878C85.6757 164.878 85.0642 165.489 85.0642 166.244C85.0642 166.998 85.6757 167.61 86.4301 167.61Z" fill="#5F6368"/>
<path d="M84.4786 121.171C85.233 121.171 85.8445 120.559 85.8445 119.805C85.8445 119.05 85.233 118.439 84.4786 118.439C83.7243 118.439 83.1128 119.05 83.1128 119.805C83.1128 120.559 83.7243 121.171 84.4786 121.171Z" fill="#5F6368"/>
<path d="M128.218 133.886L148.525 136.02L143.535 166.51L126.76 164.747L128.218 133.886Z" fill="#056D46"/>
<path fill-rule="evenodd" clip-rule="evenodd" d="M128.301 132.293L148.746 134.645L147.695 141.463L127.99 139.375L128.301 132.293Z" fill="#184936"/>
<path fill-rule="evenodd" clip-rule="evenodd" d="M127.13 157.854L144.715 159.592L143.664 166.41L126.82 164.936L127.13 157.854Z" fill="#184936"/>
<path d="M137.064 155.903C140.458 155.903 143.21 153.151 143.21 149.756C143.21 146.362 140.458 143.61 137.064 143.61C133.669 143.61 130.917 146.362 130.917 149.756C130.917 153.151 133.669 155.903 137.064 155.903Z" fill="#DDE3E6"/>
<path d="M149.047 131.636L128.741 129.502L128.264 134.039L148.57 136.173L149.047 131.636Z" fill="white"/>
<path d="M150.071 134.365L127.172 131.958L126.695 136.495L149.594 138.901L150.071 134.365Z" fill="#DDE3E6"/>
<path d="M141.552 168.976C146.24 168.976 150.04 165.263 150.04 160.683C150.04 156.103 146.24 152.39 141.552 152.39C136.864 152.39 133.064 156.103 133.064 160.683C133.064 165.263 136.864 168.976 141.552 168.976Z" fill="#EBBAAA"/>
<path d="M46.3982 70.8075C52.6558 70.8075 57.7287 65.9957 57.7287 60.06C57.7287 54.1243 52.6558 49.3125 46.3982 49.3125C40.1405 49.3125 35.0676 54.1243 35.0676 60.06C35.0676 65.9957 40.1405 70.8075 46.3982 70.8075Z" fill="#EBBAAA"/>
<path d="M110.216 71.6405C116.474 71.6405 121.547 66.8287 121.547 60.893C121.547 54.9573 116.474 50.1455 110.216 50.1455C103.958 50.1455 98.8855 54.9573 98.8855 60.893C98.8855 66.8287 103.958 71.6405 110.216 71.6405Z" fill="#EBBAAA"/>
<path d="M44.2036 40.2264C43.8842 21.2286 59.1968 5.65625 78.1974 5.65625C97.1978 5.65625 112.511 21.2286 112.191 40.2264L111.767 65.458C111.458 83.7776 96.5195 98.4674 78.1974 98.4674C59.8751 98.4674 44.9361 83.7776 44.628 65.458L44.2036 40.2264Z" fill="#EED4CC"/>
<path fill-rule="evenodd" clip-rule="evenodd" d="M71.1414 74.7668L71.6795 78.1647C72.508 83.3951 77.4196 86.9635 82.65 86.1352C87.8805 85.3067 91.4491 80.3951 90.6206 75.1647L90.0824 71.7668L71.1414 74.7668Z" fill="#393939"/>
<mask id="mask2_910_17335" style="mask-type:alpha" maskUnits="userSpaceOnUse" x="71" y="71" width="20" height="16">
<path d="M71.0581 74.1375C71.0766 74.3225 71.1004 74.5082 71.1299 74.6942L71.6796 78.1642C72.5079 83.3947 77.4197 86.9633 82.6501 86.135C87.8805 85.3065 91.4491 80.3949 90.6206 75.1644L90.071 71.6942C90.0415 71.5082 90.007 71.3242 89.9674 71.1426L71.0581 74.1375Z" fill="white"/>
</mask>
<g mask="url(#mask2_910_17335)">
<path d="M83.1308 88.5855C86.285 88.0859 88.6216 86.2892 88.3497 84.5724C88.0777 82.8556 85.3003 81.8688 82.1461 82.3684C78.9918 82.868 76.6552 84.6647 76.9272 86.3815C77.1991 88.0983 79.9765 89.0851 83.1308 88.5855Z" fill="#FF6C6C"/>
<path d="M90.0822 71.7669L71.1411 74.7668L71.7594 78.6708L90.7005 75.6708L90.0822 71.7669Z" fill="white"/>
</g>
<path d="M59.1968 46.9108L70.1339 45.7611C71.42 45.6259 72.353 44.4738 72.2178 43.1877C72.0826 41.9016 70.9305 40.9687 69.6444 41.1038L58.7072 42.2535C57.4212 42.3887 56.4882 43.5408 56.6234 44.8269C56.7586 46.113 57.9107 47.046 59.1968 46.9108Z" fill="#393939"/>
<path d="M64.8203 53.215V58.7305C64.8203 60.0237 65.8686 61.072 67.1618 61.072C68.4549 61.072 69.5032 60.0237 69.5032 58.7305V53.215C69.5032 51.9218 68.4549 50.8735 67.1618 50.8735C65.8686 50.8735 64.8203 51.9218 64.8203 53.215ZM87.8147 53.215V58.7305C87.8147 60.0237 88.863 61.072 90.1561 61.072C91.4493 61.072 92.4976 60.0237 92.4976 58.7305V53.215C92.4976 51.9218 91.4493 50.8735 90.1561 50.8735C88.863 50.8735 87.8147 51.9218 87.8147 53.215Z" fill="black"/>
<path d="M85.7951 43.4994L96.7322 44.6491C98.0183 44.7843 99.1705 43.8513 99.3056 42.5652C99.4408 41.2792 98.5079 40.127 97.2218 39.9918L86.2846 38.8422C84.9986 38.707 83.8464 39.6399 83.7112 40.926C83.576 42.2121 84.509 43.3642 85.7951 43.4994ZM41.7922 20.4957C41.7922 13.9031 46.5684 8.19368 53.0744 7.12837L83.8383 2.09099C91.497 0.836951 98.688 6.12901 99.768 13.8141C100.832 21.3843 95.5524 28.3815 87.9811 29.4362L56.9667 33.7562C48.9614 34.9107 41.7922 28.5839 41.7922 20.4957Z" fill="#393939"/>
<path d="M47.2102 29.7561C47.2102 28.5168 46.2056 27.5122 44.9663 27.5122C43.727 27.5122 42.7224 28.5168 42.7224 29.7561V49.2683C42.7224 50.5076 43.727 51.5122 44.9663 51.5122C46.2056 51.5122 47.2102 50.5076 47.2102 49.2683V29.7561Z" fill="#393939"/>
<path d="M55.6004 28.0976C52.6346 29.9708 49.3565 30.244 47.0151 40.0001L45.4541 30.244C50.0721 28.7482 58.5663 26.2245 55.6004 28.0976Z" fill="#393939"/>
<path d="M112.771 32.6829C112.771 31.4436 111.767 30.439 110.527 30.439C109.288 30.439 108.283 31.4436 108.283 32.6829V51.9999C108.283 53.2392 109.288 54.2438 110.527 54.2438C111.767 54.2438 112.771 53.2392 112.771 51.9999V32.6829Z" fill="#393939"/>
<path d="M96.9516 6.42836L96.9514 6.42843C91.7871 8.35929 89.1659 14.1111 91.0967 19.2754L94.5027 28.3851C96.4336 33.5495 102.185 36.1707 107.35 34.2398L107.35 34.2398C112.514 32.3089 115.135 26.5571 113.205 21.3928L109.799 12.2831C107.868 7.11874 102.116 4.4975 96.9516 6.42836Z" fill="#393939"/>
<path d="M92.4659 -0.390137C91.9327 6.46807 91.8932 14.2907 91.8932 14.2907L102.63 7.00385C102.63 7.00385 97.0482 5.61078 92.4659 -0.390137ZM50.3323 38.6834C51.2435 33.0709 52.4517 30.2612 51.2435 25.7562H111.601V42.5367L108.191 40.6421C108.191 34.4891 101.304 36.8356 97.5939 33.0709C91.6829 27.0729 84.984 33.5012 81.0929 37.3736C81.0929 32.6405 78.8322 32.7482 76.8413 31.7802C77.1309 36.2549 69.9272 39.2237 65.0406 39.2237C65.0406 34.3833 65.0774 34.6844 62.9055 33.0709C58.2788 34.6382 55.6306 33.0709 50.3323 38.6834Z" fill="#393939"/>
<path d="M75.3152 58.3113C75.252 58.7719 75.1804 59.0832 74.8411 60.4454C74.7588 60.7756 74.7004 61.0153 74.6444 61.2558C74.2291 63.0387 74.1007 64.2575 74.3724 65.3897C74.799 67.1682 76.2124 68.1935 78.2912 68.1935V64.8764C78.0776 64.8764 77.9108 64.8565 77.7886 64.8236C77.7165 64.8041 77.6766 64.7856 77.6567 64.7712C77.6431 64.7613 77.6262 64.7337 77.5979 64.6159C77.4844 64.1427 77.5724 63.3074 77.875 62.0084C77.9264 61.7876 77.9813 61.5624 78.0598 61.2471C78.4372 59.7321 78.5145 59.3958 78.6015 58.7622L75.3152 58.3113Z" fill="#EBBAAA"/>
</g>
<defs>
<clipPath id="clip0_910_17335">
<rect width="160" height="96" fill="white"/>
</clipPath>
</defs>
</svg>
