<svg width="160" height="185" viewBox="0 0 160 185" fill="none" xmlns="http://www.w3.org/2000/svg">
<circle cx="81.9511" cy="102.245" r="78.0488" fill="#9A4E16"/>
<circle cx="78.0488" cy="106.147" r="78.0488" fill="#A6612E"/>
<mask id="mask0_910_20113" style="mask-type:alpha" maskUnits="userSpaceOnUse" x="0" y="28" width="157" height="157">
<circle cx="78.0488" cy="106.147" r="78.0488" fill="#D9D9D9"/>
</mask>
<g mask="url(#mask0_910_20113)">
<path d="M77.4917 191.789C89.9371 191.789 100.026 187.01 100.026 181.115C100.026 175.22 89.9371 170.44 77.4917 170.44C65.046 170.44 54.957 175.22 54.957 181.115C54.957 187.01 65.046 191.789 77.4917 191.789Z" fill="#35383E"/>
<path d="M53.2683 169.171H79.6098L78.6342 239.374L77.0732 244.878L62.1464 244.097L59.8802 238.107L53.2683 169.171Z" fill="#35383E"/>
<path d="M79.3589 170.346H105.79L104.78 237.854L102.634 243.512L87.4145 246.131L85.9977 239.415L79.3589 170.346Z" fill="#35383E"/>
<path d="M43.2187 163.932C43.1021 160.912 43.3881 156.772 44.0355 152.139L44.0671 151.914C45.4278 142.316 48.0709 132.346 50.588 127.323L50.6642 127.172C52.4779 123.621 51.0697 119.273 47.5189 117.459C43.968 115.645 39.6192 117.053 37.8055 120.604C34.4473 127.179 31.4116 138.518 29.8188 149.553L29.771 149.888C28.9896 155.4 28.6344 160.448 28.7904 164.489C28.8822 166.868 29.1484 168.943 29.643 170.74C30.4087 173.522 31.7125 175.801 34.0973 177.36C37.4345 179.542 41.9087 178.606 44.0907 175.268C45.8854 172.524 45.5704 169.009 43.545 166.634L43.4831 166.563C43.3598 165.954 43.2621 165.056 43.2187 163.932ZM103.511 122.608C107.138 129.039 110.071 138.99 111.597 149.476C112.942 158.72 112.929 167.079 111.881 170.125L111.849 170.216C110.486 173.963 112.419 178.106 116.166 179.468C119.914 180.831 124.056 178.898 125.418 175.15C127.529 169.347 127.563 158.923 125.885 147.397C124.124 135.292 120.711 123.711 116.087 115.514C114.128 112.041 109.724 110.814 106.252 112.773C102.779 114.732 101.552 119.136 103.511 122.608Z" fill="#EBBAAA"/>
<path d="M57.7861 120.876L37.397 114.251L36.3908 117.347L56.78 123.972L57.7861 120.876Z" fill="#F1EDED"/>
<path d="M100.145 127.995L120.535 121.37L119.529 118.274L99.1393 124.899L100.145 127.995Z" fill="#F1EDED"/>
<path d="M53.7659 105.194C53.9288 98.4782 59.3046 93.0562 66.018 92.8369L81.691 92.3241C82.968 92.2839 84.2472 92.3502 85.5122 92.5253L100.811 94.641C107.561 95.5741 112.363 101.676 111.684 108.456L108.789 137.312L110.241 178.653C110.255 179.007 93.4266 178.671 93.0726 178.653H66.018L50.6406 176.332C50.3007 176.314 50.0412 176.019 50.0695 175.679L53.0742 133.718L53.7659 105.194Z" fill="#A6612E"/>
<path d="M79.2413 109.81C87.0166 109.81 93.3194 103.507 93.3194 95.7316C93.3194 87.9566 87.0166 81.6536 79.2413 81.6536C71.4661 81.6536 65.1631 87.9566 65.1631 95.7316C65.1631 103.507 71.4661 109.81 79.2413 109.81Z" fill="#9A4E16"/>
<path d="M79.4865 80.6482H78.9961C74.9107 80.6482 71.5989 83.9601 71.5989 88.0455V96.3793C71.5989 100.465 74.9107 103.777 78.9961 103.777H79.4865C83.5719 103.777 86.8838 100.465 86.8838 96.3793V88.0455C86.8838 83.9601 83.5719 80.6482 79.4865 80.6482Z" fill="#EBBAAA"/>
<path d="M67.6673 113.321C69.9277 105.69 65.5739 97.6708 57.9427 95.4103C50.3115 93.1498 42.2928 97.5037 40.0323 105.135L28.2876 144.784C26.0271 152.416 30.381 160.434 38.0122 162.695C45.6433 164.955 53.6621 160.601 55.9226 152.97L67.6673 113.321Z" fill="#D1D6DF"/>
<path d="M27.5511 169.756C26.3023 166.166 27.1216 148.878 28.6826 143.025L49.795 146.732C47.4143 154.147 47.024 163.903 45.2679 173.464L45.2381 173.465C41.112 173.662 29.1083 174.233 27.5511 169.756Z" fill="#D1D6DF"/>
<path d="M32.78 142.634L46.9264 146.927L31.5117 145.464L32.78 142.634Z" fill="#BAC1CF"/>
<path d="M36.2922 148.293L47.2191 147.708L37.7557 150.732L36.2922 148.293Z" fill="#BAC1CF"/>
<path d="M41.658 171.708C42.4662 171.708 43.1214 171.052 43.1214 170.244C43.1214 169.436 42.4662 168.781 41.658 168.781C40.8498 168.781 40.1946 169.436 40.1946 170.244C40.1946 171.052 40.8498 171.708 41.658 171.708Z" fill="#9CA8BB"/>
<path d="M86.5787 114.366C83.8073 106.317 88.0854 97.5458 96.1341 94.7744C104.183 92.003 112.954 96.2811 115.726 104.33L130.357 146.822C133.128 154.871 128.85 163.642 120.802 166.414C112.753 169.185 103.981 164.907 101.21 156.858L86.5787 114.366Z" fill="#D1D6DF"/>
<path d="M76.4873 143.22C76.3324 130.116 77.0727 113.688 77.0727 107.415C75.7069 107.415 74.341 107.22 73.3654 106.634C73.4181 101.592 73.7748 96.4207 71.6317 91.7075L54.9441 94.9216C52.3447 98.4987 47.7714 109.186 47.0376 129.658C46.3035 150.13 47.8021 170.232 47.0376 179.45C50.2487 180.379 68.2778 183.474 78.8288 180.172C78.8288 166.964 76.7168 162.618 76.4873 143.22Z" fill="#D6DCE7"/>
<path d="M65.9508 176.976C61.58 177.288 51.5117 174.244 47.0239 172.683V179.317C49.5605 181.268 56.1404 181.882 59.7069 182.439C65.9508 183.415 71.4142 182.439 79.2191 181.268L78.8288 175.317C76.0971 175.903 70.3215 176.664 65.9508 176.976Z" fill="#C4CAD3"/>
<path d="M130.536 170.147C131.785 166.556 132.097 153.952 130.536 148.098L108.292 147.122C110.673 154.537 111.063 164.293 112.82 173.854L112.849 173.855C116.975 174.052 128.979 174.624 130.536 170.147Z" fill="#D1D6DF"/>
<path d="M124 140.488L109.853 144.781L125.268 143.317L124 140.488Z" fill="#BAC1CF"/>
<path d="M121.366 146.732L110.439 146.147L119.902 149.171L121.366 146.732Z" fill="#BAC1CF"/>
<path d="M116.43 172.098C115.621 172.098 114.966 171.443 114.966 170.635C114.966 169.826 115.621 169.171 116.43 169.171C117.238 169.171 117.893 169.826 117.893 170.635C117.893 171.443 117.238 172.098 116.43 172.098Z" fill="#9CA8BB"/>
<path d="M82.1458 143.708C82.2916 131.028 81.9507 113.193 81.9507 107.122C83.0239 107.122 84.1848 107.22 85.658 106.732C86.3571 101.542 88.2461 95.7822 90.2201 91.3174L101.546 93.1437C104.363 93.598 106.853 95.2204 107.58 97.98C109.199 104.129 110.387 115.645 110.914 130.756C111.605 150.566 112.646 170.929 113.365 179.849C107.754 180.648 93.2447 183.044 83.3165 179.849C83.3165 167.069 81.93 162.479 82.1458 143.708Z" fill="#D6DCE7"/>
<path d="M76.4872 134.829C71.4921 139.825 52.8125 152.13 46.8287 154.342V173.464L59.9018 176.39C59.9018 176.39 59.438 170.763 62.2433 165.854C66.9262 157.659 69.0726 152.195 76.4872 146.732V134.829ZM107.512 98.2441C105.17 107.61 87.9994 126.634 82.1457 130.732V145.366C99.1214 125.269 104.78 119.805 109.951 115.903C109.951 112.683 108.975 100.976 107.512 98.2441ZM66.1457 100C65.1701 97.8539 63.0888 94.7319 62.4384 92.9758C61.8531 93.431 56.4872 93.6588 50.9262 94.7319C44.4095 95.9895 42.3409 100.293 40.975 102.634C39.6092 104.976 35.3165 118.342 34.6335 123.708C35.9994 124.683 42.0482 122.049 44.6823 119.317C46.3955 117.541 48.2921 112.098 52.4872 108.586C55.1844 106.327 67.1984 102.316 66.1457 100Z" fill="#43519A"/>
<path d="M63.0701 86.4392C61.8994 89.1709 61.5741 91.0572 61.8994 93.6587C61.8994 97.8289 69.9466 103.93 73.3936 106.746C74.7774 101.268 74.7774 91.3309 73.5887 91.3309C70.971 91.3309 65.9969 88.9758 63.0701 86.4392ZM95.9719 86.4392C97.1427 88.9758 97.4679 91.0572 97.1427 93.6587C97.1427 97.8289 88.9005 104.125 85.4533 106.941C84.0695 101.464 84.2646 91.3309 85.4533 91.3309C88.0713 91.3309 93.0451 88.9758 95.9719 86.4392Z" fill="#C4CAD3"/>
<path d="M86.4992 118.184L84.161 118.306C83.7843 118.326 83.495 118.647 83.5147 119.024C83.5345 119.401 83.8558 119.69 84.2325 119.67L86.5707 119.548C86.9474 119.528 87.2367 119.207 87.217 118.83C87.1972 118.453 86.8759 118.164 86.4992 118.184Z" fill="#EAF0FA"/>
<path d="M86.532 132.915L84.1937 133.038C83.8171 133.057 83.5277 133.379 83.5475 133.755C83.5672 134.132 83.8885 134.421 84.2652 134.402L86.6034 134.279C86.9801 134.259 87.2694 133.938 87.2497 133.561C87.23 133.185 86.9086 132.895 86.532 132.915Z" fill="#EAF0FA"/>
<path d="M96.3899 176C100.761 176.313 109.268 175.903 112.975 172.878L113.365 179.708C109.463 180.683 104.097 181.464 102.634 181.464C96.3142 181.464 90.9265 181.659 83.1216 180.488V174.732C85.8533 175.317 92.0191 175.688 96.3899 176Z" fill="#C4CAD3"/>
<path d="M86.532 147.353L84.1937 147.475C83.8171 147.495 83.5277 147.817 83.5475 148.193C83.5672 148.57 83.8885 148.859 84.2652 148.839L86.6034 148.717C86.9801 148.697 87.2694 148.376 87.2497 147.999C87.23 147.623 86.9086 147.333 86.532 147.353Z" fill="#EAF0FA"/>
<path d="M86.9221 161.207L84.5838 161.329C84.2072 161.349 83.9179 161.67 83.9376 162.047C83.9573 162.424 84.2787 162.713 84.6553 162.693L86.9936 162.571C87.3702 162.551 87.6596 162.23 87.6398 161.853C87.6201 161.476 87.2988 161.187 86.9221 161.207Z" fill="#EAF0FA"/>
<path d="M73.4629 120.39C74.2711 120.39 74.9263 119.735 74.9263 118.927C74.9263 118.119 74.2711 117.464 73.4629 117.464C72.6547 117.464 71.9995 118.119 71.9995 118.927C71.9995 119.735 72.6547 120.39 73.4629 120.39Z" fill="#9CA8BB"/>
<path d="M87.8003 177.577L85.4696 177.353C85.0941 177.317 84.7605 177.592 84.7243 177.967C84.6882 178.343 84.9632 178.676 85.3387 178.713L87.6694 178.937C88.0448 178.973 88.3784 178.698 88.4146 178.323C88.4507 177.947 88.1757 177.614 87.8003 177.577Z" fill="#9CA8BB"/>
<path d="M73.0728 134.634C73.881 134.634 74.5362 133.979 74.5362 133.171C74.5362 132.363 73.881 131.708 73.0728 131.708C72.2646 131.708 71.6094 132.363 71.6094 133.171C71.6094 133.979 72.2646 134.634 73.0728 134.634Z" fill="#9CA8BB"/>
<path d="M73.2679 149.854C74.0761 149.854 74.7313 149.199 74.7313 148.39C74.7313 147.582 74.0761 146.927 73.2679 146.927C72.4596 146.927 71.8044 147.582 71.8044 148.39C71.8044 149.199 72.4596 149.854 73.2679 149.854Z" fill="#9CA8BB"/>
<path d="M74.4385 163.903C75.2467 163.903 75.9019 163.247 75.9019 162.439C75.9019 161.631 75.2467 160.976 74.4385 160.976C73.6303 160.976 72.9751 161.631 72.9751 162.439C72.9751 163.247 73.6303 163.903 74.4385 163.903Z" fill="#9CA8BB"/>
<path d="M76.1946 179.708C77.0028 179.708 77.658 179.052 77.658 178.244C77.658 177.436 77.0028 176.781 76.1946 176.781C75.3864 176.781 74.7312 177.436 74.7312 178.244C74.7312 179.052 75.3864 179.708 76.1946 179.708Z" fill="#9CA8BB"/>
<path d="M51.1216 147.708H54.6338L55.6094 164.488L51.9021 164.878L51.1216 147.708Z" fill="#EAF0FA"/>
<path d="M107.317 148.098H103.804L102.829 164.878L106.536 165.269L107.317 148.098Z" fill="#EAF0FA"/>
<path d="M107.564 67.6164C113.951 67.6164 119.128 62.4391 119.128 56.0523C119.128 49.6656 113.951 44.488 107.564 44.488C101.177 44.488 95.9998 49.6656 95.9998 56.0523C95.9998 62.4391 101.177 67.6164 107.564 67.6164ZM53.1249 68.2018C46.7382 68.2018 41.5608 63.0244 41.5608 56.6377C41.5608 50.251 46.7382 45.0734 53.1249 45.0734C59.5116 45.0734 64.6892 50.251 64.6892 56.6377C64.6892 63.0244 59.5116 68.2018 53.1249 68.2018Z" fill="#EBBAAA"/>
<path d="M49.5608 34.4023C49.5608 17.9889 62.8665 4.68311 79.28 4.68311C95.8736 4.68311 109.253 18.2711 108.996 34.8626L108.54 64.2964C108.294 80.1528 95.3703 92.8782 79.512 92.8782C64.1231 92.8782 51.4066 80.8724 50.5229 65.5089L49.5608 48.7807V34.4023Z" fill="#F4D4C9"/>
<path d="M73.8067 76.6308C77.6289 78.7542 82.1402 78.6992 87.0076 76.708C87.7756 76.3938 88.1435 75.5166 87.8293 74.7486C87.5151 73.9807 86.6379 73.6128 85.8699 73.9269C81.7863 75.5975 78.2125 75.6411 75.266 74.0042C74.5406 73.6012 73.626 73.8625 73.223 74.5878C72.8201 75.3132 73.0814 76.2278 73.8067 76.6308Z" fill="#C99584"/>
<path d="M80.0225 21.4433C65.1538 21.4433 53.1565 21.4433 52.3684 32.2796C51.1942 48.4224 48.3868 49.7209 46.2584 42.2347C45.9339 41.0938 43.6901 33.4626 43.6438 32.2796C44.4863 9.27858 71.3944 1.00586 80.6652 1.00586C88.2632 7.18857 94.8929 21.4433 80.0225 21.4433Z" fill="#272727"/>
<path d="M48.0702 32.2465C48.0189 30.6726 49.0234 29.3635 50.2806 29.3635C51.585 29.3635 52.606 30.7676 52.4827 32.393L50.3998 59.9276C50.3649 60.3881 50.0566 60.7378 49.689 60.7378C49.3048 60.7378 48.9904 60.3598 48.974 59.8814L48.0702 32.2465ZM110.412 32.1171C110.464 30.6139 109.459 29.3635 108.202 29.3635C106.898 29.3635 105.877 30.7048 106 32.257L108.083 58.5563C108.118 58.9959 108.426 59.33 108.794 59.33C109.178 59.33 109.492 58.9688 109.509 58.512L110.412 32.1171Z" fill="#272727"/>
<path d="M79.1156 21.4433C94.437 21.4433 105.358 22.9518 105.99 33.989C107.557 42.645 112.426 55.7096 116.046 29.9666C115.179 6.96574 88.0965 1.00586 78.5433 1.00586C70.7139 7.18859 63.7923 21.4433 79.1156 21.4433Z" fill="#272727"/>
<path d="M89.4774 49.1547V54.7639C89.4774 56.057 90.5257 57.1053 91.8188 57.1053C93.112 57.1053 94.1603 56.057 94.1603 54.7639V49.1547C94.1603 47.8615 93.112 46.8132 91.8188 46.8132C90.5257 46.8132 89.4774 47.8615 89.4774 49.1547ZM64.3223 49.1547V54.7639C64.3223 56.057 65.3706 57.1053 66.6637 57.1053C67.9569 57.1053 69.0052 56.057 69.0052 54.7639V49.1547C69.0052 47.8615 67.9569 46.8132 66.6637 46.8132C65.3706 46.8132 64.3223 47.8615 64.3223 49.1547Z" fill="black"/>
<path d="M88.7134 41.685L99.8755 42.3673C101.166 42.4462 102.277 41.4638 102.355 40.1731C102.434 38.8824 101.452 37.772 100.161 37.6931L88.9991 37.0108C87.7083 36.9319 86.598 37.9143 86.5191 39.205C86.4402 40.4958 87.4226 41.6061 88.7134 41.685ZM71.061 37.2475L59.8934 37.8323C58.602 37.8999 57.61 39.0016 57.6776 40.293C57.7452 41.5843 58.8469 42.5764 60.1383 42.5088L71.3059 41.924C72.5973 41.8564 73.5893 40.7547 73.5217 39.4633C73.4541 38.1719 72.3524 37.1799 71.061 37.2475Z" fill="#393939"/>
<path d="M77.7986 56.5483C76.6139 58.6388 75.9233 60.9233 76.0123 62.7874C76.1346 65.3479 77.7419 67.0693 80.4482 67.0693V63.7523C79.6027 63.7523 79.3672 63.5 79.3256 62.6292C79.2703 61.4717 79.7838 59.773 80.6844 58.1839L77.7986 56.5483Z" fill="#EBBAAA"/>
<path d="M50.3413 42.3417V26.7353L68.2925 18.7319V29.5364L62.7077 36.7393V33.538L58.3197 36.7393L55.9261 33.538L50.3413 42.3417Z" fill="#272727"/>
<path d="M107.707 43.5126V25.4113L89.7559 17.3662V28.2271L91.551 37.68L94.7424 34.4618L98.3326 37.68L103.12 34.4618L107.707 43.5126Z" fill="#272727"/>
<path d="M67.0323 38.3326L64.4194 31.6614L63.4143 17.3662H96.7802L87.5341 40.0004L85.5242 36.1883L83.3132 38.3326L80.4992 34.2823L78.6902 38.3326L75.6752 36.1883L71.8563 38.3326L70.6502 36.1883L67.0323 38.3326Z" fill="#272727"/>
<path d="M98.4752 8.66387C99.4229 8.72989 100.247 8.64818 101.071 8.2549C102.289 7.67357 103.088 6.5238 103.31 4.79494C103.371 4.31394 103.031 3.87404 102.55 3.8124C102.069 3.75075 101.629 4.0907 101.568 4.5717C101.42 5.7209 100.982 6.35136 100.315 6.67002C99.8251 6.90367 99.269 6.95882 98.5972 6.91202C98.1135 6.87832 97.694 7.24316 97.6603 7.72692C97.6266 8.21068 97.9914 8.63017 98.4752 8.66387ZM49.6417 14.3997L49.7189 14.349C49.9652 14.1839 50.5047 13.8029 50.6055 13.7352C51.341 13.2408 51.9112 12.995 52.4782 12.977C53.1953 12.9543 53.9332 13.3161 54.7586 14.2429C55.0811 14.605 55.6361 14.6372 55.9982 14.3147C56.3604 13.9922 56.3925 13.4371 56.07 13.075C54.9174 11.7807 53.6953 11.1815 52.4227 11.2218C51.4854 11.2515 50.6673 11.5917 49.7239 12.2124L49.6259 12.2777C49.4801 12.3756 48.8372 12.8301 48.6991 12.918C48.2899 13.1783 48.1692 13.721 48.4295 14.1302C48.6898 14.5393 49.2325 14.66 49.6417 14.3997ZM44.7478 38.3927C43.9252 36.9591 43.8073 35.5832 44.2567 34.4609C44.612 33.5739 45.294 32.97 45.9017 32.8792L45.9472 32.8734C46.4293 32.8216 46.7782 32.3887 46.7263 31.9065C46.6745 31.4244 46.2416 31.0755 45.7594 31.1274C44.4469 31.2685 43.218 32.3312 42.6265 33.808C41.9735 35.4385 42.1396 37.3757 43.2246 39.2666C43.4659 39.6873 44.0025 39.8326 44.4232 39.5913C44.8438 39.3499 44.9891 38.8133 44.7478 38.3927ZM101.685 12.6755L101.768 12.6292C102.022 12.4843 102.573 12.1541 102.678 12.0946C104.384 11.1217 105.58 11.0895 107.101 12.5385C107.452 12.873 108.008 12.8596 108.343 12.5085C108.677 12.1574 108.664 11.6016 108.313 11.2671C107.129 10.1397 105.896 9.62643 104.627 9.66052C103.695 9.68555 102.87 9.97609 101.915 10.5089L101.808 10.5692C101.658 10.6543 100.995 11.0525 100.851 11.1301C100.424 11.3605 100.265 11.8932 100.495 12.3199C100.726 12.7466 101.258 12.9058 101.685 12.6755Z" fill="#272727"/>
</g>
<g clip-path="url(#clip0_910_20113)">
<path d="M53.7664 105.193C53.9293 98.478 59.3051 93.056 66.0185 92.8366L81.6914 92.3239C82.9685 92.2837 84.2477 92.35 85.5127 92.525L100.812 94.6407C107.561 95.5738 112.364 101.676 111.684 108.455L108.79 137.312L110.242 178.653C110.256 179.007 93.4271 178.671 93.0731 178.653H66.0185L50.6411 176.332C50.3012 176.314 50.0417 176.018 50.07 175.679L53.0747 133.718L53.7664 105.193Z" fill="#A6612E"/>
<path d="M79.2418 109.809C87.017 109.809 93.3199 103.506 93.3199 95.7311C93.3199 87.9561 87.017 81.6531 79.2418 81.6531C71.4666 81.6531 65.1636 87.9561 65.1636 95.7311C65.1636 103.506 71.4666 109.809 79.2418 109.809Z" fill="#9A4E16"/>
<path d="M79.487 80.6477H78.9966C74.9112 80.6477 71.5994 83.9596 71.5994 88.045V96.3788C71.5994 100.464 74.9112 103.776 78.9966 103.776H79.487C83.5724 103.776 86.8842 100.464 86.8842 96.3788V88.045C86.8842 83.9596 83.5724 80.6477 79.487 80.6477Z" fill="#EBBAAA"/>
<path d="M67.6678 113.32C69.9282 105.689 65.5744 97.6703 57.9432 95.4098C50.312 93.1494 42.2933 97.5032 40.0328 105.134L28.2881 144.784C26.0276 152.415 30.3815 160.434 38.0126 162.694C45.6438 164.955 53.6626 160.601 55.9231 152.97L67.6678 113.32Z" fill="#D1D6DF"/>
<path d="M86.5792 114.366C83.8078 106.317 88.0859 97.5455 96.1346 94.7741C104.183 92.0028 112.955 96.2809 115.726 104.33L130.357 146.822C133.129 154.871 128.851 163.642 120.802 166.414C112.753 169.185 103.982 164.907 101.211 156.858L86.5792 114.366Z" fill="#D1D6DF"/>
<path d="M76.4878 143.219C76.3329 130.116 77.0732 113.688 77.0732 107.415C75.7073 107.415 74.3415 107.219 73.3659 106.634C73.4186 101.592 73.7752 96.4204 71.6322 91.7073L54.9446 94.9213C52.3452 98.4985 47.7719 109.186 47.0381 129.658C46.304 150.13 47.8026 170.232 47.0381 179.45C50.2492 180.378 68.2783 183.474 78.8293 180.172C78.8293 166.964 76.7173 162.618 76.4878 143.219Z" fill="#D6DCE7"/>
<path d="M82.1463 143.707C82.292 131.028 81.9512 113.192 81.9512 107.122C83.0243 107.122 84.1853 107.219 85.6585 106.732C86.3576 101.541 88.2466 95.7817 90.2206 91.3169L101.546 93.1432C104.363 93.5975 106.853 95.2199 107.58 97.9795C109.2 104.129 110.388 115.645 110.915 130.756C111.605 150.565 112.646 170.929 113.366 179.849C107.754 180.647 93.2452 183.044 83.317 179.849C83.317 167.068 81.9305 162.478 82.1463 143.707Z" fill="#D6DCE7"/>
<path d="M76.4877 134.829C71.4926 139.824 52.813 152.13 46.8292 154.341V173.463L59.9023 176.39C59.9023 176.39 59.4385 170.763 62.2438 165.854C66.9267 157.659 69.0731 152.195 76.4877 146.732V134.829ZM107.512 98.2439C105.171 107.61 87.9999 126.634 82.1462 130.732V145.366C99.1218 125.268 104.78 119.805 109.951 115.902C109.951 112.683 108.975 100.976 107.512 98.2439ZM66.1462 100C65.1706 97.8536 63.0893 94.7317 62.4389 92.9756C61.8535 93.4308 56.4877 93.6585 50.9267 94.7317C44.41 95.9892 42.3413 100.293 40.9755 102.634C39.6096 104.976 35.317 118.341 34.634 123.707C35.9999 124.683 42.0487 122.049 44.6828 119.317C46.396 117.54 48.2926 112.098 52.4877 108.585C55.1849 106.327 67.1989 102.316 66.1462 100Z" fill="#43519A"/>
<path d="M63.0706 86.439C61.8999 89.1707 61.5746 91.0569 61.8999 93.6585C61.8999 97.8286 69.9471 103.93 73.3941 106.745C74.7779 101.268 74.7779 91.3307 73.5892 91.3307C70.9715 91.3307 65.9974 88.9756 63.0706 86.439ZM95.9724 86.439C97.1432 88.9756 97.4684 91.0569 97.1432 93.6585C97.1432 97.8286 88.901 104.125 85.4538 106.94C84.07 101.463 84.2651 91.3307 85.4538 91.3307C88.0718 91.3307 93.0456 88.9756 95.9724 86.439Z" fill="#C4CAD3"/>
<path d="M107.564 67.6162C113.951 67.6162 119.128 62.4388 119.128 56.0521C119.128 49.6654 113.951 44.4878 107.564 44.4878C101.177 44.4878 95.9998 49.6654 95.9998 56.0521C95.9998 62.4388 101.177 67.6162 107.564 67.6162ZM53.1249 68.2015C46.7382 68.2015 41.5608 63.0242 41.5608 56.6375C41.5608 50.2507 46.7382 45.0732 53.1249 45.0732C59.5116 45.0732 64.6892 50.2507 64.6892 56.6375C64.6892 63.0242 59.5116 68.2015 53.1249 68.2015Z" fill="#EBBAAA"/>
<path d="M49.5608 34.4021C49.5608 17.9886 62.8665 4.68286 79.28 4.68286C95.8736 4.68286 109.253 18.2708 108.996 34.8624L108.54 64.2961C108.294 80.1525 95.3703 92.878 79.512 92.878C64.1231 92.878 51.4066 80.8721 50.5229 65.5086L49.5608 48.7804V34.4021Z" fill="#F4D4C9"/>
<path d="M73.8067 76.63C77.6289 78.7535 82.1402 78.6985 87.0076 76.7072C87.7756 76.3931 88.1435 75.5158 87.8293 74.7479C87.5151 73.9799 86.6379 73.6121 85.8699 73.9262C81.7863 75.5968 78.2125 75.6404 75.266 74.0034C74.5406 73.6005 73.626 73.8618 73.223 74.5871C72.8201 75.3124 73.0814 76.2271 73.8067 76.63Z" fill="#C99584"/>
<path d="M80.0225 21.4435C65.1538 21.4435 53.1565 21.4435 52.3684 32.2798C51.1942 48.4226 48.3868 49.7212 46.2584 42.2349C45.9339 41.094 43.6901 33.4628 43.6438 32.2798C44.4863 9.27883 71.3944 1.0061 80.6652 1.0061C88.2632 7.18882 94.8929 21.4435 80.0225 21.4435Z" fill="#272727"/>
<path d="M48.0702 32.2457C48.0189 30.6719 49.0234 29.3628 50.2806 29.3628C51.585 29.3628 52.606 30.7669 52.4827 32.3923L50.3998 59.9269C50.3649 60.3874 50.0566 60.737 49.689 60.737C49.3048 60.737 48.9904 60.3591 48.974 59.8807L48.0702 32.2457ZM110.412 32.1164C110.464 30.6131 109.459 29.3628 108.202 29.3628C106.898 29.3628 105.877 30.7041 106 32.2563L108.083 58.5556C108.118 58.9952 108.426 59.3292 108.794 59.3292C109.178 59.3292 109.492 58.9681 109.509 58.5113L110.412 32.1164Z" fill="#272727"/>
<path d="M79.1156 21.4435C94.437 21.4435 105.358 22.952 105.99 33.9893C107.557 42.6453 112.426 55.7099 116.046 29.9668C115.179 6.96599 88.0965 1.0061 78.5433 1.0061C70.7139 7.18884 63.7923 21.4435 79.1156 21.4435Z" fill="#272727"/>
<path d="M56.016 7.88937L53.2976 12.7444L79.545 11.3284L108.605 17.296V14.464L106.542 13.5536V11.3284H103.918V7.88937H100.543L99.793 5.25971H96.7932L95.0121 2.62985L91.9187 3.43902L90.9813 1.82068H87.7942V0L83.4822 1.82068L82.3571 0L80.4824 1.82068L78.6077 0L75.0455 1.82068L72.7958 0L70.3585 1.82068H68.6711L66.7963 3.43902L66.0463 1.82068L62.8592 5.25971L60.7969 4.45034L58.0783 8.39512L56.016 7.88937Z" fill="#272727"/>
<path d="M89.4774 49.154V54.7631C89.4774 56.0563 90.5257 57.1046 91.8188 57.1046C93.112 57.1046 94.1603 56.0563 94.1603 54.7631V49.154C94.1603 47.8608 93.112 46.8125 91.8188 46.8125C90.5257 46.8125 89.4774 47.8608 89.4774 49.154ZM64.3223 49.154V54.7631C64.3223 56.0563 65.3706 57.1046 66.6637 57.1046C67.9569 57.1046 69.0052 56.0563 69.0052 54.7631V49.154C69.0052 47.8608 67.9569 46.8125 66.6637 46.8125C65.3706 46.8125 64.3223 47.8608 64.3223 49.154Z" fill="black"/>
<path d="M88.7136 41.6845L99.8758 42.3668C101.166 42.4457 102.277 41.4634 102.356 40.1726C102.435 38.8819 101.452 37.7715 100.161 37.6926L88.9993 37.0103C87.7086 36.9314 86.5983 37.9138 86.5194 39.2045C86.4405 40.4953 87.4229 41.6056 88.7136 41.6845ZM71.0613 37.247L59.8936 37.8318C58.6023 37.8994 57.6102 39.0011 57.6778 40.2925C57.7454 41.5839 58.8471 42.5759 60.1385 42.5083L71.3061 41.9235C72.5975 41.8559 73.5896 40.7542 73.5219 39.4628C73.4543 38.1714 72.3526 37.1794 71.0613 37.247Z" fill="#393939"/>
<path d="M77.7986 56.5481C76.6139 58.6385 75.9233 60.9231 76.0123 62.7872C76.1346 65.3476 77.7419 67.0691 80.4482 67.0691V63.752C79.6027 63.752 79.3672 63.4998 79.3256 62.6289C79.2703 61.4714 79.7838 59.7728 80.6844 58.1836L77.7986 56.5481Z" fill="#EBBAAA"/>
<path d="M50.3413 42.3414V26.735L68.2925 18.7317V29.5362L62.7077 36.7391V33.5377L58.3197 36.7391L55.9261 33.5377L50.3413 42.3414Z" fill="#272727"/>
<path d="M107.707 43.5123V25.411L89.7559 17.366V28.2268L91.551 37.6797L94.7424 34.4616L98.3326 37.6797L103.12 34.4616L107.707 43.5123Z" fill="#272727"/>
<path d="M67.0325 38.3324L64.4196 31.6612L63.4146 17.366H96.7804L87.5344 40.0001L85.5244 36.188L83.3135 38.3324L80.4994 34.2821L78.6905 38.3324L75.6754 36.188L71.8565 38.3324L70.6505 36.188L67.0325 38.3324Z" fill="#272727"/>
<path d="M98.4754 8.66338C99.4232 8.72941 100.247 8.64769 101.071 8.25441C102.289 7.67308 103.088 6.52331 103.31 4.79445C103.371 4.31345 103.032 3.87355 102.551 3.81191C102.07 3.75026 101.63 4.09021 101.568 4.57121C101.421 5.72041 100.983 6.35087 100.315 6.66953C99.8253 6.90318 99.2692 6.95833 98.5975 6.91153C98.1137 6.87783 97.6942 7.24267 97.6605 7.72643C97.6268 8.2102 97.9917 8.62968 98.4754 8.66338ZM49.6419 14.3992L49.7191 14.3485C49.9654 14.1834 50.5049 13.8024 50.6057 13.7347C51.3412 13.2403 51.9114 12.9945 52.4785 12.9765C53.1956 12.9538 53.9335 13.3156 54.7588 14.2424C55.0813 14.6045 55.6363 14.6367 55.9985 14.3142C56.3606 13.9917 56.3928 13.4366 56.0703 13.0745C54.9176 11.7802 53.6956 11.181 52.4229 11.2213C51.4857 11.251 50.6675 11.5912 49.7242 12.212L49.6261 12.2772C49.4804 12.3751 48.8375 12.8296 48.6993 12.9175C48.2902 13.1778 48.1695 13.7205 48.4298 14.1297C48.6901 14.5388 49.2328 14.6595 49.6419 14.3992ZM44.748 38.3922C43.9255 36.9586 43.8075 35.5827 44.257 34.4604C44.6122 33.5734 45.2943 32.9695 45.902 32.8788L45.9474 32.8729C46.4296 32.8211 46.7784 32.3882 46.7266 31.906C46.6747 31.4239 46.2418 31.075 45.7597 31.1269C44.4471 31.268 43.2182 32.3307 42.6268 33.8075C41.9738 35.438 42.1399 37.3752 43.2248 39.2662C43.4662 39.6868 44.0028 39.8321 44.4234 39.5908C44.844 39.3494 44.9894 38.8128 44.748 38.3922ZM101.685 12.675L101.768 12.6287C102.023 12.4838 102.574 12.1536 102.678 12.0941C104.384 11.1212 105.581 11.089 107.102 12.5381C107.453 12.8726 108.008 12.8591 108.343 12.508C108.677 12.1569 108.664 11.6011 108.313 11.2666C107.13 10.1392 105.896 9.62595 104.627 9.66003C103.696 9.68506 102.871 9.9756 101.915 10.5085L101.808 10.5687C101.659 10.6539 100.995 11.052 100.851 11.1296C100.424 11.36 100.265 11.8927 100.496 12.3194C100.726 12.7461 101.259 12.9053 101.685 12.675Z" fill="#272727"/>
</g>
<defs>
<clipPath id="clip0_910_20113">
<rect width="160" height="103.805" fill="white"/>
</clipPath>
</defs>
</svg>
