<svg width="160" height="185" viewBox="0 0 160 185" fill="none" xmlns="http://www.w3.org/2000/svg">
<circle cx="81.9511" cy="102.245" r="78.0488" fill="#413034"/>
<circle cx="78.0488" cy="106.147" r="78.0488" fill="#D1B69B"/>
<mask id="mask0_910_17857" style="mask-type:alpha" maskUnits="userSpaceOnUse" x="0" y="28" width="157" height="157">
<circle cx="78.0488" cy="106.147" r="78.0488" fill="#D9D9D9"/>
</mask>
<g mask="url(#mask0_910_17857)">
<path d="M45.3438 223.005L53.9564 156.282L67.6731 154.296L67.805 150.933H75.2169L75.1221 149.243L94.3416 153.654L94.364 154.774L99.6099 156.282L112 223.005L95.7707 224.417L96.3855 226.116L82.7318 226.853V228.073H64.1307L64.0979 225.442L45.3438 223.005Z" fill="#2A1B16"/>
<path d="M39.9025 85.3417C40.8949 72.783 44.6829 53.4392 44.6829 53.4392H111.707C111.707 53.4392 129.301 102.837 119.805 116.464C110.309 130.09 59.5122 121.732 39.9025 121.732C24.749 121.732 38.7831 99.5087 39.9025 85.3417Z" fill="#17100F"/>
<path d="M46.3868 110.394C41.9323 118.334 37.7796 131.464 35.0274 145.244C32.2137 159.334 31.37 171.051 33.4744 176.87C34.8305 180.619 38.9694 182.56 42.7189 181.204C46.4685 179.848 48.4088 175.709 47.0528 171.959C47.0308 171.898 46.9806 171.69 46.929 171.363C46.8561 170.9 46.8 170.316 46.7667 169.627C46.6938 168.115 46.7353 166.209 46.8944 164C47.2201 159.477 48.0199 153.916 49.1869 148.072C51.6682 135.647 55.4069 123.827 58.9795 117.459C60.9303 113.982 59.6929 109.581 56.2155 107.63C52.7381 105.679 48.3377 106.917 46.3868 110.394ZM96.7283 117.459C100.301 123.827 104.04 135.647 106.521 148.072C107.688 153.916 108.488 159.477 108.813 164C108.973 166.209 109.014 168.115 108.941 169.627C108.908 170.316 108.852 170.9 108.779 171.363C108.727 171.69 108.677 171.898 108.655 171.959C107.299 175.709 109.24 179.848 112.989 181.204C116.739 182.56 120.878 180.619 122.234 176.87C124.338 171.051 123.494 159.333 120.68 145.244C117.928 131.463 113.776 118.334 109.321 110.394C107.37 106.917 102.97 105.679 99.4922 107.63C96.0149 109.581 94.7774 113.982 96.7283 117.459Z" fill="#EBBAAA"/>
<path d="M77.8535 109.829C95.0956 109.829 109.073 104.151 109.073 97.1466C109.073 90.142 95.0956 84.4636 77.8535 84.4636C60.6115 84.4636 46.634 90.142 46.634 97.1466C46.634 104.151 60.6115 109.829 77.8535 109.829Z" fill="#E1CAB3"/>
<path d="M110.049 97.1466C110.049 104.151 96.0715 109.829 78.8293 109.829V84.4636C96.0715 84.4636 110.049 90.1419 110.049 97.1466Z" fill="#D1B69B"/>
<path d="M84.6832 81.1464C84.6832 77.3747 81.6256 74.3171 77.8539 74.3171C74.0822 74.3171 71.0247 77.3747 71.0247 81.1464V103.781C71.0247 107.552 74.0822 110.61 77.8539 110.61C81.6256 110.61 84.6832 107.552 84.6832 103.781V81.1464Z" fill="#EBBAAA"/>
<path d="M115.707 103C109.889 91.4261 84.2928 90.1221 84.2928 90.1221V171.293H106.773C117.907 171.293 126.759 161.999 125.653 150.92C124.054 134.905 121.032 113.592 115.707 103ZM40.0001 103C45.8181 91.4261 71.4148 90.1221 71.4148 90.1221V171.293H48.9344C37.8 171.293 28.9487 161.999 30.0547 150.92C31.6533 134.905 34.6757 113.592 40.0001 103Z" fill="#52383D"/>
<path d="M102.634 156.854L127.61 154.903C127.61 154.903 127.66 168.19 121.951 172.854C115.273 178.309 102.634 172.854 102.634 172.854V156.854ZM53.0733 154.903H28.0977C28.0977 154.903 28.0474 168.19 33.7563 172.854C40.4343 178.309 53.0733 172.854 53.0733 172.854V154.903Z" fill="#E1CAB3"/>
<path d="M112.975 180.073L105.073 92.4636L86.0487 87.9758L60.6829 132.659L80.78 189.829L112.975 180.073Z" fill="#413034"/>
<path d="M60.878 134.399L48.6829 117.109C48.6829 117.109 65.3558 114.438 75.2194 104.384C83.4146 96.0305 84.4877 86.3171 84.4877 86.3171C84.4877 86.3171 109.658 86.3171 115.902 102.15C115.902 102.15 113.872 119.207 94.8292 129.348C78.8294 137.868 60.878 134.399 60.878 134.399Z" fill="#D1B69B"/>
<path d="M42.7317 180.073L50.6337 93.1581L69.6581 87.9758L95.024 132.659L74.9268 189.829L42.7317 180.073Z" fill="#52383D"/>
<path d="M94.6343 134.399L106.829 117.109C106.829 117.109 90.1564 114.438 80.2928 104.384C72.0977 96.0305 71.0245 86.3171 71.0245 86.3171C71.0245 86.3171 45.8538 86.3171 39.6099 102.15C39.6099 102.15 41.6406 119.207 60.683 129.348C76.6828 137.868 94.6343 134.399 94.6343 134.399Z" fill="#E1CAB3"/>
<path d="M65.6013 154.71C66.6296 154.985 67.6864 154.375 67.9619 153.347C68.2374 152.319 67.6273 151.262 66.599 150.986C65.5708 150.711 64.514 151.321 64.2385 152.349C63.9629 153.378 64.5731 154.434 65.6013 154.71Z" fill="#C4C4C4"/>
<path d="M69.7947 142.299C70.8229 142.574 71.8798 141.964 72.1553 140.936C72.4308 139.908 71.8206 138.851 70.7924 138.576C69.7642 138.3 68.7073 138.91 68.4318 139.938C68.1563 140.967 68.7665 142.023 69.7947 142.299Z" fill="#C4C4C4"/>
<path d="M60.8911 166.461C61.9193 166.737 62.9762 166.127 63.2517 165.098C63.5272 164.07 62.917 163.013 61.8888 162.738C60.8606 162.462 59.8038 163.073 59.5282 164.101C59.2527 165.129 59.8629 166.186 60.8911 166.461Z" fill="#C4C4C4"/>
<path d="M79.8511 158.731C80.8793 159.006 81.9362 158.396 82.2117 157.368C82.4872 156.34 81.877 155.283 80.8488 155.007C79.8206 154.732 78.7637 155.342 78.4882 156.37C78.2127 157.398 78.8229 158.455 79.8511 158.731Z" fill="#C4C4C4"/>
<path d="M84.0442 146.32C85.0724 146.596 86.1293 145.986 86.4048 144.958C86.6803 143.929 86.0701 142.873 85.0419 142.597C84.0137 142.321 82.9568 142.932 82.6813 143.96C82.4058 144.988 83.016 146.045 84.0442 146.32Z" fill="#C4C4C4"/>
<path d="M75.1411 170.482C76.1693 170.758 77.2262 170.148 77.5017 169.119C77.7772 168.091 77.1671 167.034 76.1388 166.759C75.1106 166.483 74.0538 167.094 73.7782 168.122C73.5027 169.15 74.1129 170.207 75.1411 170.482Z" fill="#C4C4C4"/>
<path d="M104.195 61.4386C108.506 61.4386 112 57.9444 112 53.6337C112 49.3233 108.506 45.8289 104.195 45.8289C99.8847 45.8289 96.3905 49.3233 96.3905 53.6337C96.3905 57.9444 99.8847 61.4386 104.195 61.4386ZM51.5125 61.4386C47.2019 61.4386 43.7075 57.9444 43.7075 53.6337C43.7075 49.3233 47.2019 45.8289 51.5125 45.8289C55.8229 45.8289 59.3173 49.3233 59.3173 53.6337C59.3173 57.9444 55.8229 61.4386 51.5125 61.4386Z" fill="#E4C1C1"/>
<path d="M50.5369 36.6582C50.5369 21.5713 62.7671 9.34106 77.8539 9.34106C92.9408 9.34106 105.171 21.5713 105.171 36.6582V48.6814C105.171 51.8377 104.733 54.9787 103.869 58.0146L100.29 70.5975C97.4625 80.5347 88.3853 87.3899 78.0537 87.3899C67.9031 87.3899 58.94 80.7684 55.9568 71.0662L52.0432 58.3378C51.0446 55.09 50.5369 51.7112 50.5369 48.3132V36.6582Z" fill="#F4D5CC"/>
<mask id="mask1_910_17857" style="mask-type:alpha" maskUnits="userSpaceOnUse" x="70" y="64" width="16" height="13">
<path d="M85.6372 64.3657C85.6516 64.5589 85.6588 64.754 85.6588 64.9511V68.8535C85.6588 73.164 82.1646 76.6584 77.854 76.6584C73.5435 76.6584 70.0491 73.164 70.0491 68.8535V64.9511C70.0491 64.754 70.0565 64.5589 70.0707 64.3657H85.6372Z" fill="white"/>
</mask>
<g mask="url(#mask1_910_17857)">
<path d="M85.6372 64.3657C85.6516 64.5589 85.6588 64.754 85.6588 64.9511V68.8535C85.6588 73.164 82.1646 76.6584 77.854 76.6584C73.5435 76.6584 70.0491 73.164 70.0491 68.8535V64.9511C70.0491 64.754 70.0565 64.5589 70.0707 64.3657H85.6372Z" fill="#393939"/>
<path d="M78.244 82.342C74.5801 82.342 71.6099 80.1581 71.6099 77.464C71.6099 74.7699 74.5801 72.5859 78.244 72.5859C81.908 72.5859 84.8782 74.7699 84.8782 77.464C84.8782 80.1581 81.908 82.342 78.244 82.342Z" fill="#FF6C6C"/>
<path d="M69.2686 64.366H87.0247V68.8538H69.2686V64.366Z" fill="white"/>
</g>
<path d="M61.8539 64.3653C65.0868 64.3653 67.7076 61.7445 67.7076 58.5116C67.7076 55.2787 65.0868 52.658 61.8539 52.658C58.621 52.658 56.0002 55.2787 56.0002 58.5116C56.0002 61.7445 58.621 64.3653 61.8539 64.3653Z" fill="#F2CACA"/>
<path d="M88.4886 44.7509L94.3423 45.3365C94.8784 45.3901 95.3565 44.9989 95.4101 44.4628C95.4638 43.9267 95.0726 43.4486 94.5365 43.3949L88.6828 42.8094C88.1467 42.7557 87.6686 43.1469 87.615 43.683C87.5613 44.2192 87.9525 44.6973 88.4886 44.7509ZM67.0252 42.8094L61.1715 43.3949C60.6354 43.4486 60.2443 43.9267 60.2979 44.4628C60.3515 44.9989 60.8296 45.3901 61.3658 45.3365L67.2194 44.7509C67.7556 44.6973 68.1467 44.2192 68.0931 43.683C68.0394 43.1469 67.5613 42.7557 67.0252 42.8094Z" fill="black"/>
<path d="M87.22 44.4633V50.3169C87.22 51.6101 88.2683 52.6584 89.5614 52.6584C90.8546 52.6584 91.9029 51.6101 91.9029 50.3169V44.4633C91.9029 43.1701 90.8546 42.1218 89.5614 42.1218C88.2683 42.1218 87.22 43.1701 87.22 44.4633ZM63.8059 44.4633V50.3169C63.8059 51.6101 64.8542 52.6584 66.1474 52.6584C67.4405 52.6584 68.4888 51.6101 68.4888 50.3169V44.4633C68.4888 43.1701 67.4405 42.1218 66.1474 42.1218C64.8542 42.1218 63.8059 43.1701 63.8059 44.4633Z" fill="black"/>
<path d="M75.9286 50.6755C75.8642 51.1425 75.7914 51.4576 75.4461 52.8373C75.3624 53.1718 75.303 53.4145 75.246 53.6581C74.8241 55.461 74.6937 56.6935 74.9694 57.8372C75.4012 59.6284 76.8273 60.6582 78.9273 60.6582V57.3411C78.7071 57.3411 78.5343 57.3206 78.4068 57.2864C78.3298 57.2657 78.2856 57.2453 78.2624 57.2285C78.2435 57.2149 78.2238 57.1829 78.1941 57.0599C78.078 56.5781 78.1676 55.731 78.4758 54.4139C78.5282 54.1902 78.584 53.962 78.664 53.6426C79.0477 52.1094 79.1263 51.7693 79.2146 51.1287L75.9286 50.6755Z" fill="#EBBAAA"/>
<path d="M93.8539 64.3653C97.0868 64.3653 99.7076 61.7445 99.7076 58.5116C99.7076 55.2787 97.0868 52.658 93.8539 52.658C90.621 52.658 88.0002 55.2787 88.0002 58.5116C88.0002 61.7445 90.621 64.3653 93.8539 64.3653Z" fill="#F2CACA"/>
<path d="M84.197 36.9648C86.4909 35.9097 90.1494 35.6252 92.6628 36.08C93.3502 36.2044 93.9799 36.4411 94.5458 36.7575C94.8474 36.9261 95.1099 37.1057 95.3299 37.2825C95.4036 37.3417 95.4657 37.3952 95.5157 37.4412C95.5403 37.4638 95.5523 37.4754 95.5511 37.4743C96.0018 37.9379 96.743 37.9485 97.2066 37.4978C97.6703 37.0472 97.6809 36.306 97.2302 35.8423C97.142 35.7516 96.997 35.6184 96.7968 35.4574C96.4787 35.2017 96.1088 34.9488 95.6885 34.7137C94.9061 34.2764 94.0346 33.9487 93.0797 33.7759C90.1259 33.2415 85.9892 33.5632 83.2185 34.8376C82.6311 35.1078 82.374 35.803 82.6441 36.3905C82.9143 36.9779 83.6096 37.235 84.197 36.9648ZM72.4898 34.8376C69.719 33.5632 65.5825 33.2415 62.6287 33.7759C61.6738 33.9487 60.8022 34.2764 60.0198 34.7138C59.5994 34.9488 59.2296 35.2018 58.9115 35.4575C58.7113 35.6185 58.5663 35.7516 58.4781 35.8424C58.0275 36.3061 58.0381 37.0473 58.5018 37.4979C58.9655 37.9485 59.7067 37.9379 60.1573 37.4742C60.1562 37.4753 60.1681 37.4637 60.1927 37.4411C60.2427 37.3952 60.3048 37.3417 60.3785 37.2824C60.5984 37.1056 60.8609 36.9261 61.1625 36.7575C61.7284 36.4411 62.3581 36.2044 63.0456 36.08C65.559 35.6252 69.2174 35.9097 71.5114 36.9649C72.0989 37.235 72.7941 36.9778 73.0643 36.3904C73.3344 35.803 73.0773 35.1078 72.4898 34.8376Z" fill="#62360D"/>
<path d="M61.2137 26.8318C66.4244 20.6993 76.2901 18.2704 78.8049 16.5215C79.7723 16.0509 79.7721 8.93426 77.4507 7.09707C74.2589 4.57092 62.9424 9.5261 57.9128 14.2869C52.8833 19.0477 47.806 25.2027 45.5389 39.4876C45.2965 41.0149 44.3767 44.4634 43.7914 50.3171C42.8962 59.2683 43.7914 72.9487 43.7914 78.8006C43.7914 86.3791 44.6619 96.1922 43.7914 104.839C43.1974 110.739 42.3418 121.451 42.3418 135.928C42.3418 139.234 51.5811 140.234 52.1095 137.58C52.8831 133.693 52.2074 111.738 52.9813 104.839C53.8343 97.2365 55.2045 91.9171 54.1407 84.8246C53.0767 77.7319 54.4287 74.3171 53.7504 68.2683C53.0722 62.2195 51.9161 52.0818 52.1095 45.7664C52.303 39.4511 55.9296 33.0503 61.2137 26.8318Z" fill="#311E1C"/>
<path d="M54.1468 108.366C52.898 102.434 49.7563 60.8536 49.7563 60.8536C49.7563 60.8536 51.9599 61.5955 52.9759 61.3414C54.3827 67.5477 56.8914 75.7738 61.4637 80.4634C62.5694 84.7885 64.937 94.5317 65.5614 100.463C66.3419 107.878 65.5614 131.098 63.8053 131.098C59.7286 131.098 56.8602 131.683 56.098 129.244C54.6346 124.561 55.7078 115.78 54.1468 108.366ZM93.7565 24.561C87.9911 19.026 78.732 17.8293 77.8539 16.4634C76.9433 13.3415 76.7638 8.09495 80.7807 6.70734C86.1468 4.85376 100.293 12.3658 104.976 24.561C108.467 33.6513 111.56 43.823 112.293 56.6585C113.393 75.9094 106.273 94.4534 106.83 113.927C107.122 124.171 110.977 128.688 104.976 133.439C99.5339 137.747 91.5121 138.113 87.2198 132.659C77.8539 120.756 95.923 94.1949 100.976 69.439C101.629 66.2396 102.439 62.8372 102.634 61.2439C113.073 63.0975 115.61 47.4878 105.171 45.9268C105.171 39.3789 97.7542 28.3988 93.7565 24.561Z" fill="#311E1C"/>
<path d="M105.788 64.0674C107.099 64.0674 108.162 63.0041 108.162 61.6924C108.162 60.3807 107.099 59.3174 105.788 59.3174C104.478 59.3174 103.415 60.3807 103.415 61.6924C103.415 63.0041 104.478 64.0674 105.788 64.0674Z" fill="#D29A48"/>
<path fill-rule="evenodd" clip-rule="evenodd" d="M79.2472 0.00973809C93.3202 0.402205 108.62 16.6128 113.756 26.3169C116.466 31.4375 118.274 39.6826 109.659 39.6826C101.689 27.3899 83.9025 12.9444 64.1951 17.9754C53.6586 20.6654 50.0308 25.1462 50.0308 25.1462C50.0308 25.1462 49.0324 17.0514 53.0732 12.3656C58.9317 5.57199 69.3013 -0.267633 79.2472 0.00973809Z" fill="#E1CAB3"/>
</g>
<g clip-path="url(#clip0_910_17857)">
<path d="M39.9025 85.3407C40.8949 72.782 44.6829 53.4382 44.6829 53.4382H111.707C111.707 53.4382 129.301 102.836 119.805 116.463C110.309 130.089 59.5122 121.731 39.9025 121.731C24.749 121.731 38.7831 99.5077 39.9025 85.3407Z" fill="#17100F"/>
<path d="M46.3866 110.394C41.9321 118.334 37.7793 131.463 35.0272 145.244C32.2135 159.333 31.3697 171.05 33.4742 176.869C34.8302 180.619 38.9691 182.559 42.7187 181.203C46.4682 179.847 48.4086 175.708 47.0525 171.958C47.0305 171.898 46.9804 171.69 46.9288 171.362C46.8558 170.9 46.7997 170.315 46.7665 169.626C46.6936 168.114 46.7351 166.209 46.8942 163.999C47.2199 159.477 48.0196 153.915 49.1866 148.071C51.6679 135.647 55.4067 123.826 58.9792 117.458C60.9301 113.981 59.6926 109.58 56.2153 107.63C52.7379 105.679 48.3374 106.916 46.3866 110.394ZM96.7281 117.458C100.301 123.826 104.039 135.647 106.521 148.071C107.688 153.915 108.487 159.477 108.813 163.999C108.972 166.209 109.014 168.114 108.941 169.626C108.908 170.315 108.852 170.9 108.779 171.362C108.727 171.69 108.677 171.898 108.655 171.958C107.299 175.708 109.239 179.847 112.989 181.203C116.738 182.559 120.877 180.618 122.233 176.869C124.338 171.05 123.494 159.333 120.68 145.244C117.928 131.463 113.775 118.334 109.321 110.393C107.37 106.916 102.969 105.679 99.492 107.63C96.0146 109.58 94.7772 113.981 96.7281 117.458Z" fill="#EBBAAA"/>
<path d="M77.8538 109.829C95.0959 109.829 109.073 104.15 109.073 97.1456C109.073 90.141 95.0959 84.4626 77.8538 84.4626C60.6117 84.4626 46.6343 90.141 46.6343 97.1456C46.6343 104.15 60.6117 109.829 77.8538 109.829Z" fill="#E1CAB3"/>
<path d="M110.049 97.1456C110.049 104.15 96.0715 109.829 78.8293 109.829V84.4626C96.0715 84.4626 110.049 90.1409 110.049 97.1456Z" fill="#D1B69B"/>
<path d="M84.6832 81.1454C84.6832 77.3737 81.6256 74.3162 77.8539 74.3162C74.0822 74.3162 71.0247 77.3737 71.0247 81.1454V103.78C71.0247 107.551 74.0822 110.609 77.8539 110.609C81.6256 110.609 84.6832 107.551 84.6832 103.78V81.1454Z" fill="#EBBAAA"/>
<path d="M115.707 102.999C109.889 91.4251 84.2928 90.1211 84.2928 90.1211V171.292H106.773C117.907 171.292 126.759 161.998 125.653 150.919C124.054 134.904 121.032 113.591 115.707 102.999ZM40.0001 102.999C45.8181 91.4251 71.4148 90.1211 71.4148 90.1211V171.292H48.9344C37.8 171.292 28.9487 161.998 30.0547 150.919C31.6533 134.904 34.6757 113.591 40.0001 102.999Z" fill="#52383D"/>
<path d="M112.975 180.072L105.073 92.4627L86.049 87.9749L60.6831 132.658L80.7803 189.829L112.975 180.072Z" fill="#413034"/>
<path d="M60.8782 134.398L48.6831 117.108C48.6831 117.108 65.3561 114.438 75.2197 104.383C83.4148 96.0298 84.488 86.3164 84.488 86.3164C84.488 86.3164 109.659 86.3164 115.903 102.149C115.903 102.149 113.872 119.206 94.8294 129.347C78.8296 137.867 60.8782 134.398 60.8782 134.398Z" fill="#D1B69B"/>
<path d="M42.7317 180.072L50.6337 93.1571L69.6581 87.9749L95.024 132.658L74.9268 189.829L42.7317 180.072Z" fill="#52383D"/>
<path d="M94.6343 134.398L106.829 117.108C106.829 117.108 90.1564 114.438 80.2928 104.383C72.0977 96.0298 71.0245 86.3164 71.0245 86.3164C71.0245 86.3164 45.8538 86.3164 39.6099 102.149C39.6099 102.149 41.6406 119.206 60.683 129.347C76.6828 137.867 94.6343 134.398 94.6343 134.398Z" fill="#E1CAB3"/>
<path d="M69.7947 142.298C70.8229 142.574 71.8798 141.964 72.1553 140.936C72.4308 139.907 71.8206 138.851 70.7924 138.575C69.7642 138.3 68.7073 138.91 68.4318 139.938C68.1563 140.966 68.7665 142.023 69.7947 142.298Z" fill="#C4C4C4"/>
<path d="M104.196 61.4384C108.506 61.4384 112.001 57.9441 112.001 53.6335C112.001 49.3231 108.506 45.8286 104.196 45.8286C99.885 45.8286 96.3907 49.3231 96.3907 53.6335C96.3907 57.9441 99.885 61.4384 104.196 61.4384ZM51.5127 61.4384C47.2021 61.4384 43.7078 57.9441 43.7078 53.6335C43.7078 49.3231 47.2021 45.8286 51.5127 45.8286C55.8231 45.8286 59.3176 49.3231 59.3176 53.6335C59.3176 57.9441 55.8231 61.4384 51.5127 61.4384Z" fill="#E4C1C1"/>
<path d="M50.5369 36.6579C50.5369 21.5711 62.7671 9.34082 77.8539 9.34082C92.9408 9.34082 105.171 21.5711 105.171 36.6579V48.6811C105.171 51.8374 104.733 54.9785 103.869 58.0144L100.29 70.5972C97.4625 80.5344 88.3853 87.3896 78.0537 87.3896C67.9031 87.3896 58.94 80.7682 55.9568 71.0659L52.0432 58.3375C51.0446 55.0897 50.5369 51.711 50.5369 48.3129V36.6579Z" fill="#F4D5CC"/>
<mask id="mask2_910_17857" style="mask-type:alpha" maskUnits="userSpaceOnUse" x="70" y="64" width="16" height="13">
<path d="M85.6372 64.365C85.6516 64.5582 85.6588 64.7533 85.6588 64.9504V68.8528C85.6588 73.1632 82.1646 76.6577 77.854 76.6577C73.5435 76.6577 70.0491 73.1632 70.0491 68.8528V64.9504C70.0491 64.7533 70.0565 64.5582 70.0707 64.365H85.6372Z" fill="white"/>
</mask>
<g mask="url(#mask2_910_17857)">
<path d="M85.6372 64.365C85.6516 64.5582 85.6588 64.7533 85.6588 64.9504V68.8528C85.6588 73.1632 82.1646 76.6577 77.854 76.6577C73.5435 76.6577 70.0491 73.1632 70.0491 68.8528V64.9504C70.0491 64.7533 70.0565 64.5582 70.0707 64.365H85.6372Z" fill="#393939"/>
<path d="M78.2443 82.3413C74.5803 82.3413 71.6101 80.1573 71.6101 77.4633C71.6101 74.7692 74.5803 72.5852 78.2443 72.5852C81.9082 72.5852 84.8784 74.7692 84.8784 77.4633C84.8784 80.1573 81.9082 82.3413 78.2443 82.3413Z" fill="#FF6C6C"/>
<path d="M69.2686 64.365H87.0247V68.8528H69.2686V64.365Z" fill="white"/>
</g>
<path d="M61.8541 64.3653C65.087 64.3653 67.7078 61.7445 67.7078 58.5116C67.7078 55.2787 65.087 52.658 61.8541 52.658C58.6213 52.658 56.0005 55.2787 56.0005 58.5116C56.0005 61.7445 58.6213 64.3653 61.8541 64.3653Z" fill="#F2CACA"/>
<path d="M88.4886 44.7506L94.3423 45.3362C94.8784 45.3898 95.3565 44.9987 95.4101 44.4626C95.4638 43.9264 95.0726 43.4483 94.5365 43.3947L88.6828 42.8091C88.1467 42.7555 87.6686 43.1466 87.615 43.6828C87.5613 44.2189 87.9525 44.697 88.4886 44.7506ZM67.0252 42.8091L61.1715 43.3947C60.6354 43.4483 60.2443 43.9264 60.2979 44.4626C60.3515 44.9987 60.8296 45.3898 61.3658 45.3362L67.2194 44.7506C67.7556 44.697 68.1467 44.2189 68.0931 43.6828C68.0394 43.1466 67.5613 42.7555 67.0252 42.8091Z" fill="black"/>
<path d="M87.22 44.4626V50.3162C87.22 51.6094 88.2683 52.6577 89.5614 52.6577C90.8546 52.6577 91.9029 51.6094 91.9029 50.3162V44.4626C91.9029 43.1694 90.8546 42.1211 89.5614 42.1211C88.2683 42.1211 87.22 43.1694 87.22 44.4626ZM63.8059 44.4626V50.3162C63.8059 51.6094 64.8542 52.6577 66.1474 52.6577C67.4405 52.6577 68.4888 51.6094 68.4888 50.3162V44.4626C68.4888 43.1694 67.4405 42.1211 66.1474 42.1211C64.8542 42.1211 63.8059 43.1694 63.8059 44.4626Z" fill="black"/>
<path d="M75.9286 50.6753C75.8642 51.1422 75.7914 51.4573 75.4461 52.8371C75.3624 53.1716 75.303 53.4143 75.246 53.6578C74.8241 55.4607 74.6937 56.6933 74.9694 57.837C75.4012 59.6282 76.8273 60.658 78.9273 60.658V57.3409C78.7071 57.3409 78.5343 57.3204 78.4068 57.2862C78.3298 57.2655 78.2856 57.245 78.2624 57.2283C78.2435 57.2146 78.2238 57.1827 78.1941 57.0596C78.078 56.5779 78.1676 55.7307 78.4758 54.4137C78.5282 54.19 78.584 53.9618 78.664 53.6424C79.0477 52.1092 79.1263 51.7691 79.2146 51.1285L75.9286 50.6753Z" fill="#EBBAAA"/>
<path d="M93.8541 64.3653C97.087 64.3653 99.7078 61.7445 99.7078 58.5116C99.7078 55.2787 97.087 52.658 93.8541 52.658C90.6213 52.658 88.0005 55.2787 88.0005 58.5116C88.0005 61.7445 90.6213 64.3653 93.8541 64.3653Z" fill="#F2CACA"/>
<path d="M84.197 36.9646C86.4909 35.9095 90.1494 35.6249 92.6628 36.0797C93.3502 36.2041 93.9799 36.4408 94.5458 36.7572C94.8474 36.9259 95.1099 37.1054 95.3299 37.2822C95.4036 37.3415 95.4657 37.395 95.5157 37.4409C95.5403 37.4635 95.5523 37.4752 95.5511 37.474C96.0018 37.9377 96.743 37.9482 97.2066 37.4976C97.6703 37.047 97.6809 36.3058 97.2302 35.8421C97.142 35.7513 96.997 35.6182 96.7968 35.4572C96.4787 35.2015 96.1088 34.9485 95.6885 34.7135C94.9061 34.2761 94.0346 33.9485 93.0797 33.7757C90.1259 33.2412 85.9892 33.5629 83.2185 34.8374C82.6311 35.1076 82.374 35.8028 82.6441 36.3902C82.9143 36.9776 83.6096 37.2348 84.197 36.9646ZM72.4898 34.8374C69.719 33.5629 65.5825 33.2412 62.6287 33.7757C61.6738 33.9485 60.8022 34.2761 60.0198 34.7135C59.5994 34.9486 59.2296 35.2015 58.9115 35.4572C58.7113 35.6182 58.5663 35.7514 58.4781 35.8422C58.0275 36.3059 58.0381 37.047 58.5018 37.4977C58.9655 37.9483 59.7067 37.9376 60.1573 37.4739C60.1562 37.4751 60.1681 37.4635 60.1927 37.4409C60.2427 37.3949 60.3048 37.3414 60.3785 37.2822C60.5984 37.1054 60.8609 36.9259 61.1625 36.7572C61.7284 36.4408 62.3581 36.2041 63.0456 36.0797C65.559 35.6249 69.2174 35.9095 71.5114 36.9646C72.0989 37.2348 72.7941 36.9776 73.0643 36.3902C73.3344 35.8028 73.0773 35.1075 72.4898 34.8374Z" fill="#62360D"/>
<path d="M61.2137 26.8311C66.4244 20.6986 76.2901 18.2697 78.8049 16.5208C79.7723 16.0502 79.7721 8.93353 77.4507 7.09634C74.2589 4.57019 62.9424 9.52537 57.9128 14.2862C52.8833 19.047 47.806 25.202 45.5389 39.4869C45.2965 41.0141 44.3767 44.4627 43.7914 50.3163C42.8962 59.2676 43.7914 72.948 43.7914 78.7999C43.7914 86.3784 44.6619 96.1915 43.7914 104.839C43.1974 110.738 42.3418 121.45 42.3418 135.927C42.3418 139.233 51.5811 140.233 52.1095 137.579C52.8831 133.692 52.2074 111.737 52.9813 104.839C53.8343 97.2358 55.2045 91.9163 54.1407 84.8239C53.0767 77.7312 54.4287 74.3163 53.7504 68.2676C53.0722 62.2188 51.9161 52.081 52.1095 45.7657C52.303 39.4504 55.9296 33.0496 61.2137 26.8311Z" fill="#311E1C"/>
<path d="M54.1468 108.365C52.898 102.433 49.7563 60.8529 49.7563 60.8529C49.7563 60.8529 51.9599 61.5948 52.9759 61.3407C54.3827 67.547 56.8914 75.7731 61.4637 80.4627C62.5694 84.7877 64.937 94.531 65.5614 100.463C66.3419 107.877 65.5614 131.097 63.8053 131.097C59.7286 131.097 56.8602 131.682 56.098 129.243C54.6346 124.56 55.7078 115.78 54.1468 108.365ZM93.7565 24.5602C87.9911 19.0253 78.732 17.8285 77.8539 16.4627C76.9433 13.3407 76.7638 8.09422 80.7807 6.70661C86.1468 4.85303 100.293 12.365 104.976 24.5602C108.467 33.6506 111.56 43.8223 112.293 56.6578C113.393 75.9087 106.273 94.4527 106.83 113.926C107.122 124.17 110.977 128.687 104.976 133.438C99.5339 137.746 91.5121 138.112 87.2198 132.658C77.8539 120.755 95.923 94.1942 100.976 69.4383C101.629 66.2389 102.439 62.8365 102.634 61.2432C113.073 63.0968 115.61 47.4871 105.171 45.9261C105.171 39.3782 97.7542 28.3981 93.7565 24.5602Z" fill="#311E1C"/>
<path d="M105.788 64.0672C107.099 64.0672 108.162 63.0039 108.162 61.6922C108.162 60.3805 107.099 59.3171 105.788 59.3171C104.478 59.3171 103.415 60.3805 103.415 61.6922C103.415 63.0039 104.478 64.0672 105.788 64.0672Z" fill="#D29A48"/>
<path fill-rule="evenodd" clip-rule="evenodd" d="M79.2475 0.00949395C93.3205 0.401961 108.62 16.6125 113.756 26.3167C116.467 31.4373 118.274 39.6823 109.659 39.6823C101.689 27.3897 83.9027 12.9441 64.1954 17.9752C53.6588 20.6652 50.0311 25.146 50.0311 25.146C50.0311 25.146 49.0327 17.0512 53.0734 12.3654C58.932 5.57175 69.3015 -0.267877 79.2475 0.00949395Z" fill="#E1CAB3"/>
</g>
<defs>
<clipPath id="clip0_910_17857">
<rect width="160" height="140.488" fill="white"/>
</clipPath>
</defs>
</svg>
